<svg width="84" height="157" viewBox="0 0 84 157" fill="none" xmlns="http://www.w3.org/2000/svg">
<path fill-rule="evenodd" clip-rule="evenodd" d="M39.8424 73.1933C39.8424 73.1933 28.1769 72.5168 25.9621 73.7968C23.7473 75.0768 22.3411 76.8143 22.3411 76.8143C22.3411 76.8143 19.4612 74.5451 19.3236 73.1933C19.186 71.8415 16.3062 75.6073 16.3062 75.6073C16.3062 75.6073 13.6098 74.2615 13.2887 73.1933C12.9676 72.1251 13.7926 68.684 12.6852 68.3654C11.5778 68.0467 7.73776 68.6037 6.65026 69.5723C5.56277 70.541 5.69614 63.8343 4.83978 62.3304C3.07698 59.2345 -0.222327 55.8006 0.0118291 51.4675C0.343751 45.3288 4.43725 42.7223 4.83978 38.7941C5.24231 34.866 0.629807 29.5021 4.83978 21.2928C9.04976 13.0835 16.1082 14.5632 18.1167 12.2404C20.1251 9.91755 22.4618 3.86691 30.79 1.3775C39.1183 -1.11191 47.6311 -0.180118 51.3088 3.79148C54.4144 7.1451 56.3142 9.47579 58.5508 9.82642C60.7873 10.177 66.5127 8.50537 71.2241 12.2404C75.9356 15.9754 73.4577 21.5487 76.0521 23.7068C78.6465 25.8649 81.9332 25.2288 82.6905 32.1557C83.4479 39.0826 79.9205 39.12 82.6905 44.2256C85.4606 49.3312 78.7081 51.1139 79.6731 56.2955C80.6381 61.4771 81.9712 60.8778 81.4835 62.3304C80.9959 63.783 74.002 62.6762 73.0346 62.9339C72.0672 63.1916 72.6478 67.1318 71.8276 68.9688C71.0075 70.8059 68.582 72.8421 67.6032 73.1933C66.6243 73.5445 68.3008 69.9519 66.9997 70.1758C65.6985 70.3997 62.1186 74.2162 62.1717 75.6073C62.2248 76.9983 59.1543 73.7968 59.1543 73.7968C59.1543 73.7968 57.0963 74.658 56.2702 76.2108C55.444 77.7636 51.3088 73.1933 51.3088 73.1933H39.8424Z" fill="#AF684A"/>
<path fill-rule="evenodd" clip-rule="evenodd" d="M26.328 150.424C30.0769 149.908 33.1843 150.975 33.1843 153.743C33.1843 156.511 30.1119 156.459 26.328 156.459C22.5435 156.459 19.6039 155.908 19.6039 154.346C19.6039 152.785 21.94 151.027 26.328 150.424Z" fill="#F2F2F2"/>
<path fill-rule="evenodd" clip-rule="evenodd" d="M54.9924 150.424C51.2435 149.908 48.1361 150.975 48.1361 153.743C48.1361 156.511 51.2085 156.459 54.9924 156.459C58.7769 156.459 61.7166 155.908 61.7166 154.346C61.7166 152.785 59.3804 151.027 54.9924 150.424Z" fill="#F2F2F2"/>
<path fill-rule="evenodd" clip-rule="evenodd" d="M19.67 118.431H46.8318C46.8318 118.431 36.9502 140.826 34.0446 147.409C33.5625 148.504 32.4798 149.209 31.2839 149.209C30.5347 149.209 29.6716 149.209 28.8846 149.209C27.4684 149.209 26.2431 148.224 25.9383 146.841C24.3471 139.632 19.67 118.431 19.67 118.431Z" fill="#4887B3"/>
<path fill-rule="evenodd" clip-rule="evenodd" d="M62.0131 118.431H34.8513C34.8513 118.431 44.7329 140.826 47.6385 147.409C48.1206 148.504 49.2033 149.209 50.3992 149.209C51.1484 149.209 52.0115 149.209 52.7985 149.209C54.2146 149.209 55.44 148.224 55.7448 146.841C57.336 139.632 62.0131 118.431 62.0131 118.431Z" fill="#4887B3"/>
<path fill-rule="evenodd" clip-rule="evenodd" d="M52.8206 80.0742C50.716 81.0771 53.4494 88.137 56.9711 100.474C59.9881 111.042 65.437 119.132 68.1452 117.841C70.8533 116.551 69.9302 106.157 65.2017 96.2351C60.4732 86.3127 54.9251 79.0713 52.8206 80.0742Z" fill="#FFDAB3"/>
<path fill-rule="evenodd" clip-rule="evenodd" d="M66.9427 119.328C64.56 119.56 63.9822 123.145 63.3236 125.744C62.7823 127.879 64.4125 130.489 67.3959 130.198C69.7787 129.966 71.8041 126.789 71.6742 124.324C71.5207 121.418 69.9262 119.037 66.9427 119.328Z" fill="#FFDAB3"/>
<path fill-rule="evenodd" clip-rule="evenodd" d="M28.5005 80.0742C30.605 81.0771 27.8717 88.137 24.3499 100.474C21.3329 111.042 15.8841 119.132 13.1759 117.841C10.4677 116.551 11.3909 106.157 16.1194 96.2351C20.8479 86.3127 26.3959 79.0713 28.5005 80.0742Z" fill="#FFDAB3"/>
<path fill-rule="evenodd" clip-rule="evenodd" d="M14.3782 119.328C16.761 119.56 17.3387 123.145 17.9973 125.744C18.5386 127.879 16.9084 130.489 13.925 130.198C11.5423 129.966 9.51679 126.789 9.64675 124.324C9.80022 121.418 11.3948 119.037 14.3782 119.328Z" fill="#FFDAB3"/>
<path fill-rule="evenodd" clip-rule="evenodd" d="M61.853 118.605L19.604 118.61L28.6612 79.3783L40.7312 76.9644L52.8006 79.3783L61.853 118.605Z" fill="#FFDAB3"/>
<path fill-rule="evenodd" clip-rule="evenodd" d="M46.5588 74.8993C46.5588 73.2337 45.207 71.8818 43.5413 71.8818H37.5064C35.8407 71.8818 34.4889 73.2337 34.4889 74.8993V86.9692C34.4889 88.6348 35.8407 89.9867 37.5064 89.9867H43.5413C45.207 89.9867 46.5588 88.6348 46.5588 86.9692V74.8993Z" fill="#FFDAB3"/>
<path fill-rule="evenodd" clip-rule="evenodd" d="M72.3205 37.2053C72.3205 23.083 60.8547 11.6172 46.7323 11.6172H33.9383C19.8159 11.6172 8.3501 23.083 8.3501 37.2053V49.9994C8.3501 64.1218 19.8159 75.5876 33.9383 75.5876H46.7323C60.8547 75.5876 72.3205 64.1218 72.3205 49.9994V37.2053Z" fill="#FFDAB3"/>
<path fill-rule="evenodd" clip-rule="evenodd" d="M14.8362 47.9494C14.4913 46.6623 13.1668 45.8976 11.8797 46.2425L7.21627 47.4921C5.92916 47.837 5.38888 48.8146 4.90576 50.4485C4.55726 51.6265 4.24021 53.6633 4.79416 55.7003C5.30848 57.5918 6.50721 59.4261 7.56109 60.3583C8.41346 61.1121 9.83405 62.4102 11.1212 62.0653L15.7846 60.8158C17.0717 60.4709 17.8364 59.1464 17.4916 57.8593L14.8362 47.9494Z" fill="#FFDAB3"/>
<path fill-rule="evenodd" clip-rule="evenodd" d="M66.4845 47.9494C66.8293 46.6623 68.1538 45.8976 69.441 46.2425L74.1044 47.4921C75.3915 47.837 75.9318 48.8146 76.4149 50.4485C76.7634 51.6265 77.0805 53.6633 76.5265 55.7003C76.0122 57.5918 74.8135 59.4261 73.7596 60.3583C72.9072 61.1121 71.4866 62.4102 70.1995 62.0653L65.5361 60.8158C64.249 60.4709 63.4842 59.1464 63.8291 57.8593L66.4845 47.9494Z" fill="#FFDAB3"/>
<path fill-rule="evenodd" clip-rule="evenodd" d="M36.729 63.0017C36.6208 62.962 36.5 62.9832 36.413 63.0584C36.326 63.1336 36.2871 63.2501 36.3108 63.3625C36.7442 64.4955 38.4348 65.3472 40.4533 65.3472C42.4717 65.3472 44.1623 64.4955 44.5789 63.3591C44.6008 63.2527 44.5637 63.1428 44.4817 63.0719C44.3998 63.0009 44.2857 62.9806 44.1835 63.0178C43.2051 63.3304 41.8761 63.5729 40.4533 63.5729C39.0305 63.5729 37.7015 63.3304 36.729 63.0017Z" fill="#562E32"/>
<path d="M28.067 59.0393C29.7335 59.0393 31.0845 57.6884 31.0845 56.0219C31.0845 54.3554 29.7335 53.0044 28.067 53.0044C26.4005 53.0044 25.0496 54.3554 25.0496 56.0219C25.0496 57.6884 26.4005 59.0393 28.067 59.0393Z" fill="#562E32"/>
<path fill-rule="evenodd" clip-rule="evenodd" d="M29.2673 44.0953C31.0567 42.213 28.0446 41.834 25.6464 42.2848C22.8673 42.8074 19.7418 44.0344 19.6114 44.6988C19.4811 45.3633 21.0592 44.1213 25.0429 44.0953C27.216 44.0808 28.8817 44.5009 29.2673 44.0953Z" fill="#562E32"/>
<path d="M53.2537 59.0393C51.5871 59.0393 50.2362 57.6884 50.2362 56.0219C50.2362 54.3554 51.5871 53.0044 53.2537 53.0044C54.9202 53.0044 56.2711 54.3554 56.2711 56.0219C56.2711 57.6884 54.9202 59.0393 53.2537 59.0393Z" fill="#562E32"/>
<path fill-rule="evenodd" clip-rule="evenodd" d="M52.0533 44.0953C50.264 42.213 53.276 41.834 55.6743 42.2848C58.4534 42.8074 61.5789 44.0344 61.7093 44.6988C61.8396 45.3633 60.2615 44.1213 56.2778 44.0953C54.1046 44.0808 52.439 44.5009 52.0533 44.0953Z" fill="#562E32"/>
<path fill-rule="evenodd" clip-rule="evenodd" d="M62.978 120.902L56.5731 96.3486L63.9605 93.1948C63.9605 93.1948 59.7596 85.0736 56.2267 81.388C54.6902 79.7857 52.7186 79.2607 52.7186 79.2607L46.6837 78.0537L40.5117 82.2782L34.3398 78.0537L28.3049 79.2607C28.3049 79.2607 26.3332 79.7857 24.7974 81.388C21.2639 85.0736 17.063 93.1948 17.063 93.1948L24.451 96.3486L18.0455 120.902C18.0455 120.902 25.7811 122.109 40.5117 122.109C55.2424 122.109 62.978 120.902 62.978 120.902Z" fill="#AEBE8F"/>
<path fill-rule="evenodd" clip-rule="evenodd" d="M56.5118 96.31L63.8992 93.1562C63.8992 93.1562 63.5625 92.5044 62.9982 91.4863L55.9083 94.4996L56.5118 96.31Z" fill="#8B9C73"/>
<path fill-rule="evenodd" clip-rule="evenodd" d="M17.964 91.4863C17.4003 92.5044 17.063 93.1562 17.063 93.1562L24.451 96.31L24.9724 94.6136L17.964 91.4863Z" fill="#8B9C73"/>
<path fill-rule="evenodd" clip-rule="evenodd" d="M18.7814 118.352L18.152 120.766C18.152 120.766 25.8876 121.973 40.6182 121.973C55.3489 121.973 63.0845 120.766 63.0845 120.766L62.4551 118.352C62.4551 118.352 58.1564 119.559 40.6182 119.559C23.0801 119.559 18.7814 118.352 18.7814 118.352Z" fill="#8B9C73"/>
<path fill-rule="evenodd" clip-rule="evenodd" d="M53.9046 91.3559L46.1061 92.2124L46.7642 98.2047C46.8738 99.2023 47.7713 99.9221 48.7689 99.8125L52.9549 99.3528C53.9525 99.2432 54.6723 98.3457 54.5628 97.3481L53.9046 91.3559Z" fill="#8B9C73"/>
<path fill-rule="evenodd" clip-rule="evenodd" d="M72.9118 47.1554C72.9118 47.1554 70.3415 47.1886 69.2908 48.3624C68.2401 49.5362 67.4803 51.9834 67.4803 51.9834C67.4803 51.9834 67.2426 41.6733 58.4279 38.7065C49.6133 35.7397 51.186 27.2401 51.186 27.2401C51.186 27.2401 47.6525 35.7307 36.0986 30.8611C24.5447 25.9915 20.0366 34.7723 20.4078 38.103C20.7789 41.4337 17.6999 45.328 14.9763 46.1017C12.2528 46.8754 13.1658 51.9834 13.1658 51.9834C13.1658 51.9834 12.0928 49.2791 10.8889 48.3624C9.68488 47.4457 7.7344 47.1554 7.7344 47.1554C7.7344 47.1554 4.2981 30.8478 11.3554 20.6017C18.4126 10.3555 31.4976 8.71284 40.3231 9.13528C49.1486 9.55773 58.8878 8.04175 68.0838 19.3947C77.2799 30.7476 72.9118 47.1554 72.9118 47.1554Z" fill="#AF684A"/>
</svg>
