<svg width="83" height="150" viewBox="0 0 83 150" fill="none" xmlns="http://www.w3.org/2000/svg">
<path fill-rule="evenodd" clip-rule="evenodd" d="M13.8273 67.6339L5.0827 50.1326L12.0168 27.1998L41.194 16.3369L71.1593 30.8208L72.3663 67.0304C72.3663 67.0304 67.4671 60.392 41.194 60.392C14.9208 60.392 13.8273 67.6339 13.8273 67.6339Z" fill="#EB6C7D"/>
<path fill-rule="evenodd" clip-rule="evenodd" d="M27.0542 143.527C30.8031 143.011 33.9105 144.078 33.9105 146.846C33.9105 149.614 30.8381 149.562 27.0542 149.562C23.2697 149.562 20.33 149.011 20.33 147.45C20.33 145.888 22.6662 144.13 27.0542 143.527Z" fill="#F2F2F2"/>
<path fill-rule="evenodd" clip-rule="evenodd" d="M55.7186 143.527C51.9697 143.011 48.8623 144.078 48.8623 146.846C48.8623 149.614 51.9347 149.562 55.7186 149.562C59.5031 149.562 62.4428 149.011 62.4428 147.45C62.4428 145.888 60.1066 144.13 55.7186 143.527Z" fill="#F2F2F2"/>
<path fill-rule="evenodd" clip-rule="evenodd" d="M20.3961 111.534H47.5579C47.5579 111.534 37.6763 133.93 34.7707 140.513C34.2886 141.607 33.2059 142.312 32.01 142.312C31.2608 142.312 30.3977 142.312 29.6108 142.312C28.1946 142.312 26.9693 141.328 26.6644 139.945C25.0732 132.735 20.3961 111.534 20.3961 111.534Z" fill="#D7B194"/>
<path fill-rule="evenodd" clip-rule="evenodd" d="M62.7393 111.534H35.5775C35.5775 111.534 45.4591 133.93 48.3647 140.513C48.8468 141.607 49.9295 142.312 51.1253 142.312C51.8746 142.312 52.7377 142.312 53.5246 142.312C54.9408 142.312 56.1661 141.328 56.471 139.945C58.0622 132.735 62.7393 111.534 62.7393 111.534Z" fill="#D7B194"/>
<path fill-rule="evenodd" clip-rule="evenodd" d="M53.5465 72.7119C51.4419 73.7148 54.1753 80.7747 57.697 93.1112C60.714 103.68 66.1628 111.77 68.871 110.479C71.5792 109.189 70.6561 98.7951 65.9276 88.8728C61.1991 78.9504 55.651 71.709 53.5465 72.7119Z" fill="#D7B194"/>
<path fill-rule="evenodd" clip-rule="evenodd" d="M67.6687 111.965C65.2859 112.198 64.7082 115.782 64.0496 118.382C63.5083 120.517 65.1384 123.126 68.1218 122.835C70.5046 122.603 72.5301 119.427 72.4001 116.961C72.2466 114.055 70.6521 111.675 67.6687 111.965Z" fill="#D7B194"/>
<path fill-rule="evenodd" clip-rule="evenodd" d="M29.2263 72.7119C31.3309 73.7148 28.5975 80.7747 25.0758 93.1112C22.0588 103.68 16.6099 111.77 13.9018 110.479C11.1936 109.189 12.1167 98.7951 16.8452 88.8728C21.5737 78.9504 27.1218 71.709 29.2263 72.7119Z" fill="#D7B194"/>
<path fill-rule="evenodd" clip-rule="evenodd" d="M15.1041 111.965C17.4869 112.198 18.0646 115.782 18.7232 118.382C19.2645 120.517 17.6344 123.126 14.651 122.835C12.2682 122.603 10.2428 119.427 10.3727 116.961C10.5262 114.055 12.1207 111.675 15.1041 111.965Z" fill="#D7B194"/>
<path fill-rule="evenodd" clip-rule="evenodd" d="M62.579 111.708L20.33 111.712L29.3872 72.4804L41.4572 70.0664L53.5266 72.4804L62.579 111.708Z" fill="#D7B194"/>
<path fill-rule="evenodd" clip-rule="evenodd" d="M47.6474 68.0018C47.6474 66.3362 46.2955 64.9844 44.6299 64.9844H38.595C36.9293 64.9844 35.5775 66.3362 35.5775 68.0018V80.0717C35.5775 81.7374 36.9293 83.0892 38.595 83.0892H44.6299C46.2955 83.0892 47.6474 81.7374 47.6474 80.0717V68.0018Z" fill="#D7B194"/>
<path fill-rule="evenodd" clip-rule="evenodd" d="M73.4091 30.3079C73.4091 16.1855 61.9433 4.71973 47.8209 4.71973H35.0269C20.9045 4.71973 9.43871 16.1855 9.43871 30.3079V43.102C9.43871 57.2243 20.9045 68.6901 35.0269 68.6901H47.8209C61.9433 68.6901 73.4091 57.2243 73.4091 43.102V30.3079Z" fill="#D7B194"/>
<path fill-rule="evenodd" clip-rule="evenodd" d="M67.2105 41.052C67.5554 39.7649 68.8799 39.0002 70.167 39.345L74.8305 40.5946C76.1176 40.9395 76.6579 41.9171 77.141 43.551C77.4895 44.729 77.8065 46.7658 77.2526 48.8029C76.7383 50.6944 75.5395 52.5287 74.4857 53.4608C73.6333 54.2146 72.2127 55.5128 70.9256 55.1679L66.2621 53.9183C64.975 53.5734 64.2103 52.2489 64.5552 50.9618L67.2105 41.052Z" fill="#D7B194"/>
<path fill-rule="evenodd" clip-rule="evenodd" d="M37.4551 56.1043C37.3469 56.0646 37.2261 56.0857 37.1391 56.1609C37.0521 56.2361 37.0132 56.3527 37.0368 56.4651C37.4703 57.5981 39.1609 58.4497 41.1794 58.4497C43.1978 58.4497 44.8884 57.598 45.305 56.4617C45.3269 56.3552 45.2898 56.2454 45.2078 56.1744C45.1258 56.1034 45.0118 56.0831 44.9095 56.1203C43.9312 56.4329 42.6021 56.6755 41.1794 56.6755C39.7566 56.6755 38.4275 56.4329 37.4551 56.1043Z" fill="#562E32"/>
<path d="M28.7931 52.1419C30.4596 52.1419 31.8106 50.7909 31.8106 49.1244C31.8106 47.4579 30.4596 46.1069 28.7931 46.1069C27.1266 46.1069 25.7756 47.4579 25.7756 49.1244C25.7756 50.7909 27.1266 52.1419 28.7931 52.1419Z" fill="#562E32"/>
<path fill-rule="evenodd" clip-rule="evenodd" d="M29.9934 37.1978C31.7827 35.3155 28.7707 34.9365 26.3724 35.3874C23.5933 35.91 20.4678 37.1369 20.3375 37.8013C20.2071 38.4658 21.7852 37.2238 25.7689 37.1978C27.9421 37.1834 29.6077 37.6034 29.9934 37.1978Z" fill="#562E32"/>
<path d="M53.9797 52.1419C52.3132 52.1419 50.9622 50.7909 50.9622 49.1244C50.9622 47.4579 52.3132 46.1069 53.9797 46.1069C55.6462 46.1069 56.9972 47.4579 56.9972 49.1244C56.9972 50.7909 55.6462 52.1419 53.9797 52.1419Z" fill="#562E32"/>
<path fill-rule="evenodd" clip-rule="evenodd" d="M52.7794 37.1978C50.9901 35.3155 54.0021 34.9365 56.4004 35.3874C59.1795 35.91 62.305 37.1369 62.4354 37.8013C62.5657 38.4658 60.9876 37.2238 57.0039 37.1978C54.8307 37.1834 53.1651 37.6034 52.7794 37.1978Z" fill="#562E32"/>
<path fill-rule="evenodd" clip-rule="evenodd" d="M54.0926 46.1717C54.0926 47.1378 54.9037 47.9219 55.903 47.9219C56.9024 47.9219 57.7135 47.1378 57.7135 46.1717C57.2913 46.4614 56.6251 46.6968 55.903 46.6968C55.181 46.6968 54.5148 46.4614 54.0926 46.1717Z" fill="#562E32"/>
<path fill-rule="evenodd" clip-rule="evenodd" d="M28.6799 46.1717C28.6799 47.1378 27.8688 47.9219 26.8694 47.9219C25.87 47.9219 25.0589 47.1378 25.0589 46.1717C25.4811 46.4614 26.1474 46.6968 26.8694 46.6968C27.5914 46.6968 28.2577 46.4614 28.6799 46.1717Z" fill="#562E32"/>
<path fill-rule="evenodd" clip-rule="evenodd" d="M20.33 113.269L23.8182 130.166L38.9056 131.373L41.4566 125.942L44.0075 131.373L59.0949 130.166L62.5837 113.269H20.33Z" fill="#9BB0CF"/>
<path fill-rule="evenodd" clip-rule="evenodd" d="M63.8106 114.004L56.5686 86.2431L53.5512 72.3628L47.5162 71.1558L41.3443 75.3802L35.1723 71.1558L29.1374 72.3628L26.1199 86.2431L18.878 114.004C18.878 114.004 27.2165 115.211 41.3419 115.211C55.4691 115.211 63.8106 114.004 63.8106 114.004Z" fill="#D5C6ED"/>
<path fill-rule="evenodd" clip-rule="evenodd" d="M39.8948 2.41436C39.106 2.48014 45.8869 0.0221118 51.3612 0.000386C56.8355 -0.0213398 75.259 8.95081 76.1045 22.9332C76.95 36.9155 76.6669 42.2896 80.9324 51.2974C83.8745 57.5104 81.42 63.2309 80.3289 64.5743C76.8256 68.8868 65.7503 72.7214 64.3424 71.8162C62.9344 70.911 67.7624 66.3208 67.6555 59.1428C67.5391 51.33 65.5379 48.8448 65.2416 43.452C64.9453 38.0591 64.6381 37.417 64.6381 37.417C64.6381 37.417 60.5802 38.274 56.1892 38.624C51.7981 38.974 49.1645 38.6735 48.9472 38.0205C48.73 37.3675 48.3944 35.4539 48.3437 31.9856C48.293 28.5173 48.9472 23.5367 48.9472 23.5367C48.9472 23.5367 47.1319 27.8372 46.5332 30.7786C45.9346 33.72 45.8374 37.2462 45.3263 38.0205C44.8151 38.7948 38.3831 39.3778 30.8424 39.3808C23.3017 39.3832 19.376 38.0205 19.376 38.0205C19.376 38.0205 17.9349 41.3603 15.755 42.8485C13.5752 44.3367 11.74 44.0555 11.74 44.0555L9.7201 40.4345C9.7201 40.4345 11.5203 53.3414 13.9446 59.1428C16.3688 64.9442 18.2348 69.9641 17.6766 70.6092C17.1189 71.2543 11.4503 70.4076 7.30612 68.1952C3.00622 65.8995 0.982105 62.6986 0.667685 61.5568C0.353264 60.415 -1.4017 52.8327 2.47817 42.8485C5.95369 33.9041 8.9947 25.1226 9.7201 18.7087C10.9844 7.53441 23.974 -0.0623774 29.6354 0.000386C35.9504 0.0703913 40.6836 2.34858 39.8948 2.41436Z" fill="url(#paint0_linear)"/>
<path fill-rule="evenodd" clip-rule="evenodd" d="M18.2176 50.9618L11.3888 46.5713C11.3888 46.5713 10.8223 42.2771 10.0957 41.3865C9.22507 40.3196 7.94235 40.5946 7.94235 40.5946C6.65524 40.9395 6.11496 41.9171 5.63184 43.551C5.28334 44.729 4.96629 46.7658 5.52024 48.8029C6.03456 50.6944 7.23329 52.5287 8.28717 53.4608C9.13954 54.2146 10.5601 55.5128 11.8472 55.1679L16.5107 53.9183C17.7978 53.5734 18.5625 52.2489 18.2176 50.9618Z" fill="#D7B194"/>
<defs>
<linearGradient id="paint0_linear" x1="42.3088" y1="70.6092" x2="42.3088" y2="23.5367" gradientUnits="userSpaceOnUse">
<stop stop-color="#EB6C7D"/>
<stop offset="0.05" stop-color="#EB6C7D"/>
<stop offset="0.09" stop-color="#EB6C7D"/>
<stop offset="0.27" stop-color="#ED9888"/>
<stop offset="0.47" stop-color="#F0C493"/>
<stop offset="1" stop-color="#F1D898"/>
</linearGradient>
</defs>
</svg>
