<svg width="163" height="343" viewBox="0 0 163 343" fill="none" xmlns="http://www.w3.org/2000/svg">
<path fill-rule="evenodd" clip-rule="evenodd" d="M104.62 160.156C104.62 160.156 113.048 162.751 115.294 170.546C116.912 176.156 111.398 175.741 111.398 175.741L107.502 174.442H54.9644L51.0683 175.741C51.0683 175.741 45.554 176.156 47.1722 170.546C49.4203 162.751 57.8475 160.156 57.8475 160.156H104.62Z" fill="#0C9684"/>
<path fill-rule="evenodd" clip-rule="evenodd" d="M50.4073 329.176C58.4748 328.067 65.1619 330.362 65.1619 336.319C65.1619 342.276 58.5502 342.163 50.4073 342.163C42.2631 342.163 35.9371 340.977 35.9371 337.618C35.9371 334.258 40.9644 330.475 50.4073 329.176Z" fill="#F2F2F2"/>
<path fill-rule="evenodd" clip-rule="evenodd" d="M112.092 329.176C104.025 328.067 97.3378 330.362 97.3378 336.319C97.3378 342.276 103.949 342.163 112.092 342.163C120.236 342.163 126.562 340.977 126.562 337.618C126.562 334.258 121.535 330.475 112.092 329.176Z" fill="#F2F2F2"/>
<path fill-rule="evenodd" clip-rule="evenodd" d="M36.0793 260.329H94.5307C94.5307 260.329 73.2658 308.523 67.0131 322.69C65.9756 325.044 63.6457 326.562 61.0722 326.562C59.4599 326.562 57.6024 326.562 55.909 326.562C52.8614 326.562 50.2245 324.443 49.5686 321.468C46.1443 305.952 36.0793 260.329 36.0793 260.329Z" fill="#867BBD"/>
<path fill-rule="evenodd" clip-rule="evenodd" d="M127.201 260.329H68.7492C68.7492 260.329 90.0141 308.523 96.2668 322.69C97.3043 325.044 99.6343 326.562 102.208 326.562C103.82 326.562 105.677 326.562 107.371 326.562C110.419 326.562 113.055 324.443 113.711 321.468C117.136 305.952 127.201 260.329 127.201 260.329Z" fill="#867BBD"/>
<path fill-rule="evenodd" clip-rule="evenodd" d="M107.418 175.786C102.889 177.944 108.771 193.137 116.35 219.685C122.843 242.428 134.297 259.371 140.125 256.594C145.953 253.816 144.238 231.916 134.062 210.563C123.886 189.211 111.947 173.628 107.418 175.786Z" fill="#E8C7A3"/>
<path fill-rule="evenodd" clip-rule="evenodd" d="M137.809 260.258C132.681 260.758 131.438 268.472 130.021 274.066C128.856 278.662 132.364 284.276 138.784 283.651C143.912 283.151 148.27 276.315 147.991 271.01C147.66 264.756 144.229 259.633 137.809 260.258Z" fill="#E8C7A3"/>
<path fill-rule="evenodd" clip-rule="evenodd" d="M55.082 175.786C59.6109 177.944 53.7289 193.137 46.1502 219.685C39.6577 242.428 27.9533 259.371 22.1254 256.594C16.2975 253.816 18.2627 231.916 28.4383 210.563C38.6139 189.211 50.5531 173.628 55.082 175.786Z" fill="#E8C7A3"/>
<path fill-rule="evenodd" clip-rule="evenodd" d="M24.6915 260.258C29.8192 260.758 31.0624 268.472 32.4797 274.066C33.6445 278.662 30.1366 284.276 23.7163 283.651C18.5887 283.151 14.23 276.315 14.5096 271.01C14.8399 264.756 18.2713 259.633 24.6915 260.258Z" fill="#E8C7A3"/>
<path fill-rule="evenodd" clip-rule="evenodd" d="M126.856 260.704L35.9371 260.714L55.4278 176.288L81.4021 171.093L107.375 176.288L126.856 260.704Z" fill="#E8C7A3"/>
<path fill-rule="evenodd" clip-rule="evenodd" d="M93.943 166.65C93.943 163.065 91.0339 160.156 87.4495 160.156H74.4625C70.8781 160.156 67.969 163.065 67.969 166.65V192.624C67.969 196.208 70.8781 199.117 74.4625 199.117H87.4495C91.0339 199.117 93.943 196.208 93.943 192.624V166.65Z" fill="#E8C7A3"/>
<path fill-rule="evenodd" clip-rule="evenodd" d="M149.381 85.5336C149.381 55.1426 124.707 30.4686 94.3165 30.4686H66.7841C36.3932 30.4686 11.7191 55.1426 11.7191 85.5336V113.066C11.7191 143.457 36.3932 168.131 66.7841 168.131H94.3165C124.707 168.131 149.381 143.457 149.381 113.066V85.5336Z" fill="#E8C7A3"/>
<path fill-rule="evenodd" clip-rule="evenodd" d="M25.6772 108.654C24.935 105.884 22.0847 104.239 19.3148 104.981L9.27924 107.67C6.50942 108.412 5.34676 110.516 4.3071 114.032C3.55714 116.567 2.87485 120.95 4.06693 125.334C5.17373 129.404 7.75337 133.351 10.0213 135.358C11.8556 136.98 14.9126 139.773 17.6825 139.031L27.7181 136.342C30.4879 135.6 32.1335 132.749 31.3913 129.98L25.6772 108.654Z" fill="#E8C7A3"/>
<path fill-rule="evenodd" clip-rule="evenodd" d="M136.823 108.654C137.565 105.884 140.415 104.239 143.185 104.981L153.22 107.67C155.99 108.412 157.153 110.516 158.193 114.032C158.943 116.567 159.625 120.95 158.433 125.334C157.326 129.404 154.746 133.351 152.478 135.358C150.644 136.98 147.587 139.773 144.817 139.031L134.782 136.342C132.012 135.6 130.366 132.749 131.108 129.98L136.823 108.654Z" fill="#E8C7A3"/>
<path fill-rule="evenodd" clip-rule="evenodd" d="M72.7897 141.047C72.5569 140.961 72.2969 141.007 72.1097 141.168C71.9224 141.33 71.8388 141.581 71.8897 141.823C72.8224 144.261 76.4606 146.094 80.8042 146.094C85.1478 146.094 88.786 144.261 89.6824 141.816C89.7297 141.587 89.6497 141.35 89.4733 141.198C89.2969 141.045 89.0515 141.001 88.8315 141.081C86.726 141.754 83.866 142.276 80.8042 142.276C77.7424 142.276 74.8824 141.754 72.7897 141.047Z" fill="#562E32"/>
<path d="M54.1494 132.519C57.7357 132.519 60.6429 129.612 60.6429 126.025C60.6429 122.439 57.7357 119.532 54.1494 119.532C50.5631 119.532 47.6559 122.439 47.6559 126.025C47.6559 129.612 50.5631 132.519 54.1494 132.519Z" fill="#562E32"/>
<path fill-rule="evenodd" clip-rule="evenodd" d="M56.7323 100.36C60.583 96.3095 54.1012 95.4939 48.9401 96.4641C42.9596 97.5887 36.2336 100.229 35.9531 101.659C35.6726 103.089 39.0687 100.416 47.6414 100.36C52.318 100.329 55.9025 101.233 56.7323 100.36Z" fill="#562E32"/>
<path d="M108.35 132.519C104.764 132.519 101.857 129.612 101.857 126.025C101.857 122.439 104.764 119.532 108.35 119.532C111.937 119.532 114.844 122.439 114.844 126.025C114.844 129.612 111.937 132.519 108.35 132.519Z" fill="#562E32"/>
<path fill-rule="evenodd" clip-rule="evenodd" d="M105.767 100.36C101.917 96.3095 108.398 95.4939 113.56 96.4641C119.54 97.5887 126.266 100.229 126.547 101.659C126.827 103.089 123.431 100.416 114.858 100.36C110.182 100.329 106.597 101.233 105.767 100.36Z" fill="#562E32"/>
<path fill-rule="evenodd" clip-rule="evenodd" d="M129.697 264.083L123.617 240.772L130.279 253.665L133.691 255.663L135.386 257.81L140.134 257.024L144.882 256.237L145.297 252.378L147.083 248.908C147.083 248.908 145.278 230.871 133.112 207.056C127.979 197.01 122.771 186.982 115.169 179.05C111.864 175.602 107.619 174.472 107.619 174.472L94.6325 171.875L81.3558 180.966L68.074 171.875L55.087 174.472C55.087 174.472 50.8441 175.602 47.5389 179.05C39.9351 186.982 34.7286 197.01 29.5961 207.056C17.4299 230.871 15.6247 248.908 15.6247 248.908L17.4104 252.378L17.8247 256.237L27.322 257.81L29.0169 255.663L32.4285 253.665L39.0896 240.772L33.0091 264.083C33.0091 264.083 48.3533 267.979 81.3507 267.979C114.349 267.979 129.697 264.083 129.697 264.083Z" fill="#0C9684"/>
<path fill-rule="evenodd" clip-rule="evenodd" d="M90.6155 187.096C90.6155 186.026 89.7453 185.156 88.6752 185.156H88.6596C87.5895 185.156 86.7194 186.026 86.7194 187.096V205.618C86.7194 206.689 87.5895 207.559 88.6596 207.559H88.6752C89.7453 207.559 90.6155 206.689 90.6155 205.618V187.096Z" fill="#E6E6E6"/>
<path fill-rule="evenodd" clip-rule="evenodd" d="M76.5527 187.096C76.5527 186.025 75.6825 185.156 74.6124 185.156H74.5968C73.5267 185.156 72.6566 186.025 72.6566 187.096V210.489C72.6566 211.559 73.5267 212.429 74.5968 212.429H74.6124C75.6825 212.429 76.5527 211.559 76.5527 210.489V187.096Z" fill="#E6E6E6"/>
<path fill-rule="evenodd" clip-rule="evenodd" d="M12.0883 107.317C14.6507 106.879 17.5779 112.182 17.5779 112.182C17.5779 112.182 29.7701 88.1491 30.3533 74.5192C30.7156 66.0608 30.1143 61.5322 30.1143 61.5322C30.1143 61.5322 43.0494 52.8946 66.4779 61.5322C89.9065 70.1699 115.829 58.9348 115.829 58.9348C115.829 58.9348 114.891 69.9738 121.023 81.0127C127.156 92.0517 144.4 111.532 144.4 111.532C144.4 111.532 146.775 105.659 149.751 106.018C152.726 106.375 154.79 108.285 154.79 108.285C154.79 108.285 160.883 74.2751 154.79 52.4413C148.696 30.6076 133.168 31.9244 130.114 30.3634C127.061 28.8024 129.76 20.966 124.919 16.0777C120.079 11.1894 90.1598 -9.98854 53.4909 5.68808C16.8221 21.3647 21.9416 41.127 19.7247 44.6491C17.5078 48.1712 10.2169 45.0231 6.73767 66.727C3.25844 88.4309 8.03637 108.285 8.03637 108.285C8.03637 108.285 9.52598 107.753 12.0883 107.317Z" fill="#AA3F39"/>
</svg>
