<svg width="162" height="339" viewBox="0 0 162 339" fill="none" xmlns="http://www.w3.org/2000/svg">
<path fill-rule="evenodd" clip-rule="evenodd" d="M50.2523 326.014C58.295 324.905 64.9615 327.2 64.9615 333.156C64.9615 339.113 58.3701 339 50.2523 339C42.1332 339 35.8267 337.814 35.8267 334.455C35.8267 331.096 40.8385 327.313 50.2523 326.014Z" fill="#F2F2F2"/>
<path fill-rule="evenodd" clip-rule="evenodd" d="M111.748 326.014C103.705 324.905 97.0384 327.2 97.0384 333.156C97.0384 339.113 103.63 339 111.748 339C119.867 339 126.173 337.814 126.173 334.455C126.173 331.096 121.161 327.313 111.748 326.014Z" fill="#F2F2F2"/>
<path fill-rule="evenodd" clip-rule="evenodd" d="M35.9685 257.175H94.2401C94.2401 257.175 73.0405 305.364 66.8071 319.529C65.7728 321.883 63.45 323.401 60.8844 323.401C59.2771 323.401 57.4254 323.401 55.7371 323.401C52.6989 323.401 50.0702 321.282 49.4162 318.307C46.0025 302.793 35.9685 257.175 35.9685 257.175Z" fill="#0F9EBC"/>
<path fill-rule="evenodd" clip-rule="evenodd" d="M126.809 257.175H68.5378C68.5378 257.175 89.7373 305.364 95.9708 319.529C97.0051 321.883 99.3279 323.401 101.893 323.401C103.501 323.401 105.352 323.401 107.041 323.401C110.079 323.401 112.708 321.282 113.362 318.307C116.775 302.793 126.809 257.175 126.809 257.175Z" fill="#0F9EBC"/>
<path fill-rule="evenodd" clip-rule="evenodd" d="M107.088 173.642C102.573 175.8 108.437 190.991 115.991 217.537C122.463 240.278 134.151 257.685 139.961 254.908C145.771 252.131 143.791 229.766 133.648 208.416C123.505 187.065 111.603 171.483 107.088 173.642Z" fill="#E9CDB8"/>
<path fill-rule="evenodd" clip-rule="evenodd" d="M137.385 258.104C132.273 258.604 131.034 266.317 129.621 271.91C128.459 276.505 131.957 282.12 138.357 281.494C143.469 280.994 147.814 274.159 147.536 268.854C147.206 262.602 143.785 257.478 137.385 258.104Z" fill="#E9CDB8"/>
<path fill-rule="evenodd" clip-rule="evenodd" d="M54.9125 173.642C59.4274 175.8 53.5641 190.991 46.0096 217.537C39.5379 240.278 27.8491 257.685 22.0393 254.908C16.2294 252.131 18.2092 229.766 28.3525 208.416C38.4959 187.065 50.3976 171.483 54.9125 173.642Z" fill="#E9CDB8"/>
<path fill-rule="evenodd" clip-rule="evenodd" d="M24.6156 258.104C29.7275 258.604 30.9669 266.317 32.3798 271.91C33.5411 276.505 30.0439 282.12 23.6434 281.494C18.5316 280.994 14.1862 274.159 14.465 268.854C14.7943 262.602 18.2151 257.478 24.6156 258.104Z" fill="#E9CDB8"/>
<path fill-rule="evenodd" clip-rule="evenodd" d="M126.466 257.55L35.8267 257.56L55.2574 173.143L81.1519 167.949L107.045 173.143L126.466 257.55Z" fill="#E9CDB8"/>
<path fill-rule="evenodd" clip-rule="evenodd" d="M93.6542 163.506C93.6542 159.922 90.754 157.014 87.1807 157.014H74.2336C70.6602 157.014 67.76 159.922 67.76 163.506V189.478C67.76 193.062 70.6602 195.97 74.2336 195.97H87.1807C90.754 195.97 93.6542 193.062 93.6542 189.478V163.506Z" fill="#E9CDB8"/>
<path fill-rule="evenodd" clip-rule="evenodd" d="M148.922 82.3993C148.922 52.0119 124.324 27.3406 94.0264 27.3406H66.5787C36.2813 27.3406 11.6831 52.0119 11.6831 82.3993V109.929C11.6831 140.316 36.2813 164.987 66.5787 164.987H94.0264C124.324 164.987 148.922 140.316 148.922 109.929V82.3993Z" fill="#E9CDB8"/>
<path fill-rule="evenodd" clip-rule="evenodd" d="M25.6071 105.535C24.865 102.766 22.0213 101.119 19.2594 101.859L9.25262 104.54C6.49074 105.28 5.33261 107.382 4.29809 110.896C3.55183 113.429 2.8743 117.81 4.0661 122.192C5.17263 126.261 7.74795 130.208 10.0111 132.215C11.8415 133.837 14.8922 136.631 17.6541 135.891L27.6609 133.21C30.4228 132.47 32.0621 129.623 31.3201 126.854L25.6071 105.535Z" fill="#E9CDB8"/>
<path fill-rule="evenodd" clip-rule="evenodd" d="M136.402 105.517C137.142 102.748 139.983 101.102 142.745 101.844L152.749 104.533C155.511 105.275 156.67 107.379 157.706 110.894C158.454 113.429 159.134 117.812 157.946 122.195C156.842 126.265 154.27 130.212 152.01 132.218C150.181 133.84 147.133 136.633 144.372 135.891L134.367 133.202C131.606 132.46 129.965 129.61 130.705 126.84L136.402 105.517Z" fill="#E9CDB8"/>
<path fill-rule="evenodd" clip-rule="evenodd" d="M72.5659 137.906C72.3339 137.82 72.0747 137.866 71.888 138.027C71.7013 138.189 71.6179 138.44 71.6687 138.682C72.5985 141.12 76.2255 142.953 80.5558 142.953C84.8861 142.953 88.5131 141.12 89.4067 138.675C89.4538 138.445 89.3741 138.209 89.1982 138.056C89.0224 137.904 88.7777 137.86 88.5584 137.94C86.4594 138.613 83.6082 139.135 80.5558 139.135C77.5034 139.135 74.6522 138.613 72.5659 137.906Z" fill="#562E32"/>
<path d="M53.9829 129.379C57.5581 129.379 60.4564 126.472 60.4564 122.887C60.4564 119.301 57.5581 116.394 53.9829 116.394C50.4076 116.394 47.5093 119.301 47.5093 122.887C47.5093 126.472 50.4076 129.379 53.9829 129.379Z" fill="#562E32"/>
<path fill-rule="evenodd" clip-rule="evenodd" d="M56.5579 97.2248C60.3967 93.1741 53.9348 92.3586 48.7897 93.3287C42.8275 94.4534 36.1222 97.0936 35.8426 98.5235C35.5629 99.9534 38.9486 97.2806 47.495 97.2248C52.1572 97.1936 55.7306 98.0975 56.5579 97.2248Z" fill="#562E32"/>
<path d="M108.017 129.379C104.442 129.379 101.544 126.472 101.544 122.887C101.544 119.301 104.442 116.394 108.017 116.394C111.592 116.394 114.491 119.301 114.491 122.887C114.491 126.472 111.592 129.379 108.017 129.379Z" fill="#562E32"/>
<path fill-rule="evenodd" clip-rule="evenodd" d="M105.442 97.2248C101.603 93.1741 108.065 92.3586 113.21 93.3287C119.172 94.4534 125.878 97.0936 126.157 98.5235C126.437 99.9534 123.051 97.2806 114.505 97.2248C109.843 97.1936 106.269 98.0975 105.442 97.2248Z" fill="#562E32"/>
<path fill-rule="evenodd" clip-rule="evenodd" d="M108.26 116.534C108.26 118.613 110 120.3 112.144 120.3C114.288 120.3 116.028 118.613 116.028 116.534C115.122 117.157 113.693 117.663 112.144 117.663C110.595 117.663 109.165 117.157 108.26 116.534Z" fill="#562E32"/>
<path fill-rule="evenodd" clip-rule="evenodd" d="M53.7404 116.534C53.7404 118.613 52.0003 120.3 49.8563 120.3C47.7123 120.3 45.9722 118.613 45.9722 116.534C46.878 117.157 48.3073 117.663 49.8563 117.663C51.4053 117.663 52.8347 117.157 53.7404 116.534Z" fill="#562E32"/>
<path fill-rule="evenodd" clip-rule="evenodd" d="M10.3783 103.976L7.78884 55.9291L32.3883 35.1522H35.2625L44.0407 50.7349C44.0407 50.7349 41.661 58.6392 37.962 66.1981C34.3485 73.583 29.7989 80.6016 29.7989 80.6016L28.5042 78.0045C28.5042 78.0045 25.7607 87.6982 23.8678 92.2432C22.0591 96.5868 17.1457 105.274 17.1457 105.274L10.3783 103.976Z" fill="#873FEC"/>
<path fill-rule="evenodd" clip-rule="evenodd" d="M150.065 103.976L152.655 55.9291L128.055 35.1522H125.181L116.403 50.7349C116.403 50.7349 118.783 58.6392 122.482 66.1981C126.095 73.583 130.645 80.6016 130.645 80.6016L131.939 78.0045C131.939 78.0045 134.683 87.6982 136.576 92.2432C138.384 96.5868 143.298 105.274 143.298 105.274L150.065 103.976Z" fill="#873FEC"/>
<path fill-rule="evenodd" clip-rule="evenodd" d="M36.6058 33.8245L45.6688 49.4072C45.6688 49.4072 51.5454 60.2852 79.3312 67.5869C87.0424 69.614 96.8032 74.5225 102.279 78.6065C111.054 85.1499 124.331 99.7482 124.331 99.7482C124.331 99.7482 121.946 95.5968 118.403 90.2246C115.759 86.2186 112.608 81.9048 113.338 82.519C131.129 97.4433 137.593 115.633 137.593 115.633C137.593 115.633 145.836 98.8003 150.54 85.7667C155.635 71.6488 158.092 50.0565 155.719 45.5115C150.337 35.2049 131.195 18.9431 122.057 13.0477C113.118 7.2808 86.9557 -3.87377 72.8576 1.3607C58.7595 6.59517 40.3449 20.8806 39.1952 23.4361C38.0455 25.9917 36.6058 33.8245 36.6058 33.8245Z" fill="#873FEC"/>
<path fill-rule="evenodd" clip-rule="evenodd" d="M128.845 262.49L113.309 202.757C113.309 202.757 117.992 203.488 122.097 203.378C127.37 203.236 130.14 201.458 130.14 201.458L123.666 189.771C123.666 189.771 121.3 191.945 118.142 192.178C114.672 192.435 110.719 192.369 110.719 192.369L99.0668 171.592L93.888 170.293L80.647 187.174L67.4061 170.293L62.2272 171.592L50.5749 192.369C50.5749 192.369 46.6221 192.435 43.1523 192.178C39.9945 191.945 37.6278 189.771 37.6278 189.771L31.1542 201.458C31.1542 201.458 33.9249 203.236 39.1969 203.378C43.3024 203.488 47.9854 202.757 47.9854 202.757L32.4489 262.49C32.4489 262.49 50.338 265.088 80.6419 265.088C110.95 265.088 128.845 262.49 128.845 262.49Z" fill="#FFA76F"/>
</svg>
