<svg width="136" height="42" viewBox="0 0 136 42" fill="none" xmlns="http://www.w3.org/2000/svg">
  <g filter="url(#filter0_d)">
    <path
      d="M0 16C0 7.16344 7.16344 0 16 0H120C128.837 0 136 7.16344 136 16V24C136 32.8366 128.837 40 120 40H16C7.16344 40 0 32.8366 0 24V16Z"
      fill="#16161A" />
    <path
      d="M16.6776 23.272C16.859 23.3787 16.9496 23.5227 16.9496 23.704C16.9496 23.8427 16.8963 23.96 16.7896 24.056C16.6936 24.1413 16.5656 24.184 16.4056 24.184C16.2883 24.184 16.1816 24.1627 16.0856 24.12L9.62162 21.192C9.47229 21.128 9.35496 21.032 9.26962 20.904C9.18429 20.7653 9.14162 20.6107 9.14162 20.44C9.14162 20.28 9.18429 20.136 9.26962 20.008C9.35496 19.88 9.47229 19.784 9.62162 19.72L16.0856 16.792C16.2136 16.7387 16.3203 16.712 16.4056 16.712C16.5656 16.712 16.6936 16.76 16.7896 16.856C16.8963 16.9413 16.9496 17.0587 16.9496 17.208C16.9496 17.3893 16.859 17.528 16.6776 17.624L10.3736 20.456L16.6776 23.272ZM62.1821 19.72C62.3315 19.784 62.4488 19.88 62.5341 20.008C62.6195 20.136 62.6621 20.28 62.6621 20.44C62.6621 20.6107 62.6195 20.7653 62.5341 20.904C62.4488 21.032 62.3315 21.128 62.1821 21.192L55.7181 24.12C55.6221 24.1627 55.5155 24.184 55.3981 24.184C55.2488 24.184 55.1208 24.1413 55.0141 24.056C54.9075 23.96 54.8541 23.8427 54.8541 23.704C54.8541 23.5227 54.9501 23.3787 55.1421 23.272L61.4301 20.456L55.1421 17.624C54.9501 17.5387 54.8541 17.4 54.8541 17.208C54.8541 17.0587 54.9021 16.9413 54.9981 16.856C55.1048 16.76 55.2381 16.712 55.3981 16.712C55.4835 16.712 55.5901 16.7387 55.7181 16.792L62.1821 19.72ZM76.2689 23.272C76.4502 23.3787 76.5409 23.5227 76.5409 23.704C76.5409 23.8427 76.4875 23.96 76.3809 24.056C76.2849 24.1413 76.1569 24.184 75.9969 24.184C75.8795 24.184 75.7729 24.1627 75.6769 24.12L69.2129 21.192C69.0635 21.128 68.9462 21.032 68.8609 20.904C68.7755 20.7653 68.7329 20.6107 68.7329 20.44C68.7329 20.28 68.7755 20.136 68.8609 20.008C68.9462 19.88 69.0635 19.784 69.2129 19.72L75.6769 16.792C75.8049 16.7387 75.9115 16.712 75.9969 16.712C76.1569 16.712 76.2849 16.76 76.3809 16.856C76.4875 16.9413 76.5409 17.0587 76.5409 17.208C76.5409 17.3893 76.4502 17.528 76.2689 17.624L69.9649 20.456L76.2689 23.272ZM78.4066 25.576C78.364 25.7147 78.2946 25.8213 78.1986 25.896C78.1026 25.9707 77.996 26.008 77.8786 26.008C77.7293 26.008 77.596 25.9547 77.4786 25.848C77.3613 25.7413 77.3026 25.608 77.3026 25.448C77.3026 25.384 77.3186 25.3093 77.3506 25.224L81.1266 13.416C81.1693 13.2773 81.2386 13.1707 81.3346 13.096C81.4306 13.0213 81.5373 12.984 81.6546 12.984C81.804 12.984 81.9373 13.0373 82.0546 13.144C82.172 13.2507 82.2306 13.3893 82.2306 13.56C82.2306 13.592 82.22 13.6613 82.1986 13.768L78.4066 25.576ZM126.385 19.72C126.534 19.784 126.651 19.88 126.737 20.008C126.822 20.136 126.865 20.28 126.865 20.44C126.865 20.6107 126.822 20.7653 126.737 20.904C126.651 21.032 126.534 21.128 126.385 21.192L119.921 24.12C119.825 24.1627 119.718 24.184 119.601 24.184C119.451 24.184 119.323 24.1413 119.217 24.056C119.11 23.96 119.057 23.8427 119.057 23.704C119.057 23.5227 119.153 23.3787 119.345 23.272L125.633 20.456L119.345 17.624C119.153 17.5387 119.057 17.4 119.057 17.208C119.057 17.0587 119.105 16.9413 119.201 16.856C119.307 16.76 119.441 16.712 119.601 16.712C119.686 16.712 119.793 16.7387 119.921 16.792L126.385 19.72Z"
      fill="#FFFFFE" />
    <path
      d="M23.0394 17.016C23.722 17.016 24.3247 17.1813 24.8474 17.512C25.37 17.8427 25.7754 18.312 26.0634 18.92C26.3514 19.528 26.4954 20.232 26.4954 21.032C26.4954 21.8427 26.3514 22.5573 26.0634 23.176C25.7754 23.784 25.37 24.2587 24.8474 24.6C24.3247 24.9413 23.722 25.112 23.0394 25.112C22.4314 25.112 21.898 24.9787 21.4394 24.712C20.9914 24.4453 20.65 24.0667 20.4154 23.576V24.44C20.4154 24.632 20.3567 24.7867 20.2394 24.904C20.1327 25.0213 19.978 25.08 19.7754 25.08C19.5727 25.08 19.4127 25.0213 19.2954 24.904C19.178 24.7867 19.1194 24.632 19.1194 24.44V14.264C19.1194 14.0827 19.178 13.9333 19.2954 13.816C19.4127 13.6987 19.5727 13.64 19.7754 13.64C19.978 13.64 20.1327 13.6987 20.2394 13.816C20.3567 13.9227 20.4154 14.072 20.4154 14.264V18.552C20.65 18.0613 20.9914 17.6827 21.4394 17.416C21.898 17.1493 22.4314 17.016 23.0394 17.016ZM22.7834 24.04C23.5407 24.04 24.1274 23.7787 24.5434 23.256C24.9594 22.7227 25.1674 21.9813 25.1674 21.032C25.1674 20.104 24.9594 19.384 24.5434 18.872C24.1274 18.36 23.5407 18.104 22.7834 18.104C22.026 18.104 21.4394 18.36 21.0234 18.872C20.618 19.384 20.4154 20.1147 20.4154 21.064C20.4154 22.0133 20.618 22.7493 21.0234 23.272C21.4394 23.784 22.026 24.04 22.7834 24.04ZM31.7439 25.112C31.0079 25.112 30.3572 24.9467 29.7919 24.616C29.2372 24.2853 28.8052 23.816 28.4959 23.208C28.1972 22.5893 28.0479 21.8747 28.0479 21.064C28.0479 20.2533 28.1972 19.544 28.4959 18.936C28.8052 18.3173 29.2372 17.8427 29.7919 17.512C30.3572 17.1813 31.0079 17.016 31.7439 17.016C32.4799 17.016 33.1305 17.1813 33.6959 17.512C34.2612 17.8427 34.6932 18.3173 34.9919 18.936C35.3012 19.544 35.4559 20.2533 35.4559 21.064C35.4559 21.8747 35.3012 22.5893 34.9919 23.208C34.6932 23.816 34.2612 24.2853 33.6959 24.616C33.1305 24.9467 32.4799 25.112 31.7439 25.112ZM31.7439 24.04C32.5119 24.04 33.0985 23.7893 33.5039 23.288C33.9199 22.776 34.1279 22.0347 34.1279 21.064C34.1279 20.1147 33.9199 19.384 33.5039 18.872C33.0879 18.3493 32.5012 18.088 31.7439 18.088C30.9865 18.088 30.3999 18.3493 29.9839 18.872C29.5679 19.384 29.3599 20.1147 29.3599 21.064C29.3599 22.024 29.5625 22.76 29.9679 23.272C30.3839 23.784 30.9759 24.04 31.7439 24.04ZM43.7229 13.64C43.9255 13.64 44.0855 13.6987 44.2029 13.816C44.3202 13.9333 44.3789 14.0827 44.3789 14.264V24.44C44.3789 24.632 44.3202 24.7867 44.2029 24.904C44.0855 25.0213 43.9255 25.08 43.7229 25.08C43.5202 25.08 43.3602 25.0213 43.2429 24.904C43.1362 24.7867 43.0829 24.632 43.0829 24.44V23.576C42.8482 24.0667 42.5015 24.4453 42.0429 24.712C41.5949 24.9787 41.0669 25.112 40.4589 25.112C39.7762 25.112 39.1735 24.9413 38.6509 24.6C38.1282 24.2587 37.7229 23.784 37.4349 23.176C37.1469 22.5573 37.0029 21.8427 37.0029 21.032C37.0029 20.232 37.1469 19.528 37.4349 18.92C37.7229 18.312 38.1282 17.8427 38.6509 17.512C39.1735 17.1813 39.7762 17.016 40.4589 17.016C41.0669 17.016 41.5949 17.1493 42.0429 17.416C42.5015 17.6827 42.8482 18.0613 43.0829 18.552V14.264C43.0829 14.072 43.1362 13.9227 43.2429 13.816C43.3602 13.6987 43.5202 13.64 43.7229 13.64ZM40.7149 24.04C41.4722 24.04 42.0535 23.784 42.4589 23.272C42.8749 22.7493 43.0829 22.0133 43.0829 21.064C43.0829 20.1147 42.8749 19.384 42.4589 18.872C42.0535 18.36 41.4722 18.104 40.7149 18.104C39.9575 18.104 39.3655 18.36 38.9389 18.872C38.5229 19.384 38.3149 20.104 38.3149 21.032C38.3149 21.9813 38.5229 22.7227 38.9389 23.256C39.3655 23.7787 39.9575 24.04 40.7149 24.04ZM52.4754 17.448C52.5927 17.192 52.7794 17.064 53.0354 17.064C53.1954 17.064 53.3394 17.1173 53.4674 17.224C53.5954 17.3307 53.6594 17.464 53.6594 17.624C53.6594 17.72 53.638 17.8053 53.5954 17.88L49.0994 27.576C49.046 27.6933 48.966 27.784 48.8594 27.848C48.7634 27.912 48.662 27.944 48.5554 27.944C48.3954 27.944 48.2514 27.8907 48.1234 27.784C48.006 27.688 47.9474 27.56 47.9474 27.4C47.9474 27.3147 47.9687 27.2293 48.0114 27.144L49.1314 24.728L45.9634 17.88C45.9207 17.8053 45.8994 17.7253 45.8994 17.64C45.8994 17.48 45.9687 17.3413 46.1074 17.224C46.2567 17.1067 46.4167 17.048 46.5874 17.048C46.694 17.048 46.7954 17.08 46.8914 17.144C46.998 17.208 47.078 17.2987 47.1314 17.416L49.8034 23.416L52.4754 17.448ZM87.2419 17.016C87.9245 17.016 88.5272 17.1813 89.0499 17.512C89.5725 17.8427 89.9779 18.312 90.2659 18.92C90.5539 19.528 90.6979 20.232 90.6979 21.032C90.6979 21.8427 90.5539 22.5573 90.2659 23.176C89.9779 23.784 89.5725 24.2587 89.0499 24.6C88.5272 24.9413 87.9245 25.112 87.2419 25.112C86.6339 25.112 86.1005 24.9787 85.6419 24.712C85.1939 24.4453 84.8525 24.0667 84.6179 23.576V24.44C84.6179 24.632 84.5592 24.7867 84.4419 24.904C84.3352 25.0213 84.1805 25.08 83.9779 25.08C83.7752 25.08 83.6152 25.0213 83.4979 24.904C83.3805 24.7867 83.3219 24.632 83.3219 24.44V14.264C83.3219 14.0827 83.3805 13.9333 83.4979 13.816C83.6152 13.6987 83.7752 13.64 83.9779 13.64C84.1805 13.64 84.3352 13.6987 84.4419 13.816C84.5592 13.9227 84.6179 14.072 84.6179 14.264V18.552C84.8525 18.0613 85.1939 17.6827 85.6419 17.416C86.1005 17.1493 86.6339 17.016 87.2419 17.016ZM86.9859 24.04C87.7432 24.04 88.3299 23.7787 88.7459 23.256C89.1619 22.7227 89.3699 21.9813 89.3699 21.032C89.3699 20.104 89.1619 19.384 88.7459 18.872C88.3299 18.36 87.7432 18.104 86.9859 18.104C86.2285 18.104 85.6419 18.36 85.2259 18.872C84.8205 19.384 84.6179 20.1147 84.6179 21.064C84.6179 22.0133 84.8205 22.7493 85.2259 23.272C85.6419 23.784 86.2285 24.04 86.9859 24.04ZM95.9464 25.112C95.2104 25.112 94.5597 24.9467 93.9944 24.616C93.4397 24.2853 93.0077 23.816 92.6984 23.208C92.3997 22.5893 92.2504 21.8747 92.2504 21.064C92.2504 20.2533 92.3997 19.544 92.6984 18.936C93.0077 18.3173 93.4397 17.8427 93.9944 17.512C94.5597 17.1813 95.2104 17.016 95.9464 17.016C96.6824 17.016 97.333 17.1813 97.8984 17.512C98.4637 17.8427 98.8957 18.3173 99.1944 18.936C99.5037 19.544 99.6584 20.2533 99.6584 21.064C99.6584 21.8747 99.5037 22.5893 99.1944 23.208C98.8957 23.816 98.4637 24.2853 97.8984 24.616C97.333 24.9467 96.6824 25.112 95.9464 25.112ZM95.9464 24.04C96.7144 24.04 97.301 23.7893 97.7064 23.288C98.1224 22.776 98.3304 22.0347 98.3304 21.064C98.3304 20.1147 98.1224 19.384 97.7064 18.872C97.2904 18.3493 96.7037 18.088 95.9464 18.088C95.189 18.088 94.6024 18.3493 94.1864 18.872C93.7704 19.384 93.5624 20.1147 93.5624 21.064C93.5624 22.024 93.765 22.76 94.1704 23.272C94.5864 23.784 95.1784 24.04 95.9464 24.04ZM107.925 13.64C108.128 13.64 108.288 13.6987 108.405 13.816C108.523 13.9333 108.581 14.0827 108.581 14.264V24.44C108.581 24.632 108.523 24.7867 108.405 24.904C108.288 25.0213 108.128 25.08 107.925 25.08C107.723 25.08 107.563 25.0213 107.445 24.904C107.339 24.7867 107.285 24.632 107.285 24.44V23.576C107.051 24.0667 106.704 24.4453 106.245 24.712C105.797 24.9787 105.269 25.112 104.661 25.112C103.979 25.112 103.376 24.9413 102.853 24.6C102.331 24.2587 101.925 23.784 101.637 23.176C101.349 22.5573 101.205 21.8427 101.205 21.032C101.205 20.232 101.349 19.528 101.637 18.92C101.925 18.312 102.331 17.8427 102.853 17.512C103.376 17.1813 103.979 17.016 104.661 17.016C105.269 17.016 105.797 17.1493 106.245 17.416C106.704 17.6827 107.051 18.0613 107.285 18.552V14.264C107.285 14.072 107.339 13.9227 107.445 13.816C107.563 13.6987 107.723 13.64 107.925 13.64ZM104.917 24.04C105.675 24.04 106.256 23.784 106.661 23.272C107.077 22.7493 107.285 22.0133 107.285 21.064C107.285 20.1147 107.077 19.384 106.661 18.872C106.256 18.36 105.675 18.104 104.917 18.104C104.16 18.104 103.568 18.36 103.141 18.872C102.725 19.384 102.517 20.104 102.517 21.032C102.517 21.9813 102.725 22.7227 103.141 23.256C103.568 23.7787 104.16 24.04 104.917 24.04ZM116.678 17.448C116.795 17.192 116.982 17.064 117.238 17.064C117.398 17.064 117.542 17.1173 117.67 17.224C117.798 17.3307 117.862 17.464 117.862 17.624C117.862 17.72 117.841 17.8053 117.798 17.88L113.302 27.576C113.249 27.6933 113.169 27.784 113.062 27.848C112.966 27.912 112.865 27.944 112.758 27.944C112.598 27.944 112.454 27.8907 112.326 27.784C112.209 27.688 112.15 27.56 112.15 27.4C112.15 27.3147 112.171 27.2293 112.214 27.144L113.334 24.728L110.166 17.88C110.123 17.8053 110.102 17.7253 110.102 17.64C110.102 17.48 110.171 17.3413 110.31 17.224C110.459 17.1067 110.619 17.048 110.79 17.048C110.897 17.048 110.998 17.08 111.094 17.144C111.201 17.208 111.281 17.2987 111.334 17.416L114.006 23.416L116.678 17.448Z"
      fill="#EF4565" />
    <path
      d="M16 1H120V-1H16V1ZM135 16V24H137V16H135ZM120 39H16V41H120V39ZM1 24V16H-1V24H1ZM16 39C7.71573 39 1 32.2843 1 24H-1C-1 33.3888 6.61116 41 16 41V39ZM135 24C135 32.2843 128.284 39 120 39V41C129.389 41 137 33.3888 137 24H135ZM120 1C128.284 1 135 7.71573 135 16H137C137 6.61116 129.389 -1 120 -1V1ZM16 -1C6.61116 -1 -1 6.61116 -1 16H1C1 7.71573 7.71573 1 16 1V-1Z" />
  </g>
  <defs>
    <filter id="filter0_d" x="0" y="0" width="136" height="42" filterUnits="userSpaceOnUse"
      color-interpolation-filters="sRGB">
      <feBlend mode="normal" in="SourceGraphic" in2="effect1_dropShadow" result="shape" />
    </filter>
  </defs>
</svg>