<svg width="73" height="42" viewBox="0 0 73 42" fill="none" xmlns="http://www.w3.org/2000/svg">
  <g filter="url(#filter0_d)">
    <path
      d="M0 16C0 7.16344 7.16344 0 16 0H57C65.8366 0 73 7.16344 73 16V24C73 32.8366 65.8366 40 57 40H16C7.16344 40 0 32.8366 0 24V16Z"
      fill="#16161A" />
    <path
      d="M16.8551 23.272C17.0365 23.3787 17.1271 23.5227 17.1271 23.704C17.1271 23.8427 17.0738 23.96 16.9671 24.056C16.8711 24.1413 16.7431 24.184 16.5831 24.184C16.4658 24.184 16.3591 24.1627 16.2631 24.12L9.79912 21.192C9.64979 21.128 9.53246 21.032 9.44712 20.904C9.36179 20.7653 9.31912 20.6107 9.31912 20.44C9.31912 20.28 9.36179 20.136 9.44712 20.008C9.53246 19.88 9.64979 19.784 9.79912 19.72L16.2631 16.792C16.3911 16.7387 16.4978 16.712 16.5831 16.712C16.7431 16.712 16.8711 16.76 16.9671 16.856C17.0738 16.9413 17.1271 17.0587 17.1271 17.208C17.1271 17.3893 17.0365 17.528 16.8551 17.624L10.5511 20.456L16.8551 23.272ZM18.9929 25.576C18.9502 25.7147 18.8809 25.8213 18.7849 25.896C18.6889 25.9707 18.5822 26.008 18.4649 26.008C18.3155 26.008 18.1822 25.9547 18.0649 25.848C17.9475 25.7413 17.8889 25.608 17.8889 25.448C17.8889 25.384 17.9049 25.3093 17.9369 25.224L21.7129 13.416C21.7555 13.2773 21.8249 13.1707 21.9209 13.096C22.0169 13.0213 22.1235 12.984 22.2409 12.984C22.3902 12.984 22.5235 13.0373 22.6409 13.144C22.7582 13.2507 22.8169 13.3893 22.8169 13.56C22.8169 13.592 22.8062 13.6613 22.7849 13.768L18.9929 25.576ZM63.1271 19.72C63.2765 19.784 63.3938 19.88 63.4791 20.008C63.5645 20.136 63.6071 20.28 63.6071 20.44C63.6071 20.6107 63.5645 20.7653 63.4791 20.904C63.3938 21.032 63.2765 21.128 63.1271 21.192L56.6631 24.12C56.5671 24.1627 56.4605 24.184 56.3431 24.184C56.1938 24.184 56.0658 24.1413 55.9591 24.056C55.8525 23.96 55.7991 23.8427 55.7991 23.704C55.7991 23.5227 55.8951 23.3787 56.0871 23.272L62.3751 20.456L56.0871 17.624C55.8951 17.5387 55.7991 17.4 55.7991 17.208C55.7991 17.0587 55.8471 16.9413 55.9431 16.856C56.0498 16.76 56.1831 16.712 56.3431 16.712C56.4285 16.712 56.5351 16.7387 56.6631 16.792L63.1271 19.72Z"
      fill="#FFFFFE" />
    <path
      d="M27.8441 17.016C28.7615 17.016 29.4548 17.2773 29.9241 17.8C30.3935 18.312 30.6281 19.08 30.6281 20.104V24.44C30.6281 24.6427 30.5695 24.8027 30.4521 24.92C30.3348 25.0267 30.1801 25.08 29.9881 25.08C29.7855 25.08 29.6255 25.0267 29.5081 24.92C29.3908 24.8027 29.3321 24.6427 29.3321 24.44V20.136C29.3321 19.4427 29.1881 18.9307 28.9001 18.6C28.6228 18.2693 28.1748 18.104 27.5561 18.104C26.8415 18.104 26.2708 18.3227 25.8441 18.76C25.4175 19.1973 25.2041 19.7893 25.2041 20.536V24.44C25.2041 24.6427 25.1455 24.8027 25.0281 24.92C24.9215 25.0267 24.7668 25.08 24.5641 25.08C24.3615 25.08 24.2015 25.0267 24.0841 24.92C23.9668 24.8027 23.9081 24.6427 23.9081 24.44V14.264C23.9081 14.0827 23.9668 13.9333 24.0841 13.816C24.2121 13.6987 24.3721 13.64 24.5641 13.64C24.7668 13.64 24.9215 13.6987 25.0281 13.816C25.1455 13.9227 25.2041 14.072 25.2041 14.264V18.456C25.4601 17.9867 25.8175 17.6293 26.2761 17.384C26.7348 17.1387 27.2575 17.016 27.8441 17.016ZM36.6819 24.056C37.0552 24.088 37.2419 24.2587 37.2419 24.568C37.2419 24.7493 37.1725 24.888 37.0339 24.984C36.9059 25.0693 36.7085 25.1013 36.4419 25.08L36.0099 25.048C35.1565 24.984 34.5272 24.728 34.1219 24.28C33.7165 23.832 33.5139 23.1547 33.5139 22.248V18.232H32.4419C32.2605 18.232 32.1165 18.1893 32.0099 18.104C31.9139 18.008 31.8659 17.8853 31.8659 17.736C31.8659 17.576 31.9139 17.448 32.0099 17.352C32.1165 17.256 32.2605 17.208 32.4419 17.208H33.5139V15.4C33.5139 15.1973 33.5725 15.0427 33.6899 14.936C33.8072 14.8187 33.9672 14.76 34.1699 14.76C34.3619 14.76 34.5165 14.8187 34.6339 14.936C34.7512 15.0427 34.8099 15.1973 34.8099 15.4V17.208H36.5859C36.7565 17.208 36.8899 17.256 36.9859 17.352C37.0925 17.448 37.1459 17.576 37.1459 17.736C37.1459 17.8853 37.0925 18.008 36.9859 18.104C36.8899 18.1893 36.7565 18.232 36.5859 18.232H34.8099V22.312C34.8099 22.8987 34.9272 23.3253 35.1619 23.592C35.4072 23.848 35.7699 23.992 36.2499 24.024L36.6819 24.056ZM47.2714 17.016C48.9994 17.016 49.8634 18.0453 49.8634 20.104V24.44C49.8634 24.6427 49.8047 24.8027 49.6874 24.92C49.57 25.0267 49.4154 25.08 49.2234 25.08C49.0314 25.08 48.8714 25.0267 48.7434 24.92C48.626 24.8027 48.5674 24.6427 48.5674 24.44V20.136C48.5674 19.4213 48.4394 18.904 48.1834 18.584C47.9274 18.264 47.5274 18.104 46.9834 18.104C46.3327 18.104 45.8207 18.3227 45.4474 18.76C45.074 19.1973 44.8874 19.7893 44.8874 20.536V24.44C44.8874 24.6427 44.8234 24.8027 44.6954 24.92C44.578 25.0267 44.4234 25.08 44.2314 25.08C44.0394 25.08 43.8847 25.0267 43.7674 24.92C43.65 24.8027 43.5914 24.6427 43.5914 24.44V20.136C43.5914 19.4213 43.4634 18.904 43.2074 18.584C42.9514 18.264 42.546 18.104 41.9914 18.104C41.3514 18.104 40.8394 18.3227 40.4554 18.76C40.082 19.1973 39.8954 19.7893 39.8954 20.536V24.44C39.8954 24.6427 39.8367 24.8027 39.7194 24.92C39.602 25.0267 39.4474 25.08 39.2554 25.08C39.0634 25.08 38.9034 25.0267 38.7754 24.92C38.658 24.8027 38.5994 24.6427 38.5994 24.44V17.688C38.5994 17.496 38.658 17.3413 38.7754 17.224C38.9034 17.1067 39.0634 17.048 39.2554 17.048C39.4367 17.048 39.586 17.1067 39.7034 17.224C39.8207 17.3307 39.8794 17.48 39.8794 17.672V18.44C40.114 17.9813 40.4394 17.6293 40.8554 17.384C41.2714 17.1387 41.7514 17.016 42.2954 17.016C43.5114 17.016 44.306 17.528 44.6794 18.552C44.9034 18.0827 45.2447 17.7093 45.7034 17.432C46.162 17.1547 46.6847 17.016 47.2714 17.016ZM52.9604 25.08C52.7684 25.08 52.6084 25.0267 52.4804 24.92C52.363 24.8027 52.3044 24.6427 52.3044 24.44V14.28C52.3044 14.0773 52.363 13.9227 52.4804 13.816C52.6084 13.6987 52.7684 13.64 52.9604 13.64C53.1417 13.64 53.291 13.6987 53.4084 13.816C53.5364 13.9227 53.6004 14.0773 53.6004 14.28V24.44C53.6004 24.6427 53.5364 24.8027 53.4084 24.92C53.291 25.0267 53.1417 25.08 52.9604 25.08Z"
      fill="#EF4565" />
    <path
      d="M16 1H57V-1H16V1ZM72 16V24H74V16H72ZM57 39H16V41H57V39ZM1 24V16H-1V24H1ZM16 39C7.71573 39 1 32.2843 1 24H-1C-1 33.3888 6.61116 41 16 41V39ZM72 24C72 32.2843 65.2843 39 57 39V41C66.3888 41 74 33.3888 74 24H72ZM57 1C65.2843 1 72 7.71573 72 16H74C74 6.61116 66.3888 -1 57 -1V1ZM16 -1C6.61116 -1 -1 6.61116 -1 16H1C1 7.71573 7.71573 1 16 1V-1Z" />
  </g>
  <defs>
    <filter id="filter0_d" x="0" y="0" width="73" height="42" filterUnits="userSpaceOnUse"
      color-interpolation-filters="sRGB">
      <feBlend mode="normal" in="SourceGraphic" in2="effect1_dropShadow" result="shape" />
    </filter>
  </defs>
</svg>