<svg width="156" height="42" viewBox="0 0 156 42" fill="none" xmlns="http://www.w3.org/2000/svg">
  <g filter="url(#filter0_d)">
    <path
      d="M0 16C0 7.16344 7.16344 0 16 0H140C148.837 0 156 7.16344 156 16V24C156 32.8366 148.837 40 140 40H16C7.16344 40 0 32.8366 0 24V16Z"
      fill="#16161A" />
    <path
      d="M16.622 23.272C16.8033 23.3787 16.894 23.5227 16.894 23.704C16.894 23.8427 16.8407 23.96 16.734 24.056C16.638 24.1413 16.51 24.184 16.35 24.184C16.2327 24.184 16.126 24.1627 16.03 24.12L9.566 21.192C9.41667 21.128 9.29934 21.032 9.214 20.904C9.12867 20.7653 9.086 20.6107 9.086 20.44C9.086 20.28 9.12867 20.136 9.214 20.008C9.29934 19.88 9.41667 19.784 9.566 19.72L16.03 16.792C16.158 16.7387 16.2647 16.712 16.35 16.712C16.51 16.712 16.638 16.76 16.734 16.856C16.8407 16.9413 16.894 17.0587 16.894 17.208C16.894 17.3893 16.8033 17.528 16.622 17.624L10.318 20.456L16.622 23.272ZM19.6878 22.136C19.5811 22.136 19.4904 22.0987 19.4158 22.024C19.3411 21.9387 19.2984 21.8267 19.2878 21.688L18.9038 14.44C18.8824 14.1947 18.9464 14.0027 19.0958 13.864C19.2451 13.7147 19.4424 13.64 19.6878 13.64C19.9331 13.64 20.1304 13.7147 20.2798 13.864C20.4291 14.0027 20.4931 14.1947 20.4718 14.44L20.0878 21.688C20.0771 21.8373 20.0344 21.9493 19.9598 22.024C19.8851 22.0987 19.7944 22.136 19.6878 22.136ZM19.7038 25.08C19.4478 25.08 19.2344 25 19.0638 24.84C18.8931 24.6693 18.8078 24.4507 18.8078 24.184C18.8078 23.9173 18.8931 23.6987 19.0638 23.528C19.2344 23.3573 19.4478 23.272 19.7038 23.272C19.9491 23.272 20.1518 23.3573 20.3118 23.528C20.4824 23.6987 20.5678 23.9173 20.5678 24.184C20.5678 24.4507 20.4824 24.6693 20.3118 24.84C20.1518 25 19.9491 25.08 19.7038 25.08ZM140.44 19.72C140.59 19.784 140.707 19.88 140.792 20.008C140.878 20.136 140.92 20.28 140.92 20.44C140.92 20.6107 140.878 20.7653 140.792 20.904C140.707 21.032 140.59 21.128 140.44 21.192L133.976 24.12C133.88 24.1627 133.774 24.184 133.656 24.184C133.507 24.184 133.379 24.1413 133.272 24.056C133.166 23.96 133.112 23.8427 133.112 23.704C133.112 23.5227 133.208 23.3787 133.4 23.272L139.688 20.456L133.4 17.624C133.208 17.5387 133.112 17.4 133.112 17.208C133.112 17.0587 133.16 16.9413 133.256 16.856C133.363 16.76 133.496 16.712 133.656 16.712C133.742 16.712 133.848 16.7387 133.976 16.792L140.44 19.72Z"
      fill="#FFFFFF" />
    <path
      d="M23.664 25C23.4613 25 23.296 24.9413 23.168 24.824C23.0507 24.7067 22.992 24.552 22.992 24.36V14.36C22.992 14.168 23.0507 14.0133 23.168 13.896C23.296 13.7787 23.4613 13.72 23.664 13.72H26.784C28.5867 13.72 29.9787 14.2107 30.96 15.192C31.952 16.1627 32.448 17.5493 32.448 19.352C32.448 21.1547 31.952 22.5467 30.96 23.528C29.968 24.5093 28.576 25 26.784 25H23.664ZM26.704 23.88C29.6267 23.88 31.088 22.3707 31.088 19.352C31.088 16.344 29.6267 14.84 26.704 14.84H24.304V23.88H26.704ZM39.6201 25.128C38.5748 25.128 37.6628 24.8933 36.8841 24.424C36.1161 23.9547 35.5241 23.288 35.1081 22.424C34.6921 21.56 34.4841 20.5413 34.4841 19.368C34.4841 18.184 34.6868 17.16 35.0921 16.296C35.5081 15.4213 36.1001 14.7547 36.8681 14.296C37.6468 13.8267 38.5641 13.592 39.6201 13.592C40.6761 13.592 41.5881 13.8267 42.3561 14.296C43.1348 14.7547 43.7268 15.4213 44.1321 16.296C44.5481 17.16 44.7561 18.1787 44.7561 19.352C44.7561 20.5253 44.5481 21.5493 44.1321 22.424C43.7161 23.288 43.1188 23.9547 42.3401 24.424C41.5721 24.8933 40.6655 25.128 39.6201 25.128ZM39.6201 24.008C40.8148 24.008 41.7428 23.608 42.4041 22.808C43.0761 21.9973 43.4121 20.8453 43.4121 19.352C43.4121 17.8587 43.0815 16.712 42.4201 15.912C41.7588 15.112 40.8255 14.712 39.6201 14.712C38.4255 14.712 37.4921 15.1173 36.8201 15.928C36.1588 16.728 35.8281 17.8693 35.8281 19.352C35.8281 20.8347 36.1588 21.9813 36.8201 22.792C37.4921 23.6027 38.4255 24.008 39.6201 24.008ZM51.9829 25.128C50.9162 25.128 49.9935 24.8987 49.2149 24.44C48.4362 23.9707 47.8335 23.304 47.4069 22.44C46.9909 21.5653 46.7829 20.536 46.7829 19.352C46.7829 18.1787 46.9909 17.16 47.4069 16.296C47.8335 15.4213 48.4362 14.7547 49.2149 14.296C49.9935 13.8267 50.9162 13.592 51.9829 13.592C52.6975 13.592 53.3695 13.7093 53.9989 13.944C54.6389 14.168 55.1935 14.4933 55.6629 14.92C55.8335 15.08 55.9189 15.2667 55.9189 15.48C55.9189 15.6293 55.8762 15.7627 55.7909 15.88C55.7055 15.9867 55.6042 16.04 55.4869 16.04C55.3589 16.04 55.2042 15.9813 55.0229 15.864C54.4789 15.4373 53.9829 15.1387 53.5349 14.968C53.0975 14.7973 52.5909 14.712 52.0149 14.712C50.7775 14.712 49.8229 15.1173 49.1509 15.928C48.4895 16.728 48.1589 17.8693 48.1589 19.352C48.1589 20.8453 48.4895 21.9973 49.1509 22.808C49.8229 23.608 50.7775 24.008 52.0149 24.008C52.5802 24.008 53.0869 23.9227 53.5349 23.752C53.9829 23.5813 54.4789 23.2827 55.0229 22.856C55.2042 22.7387 55.3589 22.68 55.4869 22.68C55.6042 22.68 55.7055 22.7333 55.7909 22.84C55.8762 22.9467 55.9189 23.08 55.9189 23.24C55.9189 23.4533 55.8335 23.64 55.6629 23.8C55.1935 24.2267 54.6389 24.5573 53.9989 24.792C53.3695 25.016 52.6975 25.128 51.9829 25.128ZM61.3428 25.08C61.1401 25.08 60.9748 25.0213 60.8468 24.904C60.7294 24.776 60.6708 24.6107 60.6708 24.408V14.84H57.2308C57.0388 14.84 56.8894 14.792 56.7828 14.696C56.6761 14.6 56.6228 14.4613 56.6228 14.28C56.6228 14.0987 56.6761 13.96 56.7828 13.864C56.8894 13.768 57.0388 13.72 57.2308 13.72H65.4388C65.6308 13.72 65.7801 13.768 65.8868 13.864C65.9934 13.96 66.0468 14.0987 66.0468 14.28C66.0468 14.4613 65.9934 14.6 65.8868 14.696C65.7801 14.792 65.6308 14.84 65.4388 14.84H61.9988V24.408C61.9988 24.6107 61.9401 24.776 61.8228 24.904C61.7054 25.0213 61.5454 25.08 61.3428 25.08ZM74.7899 13.896C74.9179 13.736 75.0725 13.656 75.2539 13.656C75.4032 13.656 75.5365 13.7147 75.6539 13.832C75.7712 13.9493 75.8299 14.0933 75.8299 14.264C75.8299 14.424 75.7819 14.5573 75.6859 14.664L71.7979 19.576V24.408C71.7979 24.6213 71.7339 24.7867 71.6059 24.904C71.4885 25.0213 71.3339 25.08 71.1419 25.08C70.9499 25.08 70.7899 25.0213 70.6619 24.904C70.5445 24.7867 70.4859 24.6213 70.4859 24.408V19.56L66.5979 14.664C66.4912 14.5467 66.4379 14.4133 66.4379 14.264C66.4379 14.0933 66.4965 13.9493 66.6139 13.832C66.7419 13.7147 66.8859 13.656 67.0459 13.656C67.2272 13.656 67.3819 13.736 67.5099 13.896L71.1579 18.552L74.7899 13.896ZM78.0793 25.08C77.8766 25.08 77.7166 25.0213 77.5993 24.904C77.4819 24.776 77.4233 24.6107 77.4233 24.408V14.36C77.4233 14.168 77.4819 14.0133 77.5993 13.896C77.7273 13.7787 77.8926 13.72 78.0953 13.72H81.8873C83.0713 13.72 83.9886 14.008 84.6393 14.584C85.3006 15.16 85.6313 15.976 85.6313 17.032C85.6313 18.088 85.3006 18.9093 84.6393 19.496C83.9779 20.0827 83.0606 20.376 81.8873 20.376H78.7353V24.408C78.7353 24.6107 78.6766 24.776 78.5593 24.904C78.4419 25.0213 78.2819 25.08 78.0793 25.08ZM81.7593 19.288C83.4766 19.288 84.3353 18.536 84.3353 17.032C84.3353 15.5493 83.4766 14.808 81.7593 14.808H78.7353V19.288H81.7593ZM88.4878 25C88.2851 25 88.1198 24.9413 87.9918 24.824C87.8744 24.7067 87.8158 24.552 87.8158 24.36V14.36C87.8158 14.168 87.8744 14.0133 87.9918 13.896C88.1198 13.7787 88.2851 13.72 88.4878 13.72H94.4718C94.6638 13.72 94.8131 13.768 94.9198 13.864C95.0264 13.96 95.0798 14.0933 95.0798 14.264C95.0798 14.4347 95.0264 14.568 94.9198 14.664C94.8131 14.76 94.6638 14.808 94.4718 14.808H89.1118V18.728H94.1518C94.3438 18.728 94.4931 18.776 94.5998 18.872C94.7064 18.968 94.7598 19.1013 94.7598 19.272C94.7598 19.4427 94.7064 19.576 94.5998 19.672C94.4931 19.768 94.3438 19.816 94.1518 19.816H89.1118V23.912H94.4718C94.6638 23.912 94.8131 23.96 94.9198 24.056C95.0264 24.1413 95.0798 24.2747 95.0798 24.456C95.0798 24.6267 95.0264 24.76 94.9198 24.856C94.8131 24.952 94.6638 25 94.4718 25H88.4878Z"
      fill="#EF4565" />
    <path
      d="M105.157 17.016C106.075 17.016 106.768 17.2773 107.237 17.8C107.707 18.312 107.941 19.08 107.941 20.104V24.44C107.941 24.6427 107.883 24.8027 107.765 24.92C107.648 25.0267 107.493 25.08 107.301 25.08C107.099 25.08 106.939 25.0267 106.821 24.92C106.704 24.8027 106.645 24.6427 106.645 24.44V20.136C106.645 19.4427 106.501 18.9307 106.213 18.6C105.936 18.2693 105.488 18.104 104.869 18.104C104.155 18.104 103.584 18.3227 103.157 18.76C102.731 19.1973 102.517 19.7893 102.517 20.536V24.44C102.517 24.6427 102.459 24.8027 102.341 24.92C102.235 25.0267 102.08 25.08 101.877 25.08C101.675 25.08 101.515 25.0267 101.397 24.92C101.28 24.8027 101.221 24.6427 101.221 24.44V14.264C101.221 14.0827 101.28 13.9333 101.397 13.816C101.525 13.6987 101.685 13.64 101.877 13.64C102.08 13.64 102.235 13.6987 102.341 13.816C102.459 13.9227 102.517 14.072 102.517 14.264V18.456C102.773 17.9867 103.131 17.6293 103.589 17.384C104.048 17.1387 104.571 17.016 105.157 17.016ZM113.995 24.056C114.368 24.088 114.555 24.2587 114.555 24.568C114.555 24.7493 114.486 24.888 114.347 24.984C114.219 25.0693 114.022 25.1013 113.755 25.08L113.323 25.048C112.47 24.984 111.84 24.728 111.435 24.28C111.03 23.832 110.827 23.1547 110.827 22.248V18.232H109.755C109.574 18.232 109.43 18.1893 109.323 18.104C109.227 18.008 109.179 17.8853 109.179 17.736C109.179 17.576 109.227 17.448 109.323 17.352C109.43 17.256 109.574 17.208 109.755 17.208H110.827V15.4C110.827 15.1973 110.886 15.0427 111.003 14.936C111.12 14.8187 111.28 14.76 111.483 14.76C111.675 14.76 111.83 14.8187 111.947 14.936C112.064 15.0427 112.123 15.1973 112.123 15.4V17.208H113.899C114.07 17.208 114.203 17.256 114.299 17.352C114.406 17.448 114.459 17.576 114.459 17.736C114.459 17.8853 114.406 18.008 114.299 18.104C114.203 18.1893 114.07 18.232 113.899 18.232H112.123V22.312C112.123 22.8987 112.24 23.3253 112.475 23.592C112.72 23.848 113.083 23.992 113.563 24.024L113.995 24.056ZM124.585 17.016C126.313 17.016 127.177 18.0453 127.177 20.104V24.44C127.177 24.6427 127.118 24.8027 127.001 24.92C126.883 25.0267 126.729 25.08 126.537 25.08C126.345 25.08 126.185 25.0267 126.057 24.92C125.939 24.8027 125.881 24.6427 125.881 24.44V20.136C125.881 19.4213 125.753 18.904 125.497 18.584C125.241 18.264 124.841 18.104 124.297 18.104C123.646 18.104 123.134 18.3227 122.761 18.76C122.387 19.1973 122.201 19.7893 122.201 20.536V24.44C122.201 24.6427 122.137 24.8027 122.009 24.92C121.891 25.0267 121.737 25.08 121.545 25.08C121.353 25.08 121.198 25.0267 121.081 24.92C120.963 24.8027 120.905 24.6427 120.905 24.44V20.136C120.905 19.4213 120.777 18.904 120.521 18.584C120.265 18.264 119.859 18.104 119.305 18.104C118.665 18.104 118.153 18.3227 117.769 18.76C117.395 19.1973 117.209 19.7893 117.209 20.536V24.44C117.209 24.6427 117.15 24.8027 117.033 24.92C116.915 25.0267 116.761 25.08 116.569 25.08C116.377 25.08 116.217 25.0267 116.089 24.92C115.971 24.8027 115.913 24.6427 115.913 24.44V17.688C115.913 17.496 115.971 17.3413 116.089 17.224C116.217 17.1067 116.377 17.048 116.569 17.048C116.75 17.048 116.899 17.1067 117.017 17.224C117.134 17.3307 117.193 17.48 117.193 17.672V18.44C117.427 17.9813 117.753 17.6293 118.169 17.384C118.585 17.1387 119.065 17.016 119.609 17.016C120.825 17.016 121.619 17.528 121.993 18.552C122.217 18.0827 122.558 17.7093 123.017 17.432C123.475 17.1547 123.998 17.016 124.585 17.016ZM130.274 25.08C130.082 25.08 129.922 25.0267 129.794 24.92C129.676 24.8027 129.618 24.6427 129.618 24.44V14.28C129.618 14.0773 129.676 13.9227 129.794 13.816C129.922 13.6987 130.082 13.64 130.274 13.64C130.455 13.64 130.604 13.6987 130.722 13.816C130.85 13.9227 130.914 14.0773 130.914 14.28V24.44C130.914 24.6427 130.85 24.8027 130.722 24.92C130.604 25.0267 130.455 25.08 130.274 25.08Z"
      fill="#2CB67D" />
    <path
      d="M16 1H140V-1H16V1ZM155 16V24H157V16H155ZM140 39H16V41H140V39ZM1 24V16H-1V24H1ZM16 39C7.71573 39 1 32.2843 1 24H-1C-1 33.3888 6.61116 41 16 41V39ZM155 24C155 32.2843 148.284 39 140 39V41C149.389 41 157 33.3888 157 24H155ZM140 1C148.284 1 155 7.71573 155 16H157C157 6.61116 149.389 -1 140 -1V1ZM16 -1C6.61116 -1 -1 6.61116 -1 16H1C1 7.71573 7.71573 1 16 1V-1Z" />
  </g>
  <defs>
    <filter id="filter0_d" x="0" y="0" width="156" height="42" filterUnits="userSpaceOnUse"
      color-interpolation-filters="sRGB">
      <feBlend mode="normal" in="SourceGraphic" in2="effect1_dropShadow" result="shape" />
    </filter>
  </defs>
</svg>