<svg width="80" height="80" viewBox="0 0 80 80" fill="none" xmlns="http://www.w3.org/2000/svg">
<rect width="80" height="80" fill="#16161A"/>
<path d="M15.5598 25.6069C15.5598 25.6069 16.8295 29.3049 17.0106 30.5378C17.1922 31.7703 13.7461 34.5096 13.7461 35.8792C13.7461 37.249 14.4705 39.7142 18.4612 40.9471C22.4519 42.1798 22.9955 45.3297 22.9955 47.2477C22.9955 49.1651 21.5446 52.8627 21.5446 52.8627C21.5446 52.8627 20.6382 62.0392 25.5347 63.6827C30.4311 65.326 29.3434 65.326 30.4311 65.326C31.5191 65.326 39.4996 67.7921 44.215 66.8331C48.9308 65.8744 50.1994 64.7788 50.1994 64.7788C50.1994 64.7788 54.9154 65.0525 56.3662 61.9019C57.8177 58.752 58.7241 52.178 58.1797 49.1647C57.6355 46.1511 56.9104 42.18 60.1745 40.8102C63.4401 39.4404 66.8855 37.7974 66.3413 36.4274C65.7971 35.0576 62.8961 33.1401 62.8961 33.1401C62.8961 33.1401 62.1704 29.7163 62.7141 28.8944C63.2579 28.0727 66.5229 26.0177 64.709 24.5115C62.8963 23.0051 59.6307 23.0051 59.6307 23.0051L55.4596 23.2786C55.4596 23.2786 48.3863 18.4852 39.1365 18.7591C29.8872 19.033 24.083 23.2786 24.083 23.2786C24.083 23.2786 21 22.4569 18.2793 23.2786C15.5585 24.1007 15.016 23.2785 15.5598 25.6069V25.6069Z" fill="#FBA919"/>
<path d="M32.1322 45.9993C32.1322 45.9993 28.5405 50.1464 25.906 53.0895C25.4984 53.5448 28.5405 53.5763 28.5405 53.5763L32.1322 45.9991V45.9993ZM33.8422 37.401C33.8422 37.401 32.7594 39.4408 32.1664 40.522C31.5228 41.6976 29.068 42.2824 29.068 42.2824C29.068 42.2824 30.3403 41.2746 30.3403 38.7215C30.3403 37.6506 32.1716 37.2246 32.1716 37.2246L33.8422 37.4009V37.401Z" fill="#E78724"/>
<path d="M32.7486 38.5543C32.7486 38.5543 30.5303 40.5484 26.4119 39.4315C22.2924 38.3152 21.8701 34.3267 21.8701 33.2101C21.8701 32.0934 29.6859 34.3268 30.7426 34.8054C31.799 35.2841 33.8046 37.1981 32.7484 38.5543H32.7486ZM17.1906 17.2476C17.1906 17.2476 20.9929 16.6888 23.5273 18.2045C26.0631 19.7199 26.8016 20.9165 26.8016 20.9165L22.5291 23.474C22.5291 23.474 20.4647 22.7513 19.831 20.6773C19.1973 18.6034 19.6199 17.6465 17.1906 17.2476V17.2476Z" fill="#E78724"/>
<path d="M31.6395 32.7947C30.0025 31.0399 27.3047 30.2744 25.1506 30.1476C21.4778 29.9307 19.7342 30.9113 19.7342 30.9113C19.7342 30.9113 25.7493 31.1035 27.483 32.8231C30.7106 36.0235 35.4192 36.2835 36.1722 35.5806C35.3014 35.6134 34.3438 35.2876 33.3185 34.5557C32.6781 34.0977 32.159 33.3517 31.6395 32.7947V32.7947ZM21.4852 38.9995C21.4852 38.9995 14.8113 37.2669 16.0798 35.5125C17.3469 33.7576 16.3382 32.8014 16.3382 32.8014C16.3382 32.8014 12.6117 34.9022 13.5611 37.1355C14.1448 38.5061 15.1239 39.4986 20.5001 41.4012C23.0789 45.0184 21.0326 51.529 21.1552 51.5595C21.3594 51.6108 24.7759 50.2844 24.5427 44.1932C24.4713 42.3228 24.2734 39.7693 21.4852 38.9996V38.9995ZM30.2308 20.3686C27.4324 21.4421 23.5986 22.9373 23.5986 22.9373L25.1076 23.5074C24.9634 23.6835 24.8941 23.7886 24.8941 23.7886L26.4428 24.3203C26.4428 24.3203 30.2234 26.3885 32.5396 27.7183C31.7674 25.922 29.5003 23.1007 29.5003 23.1007C29.5003 23.1007 28.858 21.8043 30.2308 20.3684V20.3686ZM39.5275 64.1315C30.9258 64.1315 28.0125 60.8341 28.0125 60.8341L29.3568 63.306C29.8647 64.3754 35.285 67.7032 39.5145 67.7032" fill="#E78724"/>
<path d="M28.955 58.606C28.955 58.606 29.7465 62.2582 32.9152 62.2582C35.6079 62.2582 36.4013 59.1731 36.4013 58.5355L28.955 58.606V58.606ZM23.6819 53.0977C23.9635 52.5125 24.9492 50.1463 25.2658 47.9929C25.6453 45.4138 25.507 41.6417 25.507 41.6417C25.507 41.6417 24.6615 44.1143 23.9222 44.5138C23.1833 44.9124 21.8098 47.6241 21.8098 47.6241C21.8098 47.6241 21.0741 51.6612 20.724 53.0181C21.6931 53.1645 22.5087 52.7334 23.6819 53.0977V53.0977ZM16.0299 37.0956C16.0299 37.0956 17.825 36.6166 18.3536 33.6658C18.8816 30.7145 17.7195 28.1621 17.7195 28.1621C17.7195 28.1621 17.825 32.2299 17.1915 33.0278C16.5574 33.8251 16.0299 34.0645 15.2901 35.1017C14.5503 36.139 15.6067 36.7764 16.0299 37.0956V37.0956Z" fill="#E78724"/>
<path d="M18.1733 17.9456L17.8068 17.7703C16.7262 17.7978 18.1733 17.9456 18.1733 17.9456Z" fill="#FDC168"/>
<path d="M31.6918 19.4949C31.6918 19.4949 30.0026 19.2824 29.1571 18.3253C28.3116 17.3681 25.9181 15.4535 22.102 15.4323C18.2862 15.4108 14.511 16.1982 14.511 16.1982L17.8064 17.7707C18.155 17.7621 18.7644 17.7657 19.7722 17.7911C23.9082 17.8949 24.5448 20.9841 24.5448 20.9841L39.1205 19.4684" fill="#FBA919"/>
<path d="M33.1007 36.5576C33.1007 36.5576 31.1288 38.0466 28.1005 37.5677C25.0724 37.0893 23.2412 36.0789 23.1005 34.3239C22.9598 32.5691 23.7348 31.8779 23.7348 31.8779C23.7348 31.8779 27.1143 32.676 28.7348 33.7396C30.3544 34.803 31.5513 36.5046 33.1004 36.5576H33.1007Z" fill="white"/>
<path d="M30.7143 36.0258C30.7143 36.0258 29.0041 36.6156 27.0927 36.1351C24.5907 35.5048 24.424 33.5398 24.424 33.5398C24.424 33.5398 22.8889 36.9415 27.1925 37.5963C30.6442 38.1213 32.6857 36.6109 32.6857 36.6109L30.7143 36.0256V36.0258Z" fill="#C9C9C9"/>
<path d="M31.9295 18.7731C31.7456 15.8559 34.9124 13.5325 36.0099 13.4334C36.0704 13.9278 35.9485 15.8561 37.0455 16.449C37.365 14.8741 38.4449 13.1376 42.7097 12C41.7963 13.8294 42.5875 15.3617 42.9647 16.072C45.8767 14.076 47.8389 14.4057 47.8389 14.4057C47.8389 14.4057 45.8153 17.0424 46.607 18.7726C40.7609 18.4264 31.958 19.2417 31.9295 18.7733V18.7731ZM19.5358 23.2169C18.1407 22.3429 19.1805 21.5319 19.0702 20.539C19.0104 20.0107 18.955 19.5123 18.7244 19.2373C17.4407 17.7067 14.4126 17.2422 14.3823 17.2373L12.9611 17.0271L13.9019 16.1961C14.0238 16.0883 17.8872 13.3045 23.8662 14.7623C28.0486 15.7809 31.1448 19.235 31.2599 19.3745L29.1629 20.1192C29.1383 20.0898 26.6905 16.843 23.1024 15.9694C20.2021 15.2627 17.5286 15.9351 16.3838 16.3757C17.601 16.7426 19.1923 17.411 20.1513 18.5542C20.6036 19.0943 20.6801 19.774 20.7538 20.4324C20.8511 21.3039 20.9419 22.1267 21.7912 22.6595L19.5358 23.2169V23.2169ZM15.8103 35.974C15.8103 35.974 17.5675 34.3282 18.0882 31.1261C18.2926 29.8646 17.9293 27.3769 17.3482 26.4198C17.4539 28.7728 16.6618 31.1261 16.6618 31.1261C16.6618 31.1261 16.1277 35.4953 15.8103 35.974Z" fill="#463014"/>
<path d="M25.0771 21.5548C25.0761 21.5513 24.5131 19.6934 22.9522 18.7554C20.7504 17.4328 18.062 18.1364 18.0361 18.1426L17.6458 17.2319C17.7759 17.2001 20.8487 16.4689 23.6806 17.9722C26.5295 19.484 26.8714 20.8544 26.901 21.0057L25.0769 21.5548H25.0771ZM21.3298 34.7936C21.3298 34.7936 20.4078 33.7969 20.5736 32.7008C20.6561 32.1595 20.9885 31.6037 21.5814 31.4066C22.6836 31.041 23.172 31.9843 23.172 31.9843C23.172 31.9843 21.6209 32.2734 21.3298 34.7936V34.7936Z" fill="#463014"/>
<path d="M31.4532 36.3129C31.4916 36.3671 31.5115 36.3976 31.5115 36.3976C31.5115 36.3976 28.6356 38.0274 25.6886 36.3734C24.1109 35.4872 24.26 33.2955 24.7432 32.3661C26.0002 32.5812 27.0661 32.9688 27.957 33.4215C26.831 32.6626 25.8455 32.1039 25.8481 32.0911L24.5682 31.8175L22.0806 31.1733C22.0488 31.3166 21.1416 34.5282 23.7605 36.7165C24.9211 37.6869 30.3631 39.8599 32.947 36.1443L31.4532 36.3127V36.3129Z" fill="#463014"/>
<path d="M31.1839 36.5517C32.8028 38.4126 36.888 37.3491 36.8177 35.3818C36.8177 35.3818 34.0881 36.5194 31.6764 34.4248C30.2684 33.202 25.7568 29.8303 19.6384 30.9507C23.8636 31.6525 29.4575 34.5674 31.1837 36.5517H31.1839Z" fill="#463014"/>
<path d="M19.0672 41.8038C19.4567 41.9737 20.8303 43.0481 20.8312 44.6547C20.8312 45.4605 20.7251 49.508 20.1969 51.9808C20.9911 52.3705 21.5444 52.4534 22.3354 52.8507C22.7313 49.9869 23.0153 45.8362 22.883 44.1605C22.7318 42.2505 21.3773 40.9687 20.1214 40.4221C19.7281 40.2512 19.3173 40.0833 18.9034 39.9144C16.7523 39.0367 14.5278 38.1286 14.5278 36.5783C14.5278 35.3653 15.1524 34.986 15.8133 34.5839L15.8846 34.5403C16.3233 34.2726 16.8195 33.9691 17.1137 33.4708C17.9161 32.1084 18.0473 28.6374 17.1137 27.7564C16.6481 27.3174 15.4011 25.841 15.7597 24.8489C15.8963 24.4703 16.212 24.1896 16.7262 23.9908C17.2701 23.7802 18.0052 23.6737 18.9099 23.6737C20.6868 23.6737 22.6578 24.0822 23.6747 24.3253C27.3084 25.1951 31.693 27.7026 32.9498 28.4504C32.9859 28.4713 33.0071 28.4835 33.0109 28.4855L33.8151 28.9079L33.3122 28.2723C33.2811 28.2327 30.0957 24.2772 24.3998 22.8269C23.2917 22.5448 21.1147 22.0713 18.9751 22.0713C17.7015 22.0713 16.6205 22.2394 15.7649 22.5702C14.7216 22.9732 14.0154 23.616 13.7219 24.4288C13.0026 26.4211 15.3451 28.6392 15.4249 28.7102C15.6981 29.0784 15.8139 31.7529 15.1828 32.8232C15.0964 32.9711 14.8582 33.1162 14.5572 33.2998C14.4627 33.3574 14.3573 33.4173 14.2455 33.4813C13.3553 33.9887 12.0093 34.7552 12.0093 36.5223C12.0093 38.94 15.2542 40.2509 17.8619 41.3049C18.2898 41.4787 18.6981 41.6432 19.0672 41.8038Z" fill="#463014"/>
<path d="M19.5358 23.2168C18.1407 22.3428 19.1805 21.5319 19.0702 20.5389C19.0104 20.0106 18.955 19.5122 18.7244 19.2372C17.4407 17.7066 14.4126 17.2421 14.3823 17.2372L12.9611 17.027L13.9019 16.196C14.0238 16.0883 17.8872 13.3044 23.8662 14.7622C28.0486 15.7808 31.1448 19.2349 31.2599 19.3744L29.1629 20.1192C29.1383 20.0898 26.6905 16.8429 23.1024 15.9693C20.2021 15.2626 17.5286 15.935 16.3838 16.3757C17.601 16.7426 19.1923 17.4109 20.1513 18.5542C20.6036 19.0942 20.6801 19.774 20.7538 20.4323C20.8511 21.3039 20.9419 22.1266 21.7912 22.6595L19.5358 23.2168V23.2168Z" fill="#463014"/>
<path d="M19.4904 23.3959L19.4003 23.3394C18.3659 22.6912 18.5494 22.0527 18.727 21.4348C18.8079 21.1497 18.893 20.8549 18.8584 20.5525C18.802 20.0441 18.7478 19.5645 18.5451 19.3224C17.3229 17.865 14.3689 17.3982 14.3398 17.3936L12.565 17.1307L13.7415 16.0919C13.7632 16.0723 16.2438 14.1814 20.445 14.1814C21.5904 14.1814 22.7638 14.3253 23.931 14.6101C28.2963 15.6729 31.4101 19.2544 31.4395 19.2898L31.5655 19.4419L29.0849 20.3229L28.9855 20.2037C28.7183 19.86 26.3663 16.9308 23.0389 16.1203C22.2217 15.9212 21.3607 15.8205 20.4806 15.8205C18.8865 15.8205 17.5939 16.1485 16.906 16.3689C18.0555 16.7597 19.4497 17.4176 20.3315 18.4682C20.8113 19.0404 20.8891 19.7397 20.9652 20.4156C21.0586 21.2558 21.1467 22.046 21.9274 22.5353L22.2219 22.7197L19.4906 23.3959H19.4904Z" fill="#463014"/>
<path d="M25.0771 21.5548C25.0761 21.5513 24.5131 19.6934 22.9522 18.7554C20.7504 17.4328 18.062 18.1364 18.0361 18.1426L17.6458 17.2319C17.7759 17.2001 20.8487 16.4689 23.6806 17.9722C26.5295 19.484 26.8714 20.8544 26.901 21.0057L25.0769 21.5548H25.0771Z" fill="#463014"/>
<path d="M24.9257 21.7721L24.8708 21.5893C24.8652 21.5713 24.313 19.777 22.8202 18.8807C21.9693 18.3692 20.9434 18.1094 19.7724 18.1094C18.8585 18.1094 18.1792 18.2742 18.1051 18.2936L17.9034 18.3442L17.3798 17.1295L17.5805 17.0805C17.6704 17.0588 18.4861 16.8667 19.6397 16.8667C21.1617 16.8667 22.6006 17.204 23.8027 17.8415C26.7232 19.3912 27.0798 20.8243 27.11 20.9825L27.1357 21.1075L24.9257 21.7721V21.7721ZM19.7727 17.7909C21.0236 17.7909 22.1695 18.0814 23.0837 18.6305C24.4091 19.4277 25.0326 20.8351 25.2211 21.3397L26.6579 20.9072C26.5278 20.5242 25.9551 19.3745 23.5596 18.1028C22.4135 17.4946 21.0951 17.1864 19.64 17.1864C18.8414 17.1864 18.2211 17.2824 17.9147 17.3408L18.1738 17.9457C18.4742 17.8846 19.0525 17.7909 19.7727 17.7909V17.7909ZM32.7828 61.3823C32.1586 61.3823 31.5217 61.2112 31.0804 60.9227C30.7424 60.7027 29.5995 59.91 29.0955 58.9389C28.9075 58.5757 28.9496 58.2852 29.2226 58.0762C29.4106 57.9329 29.8012 57.7617 30.5937 57.7617L31.1575 57.761C31.8295 57.7604 32.9607 57.7604 33.9276 57.7604H34.8547C35.4577 57.7604 35.89 57.8589 36.1383 58.0509C36.4575 58.2985 36.3553 58.6134 36.2658 58.7793C36.1106 59.0698 35.4677 60.0149 34.3793 60.8936C33.9896 61.2086 33.4225 61.3823 32.7828 61.3823V61.3823ZM33.437 36.6611L31.1837 36.5518C31.1837 36.5518 31.7597 37.3185 32.1329 38.3102C32.5543 39.4319 31.7476 41.0713 31.7476 41.0713C31.7476 41.0713 34.7521 38.5024 33.437 36.6611V36.6611ZM30.6242 65.8753C22.6041 65.4099 19.7824 59.687 19.7824 58.4951L21.8768 58.4958L20.8297 58.4951H21.8768C21.8874 59.0104 24.0186 63.9058 30.7845 64.2988L30.6242 65.8753V65.8753Z" fill="#463014"/>
<path d="M28.3704 55.6219C28.2451 55.075 28.2321 54.5562 28.3849 54.0465C27.7754 53.7005 26.6819 53.572 25.8612 53.3711C25.1902 53.0504 21.7562 53.6998 19.2652 51.4231C16.1438 48.5722 16.8005 46.8701 16.8005 46.8701C16.0002 47.5416 15.2246 47.2856 14.0048 50.4166C12.7831 53.5482 14.5782 55.7313 17.9237 57.923C19.5042 58.9582 21.7385 59.3848 23.6605 59.548C23.0166 59.06 24.7601 59.0111 25.9617 58.6716C25.866 57.9388 26.0266 57.2276 26.7499 56.6549C27.1861 56.3095 27.7473 56.1032 28.3298 55.9387C28.3622 55.8819 28.3896 55.8294 28.4206 55.7749C28.4 55.7246 28.3833 55.6736 28.3704 55.6219V55.6219Z" fill="white"/>
<path d="M25.9457 58.6525C25.8761 58.4986 25.8236 58.3419 25.7722 58.1841C25.7167 58.0119 25.44 57.5236 25.7808 58.0811C25.6933 57.9383 25.636 57.7912 25.5939 57.643C20.1757 57.6378 15.4621 54.8285 16.3728 48.9225C15.6635 48.2115 14.6702 50.3565 14.6702 50.3565C14.6702 50.3565 11.9577 56.3041 18.9631 58.6092C21.2972 59.3779 23.3601 59.9291 23.8468 59.7066C24.8606 59.8622 25.7757 59.3285 26.1189 58.9774C26.0547 58.8697 25.9959 58.7617 25.9457 58.6525Z" fill="#C9C9C9"/>
<path d="M28.2727 54.7657C28.2811 54.2672 28.416 53.7843 28.7352 53.3033C28.7575 53.2702 28.7832 53.2384 28.8072 53.2061C26.7223 53.1925 24.3211 53.0419 22.2764 52.4238C20.029 51.7449 17.2177 49.4224 16.7346 46.6936C16.7346 46.6936 12.5021 49.16 13.7457 54.4393C14.9132 59.3964 20.4063 61.0124 26.671 61.2858C26.6745 61.2538 25.9665 60.1496 26.1902 59.4734C22.6328 59.6686 18.6549 58.6307 16.7346 56.2447C14.9765 54.0606 15.4697 50.332 16.1922 49.7856C17.9546 53.9852 24.2965 54.839 28.2727 54.7657V54.7657Z" fill="#463014"/>
<path d="M28.9291 51.7593C27.8018 54.2575 25.4992 56.2794 25.4992 56.2794C25.4992 56.2794 28.6667 56.1706 28.8416 55.7474C28.971 55.4353 31.7017 50.608 32.7499 44.9529C31.764 46.1761 29.0257 51.5453 28.9291 51.7593V51.7593Z" fill="#463014"/>
<path d="M46.8752 45.9993C46.8752 45.9993 50.466 50.1464 53.1014 53.0895C53.509 53.5448 50.466 53.5763 50.466 53.5763L46.8752 45.9991V45.9993ZM45.1648 37.401C45.1648 37.401 46.2476 39.4408 46.8397 40.522C47.4838 41.6976 49.9381 42.2824 49.9381 42.2824C49.9381 42.2824 48.666 41.2746 48.666 38.7215C48.666 37.6506 46.835 37.2246 46.835 37.2246L45.1648 37.4009V37.401Z" fill="#E78724"/>
<path d="M46.2584 38.5543C46.2584 38.5543 48.4764 40.5484 52.5962 39.4315C56.7159 38.3149 57.1377 34.3267 57.1377 33.2101C57.1377 32.0934 49.3219 34.3268 48.2653 34.8054C47.2089 35.2841 45.2024 37.1981 46.2584 38.5543ZM61.8166 17.2476C61.8166 17.2476 58.0143 16.6888 55.4788 18.2045C52.9443 19.7199 52.2045 20.9165 52.2045 20.9165L56.4773 23.474C56.4773 23.474 58.5425 22.751 59.1762 20.6771C59.8097 18.6034 59.3874 17.6463 61.8166 17.2476V17.2476Z" fill="#E78724"/>
<path d="M47.3677 32.7947C49.0046 31.0399 51.7016 30.2745 53.8566 30.1477C57.5296 29.9308 59.2724 30.9113 59.2724 30.9113C59.2724 30.9113 53.2573 31.1036 51.5231 32.8231C48.2953 36.0236 43.5884 36.2836 42.8355 35.5807C43.706 35.6135 44.6643 35.2877 45.6887 34.5557C46.3288 34.0978 46.8484 33.3518 47.3677 32.7947V32.7947ZM57.522 38.9995C57.522 38.9995 64.1952 37.2669 62.9276 35.5126C61.6605 33.7577 62.6683 32.8014 62.6683 32.8014C62.6683 32.8014 66.3957 34.9022 65.4455 37.1354C64.8617 38.506 63.8827 39.4985 58.5064 41.4011C55.9277 45.0183 57.9739 51.5289 57.852 51.5595C57.6476 51.6107 54.2315 50.2843 54.4647 44.1931C54.5356 42.3228 54.7338 39.7692 57.522 38.9995ZM48.7766 20.3687C51.5741 21.4422 55.4085 22.9374 55.4085 22.9374L53.9 23.5074C54.044 23.6835 54.1135 23.7887 54.1135 23.7887L52.5648 24.3204C52.5648 24.3204 48.784 26.3885 46.4676 27.7183C47.2391 25.9223 49.5063 23.1009 49.5063 23.1009C49.5063 23.1009 50.1499 21.8045 48.7766 20.3687V20.3687ZM39.4802 64.1316C48.0803 64.1316 50.9938 60.8342 50.9938 60.8342L49.6504 63.3061C49.1425 64.3754 43.7216 67.7032 39.4933 67.7032" fill="#E78724"/>
<path d="M50.0522 58.606C50.0522 58.606 49.2599 62.2582 46.092 62.2582C43.4 62.2582 42.6061 59.1731 42.6061 58.5355L50.0522 58.606ZM55.3254 53.0977C55.0438 52.5125 54.058 50.1463 53.7405 47.9929C53.361 45.4138 53.5002 41.6417 53.5002 41.6417C53.5002 41.6417 54.3452 44.1143 55.084 44.5138C55.824 44.9124 57.1965 47.6241 57.1965 47.6241C57.1965 47.6241 57.932 51.6612 58.2821 53.0181C57.3135 53.1645 56.4987 52.7334 55.3254 53.0977V53.0977ZM62.978 37.0956C62.978 37.0956 61.1821 36.6166 60.6543 33.6658C60.1263 30.7145 61.2882 28.1621 61.2882 28.1621C61.2882 28.1621 61.1821 32.2299 61.8162 33.0278C62.4503 33.8254 62.978 34.0645 63.7176 35.1017C64.4563 36.1387 63.4001 36.7764 62.978 37.0956V37.0956Z" fill="#E78724"/>
<path d="M60.8336 17.9456L61.2008 17.7703C62.2817 17.7978 60.8336 17.9456 60.8336 17.9456Z" fill="#FDC168"/>
<path d="M47.3146 19.4948C47.3146 19.4948 49.0049 19.2823 49.8495 18.3252C50.6945 17.368 53.0891 15.4535 56.9054 15.4321C60.7212 15.4105 64.4965 16.198 64.4965 16.198L61.2008 17.7705C60.8522 17.7619 60.2428 17.7654 59.2341 17.7909C55.0988 17.8947 54.4621 20.9839 54.4621 20.9839L39.8869 19.4682" fill="#FBA919"/>
<path d="M45.9066 36.5576C45.9066 36.5576 47.8784 38.0466 50.9061 37.5677C53.9344 37.0893 55.7654 36.0789 55.9063 34.3239C56.0468 32.5691 55.2726 31.8779 55.2726 31.8779C55.2726 31.8779 51.892 32.676 50.2726 33.7396C48.653 34.8033 47.4561 36.5046 45.9066 36.5576V36.5576Z" fill="white"/>
<path d="M48.2923 36.0258C48.2923 36.0258 50.0031 36.6156 51.9138 36.1351C54.4165 35.5048 54.5832 33.5398 54.5832 33.5398C54.5832 33.5398 56.1174 36.9415 51.8138 37.5963C48.3628 38.1213 46.3208 36.6109 46.3208 36.6109L48.2923 36.0256V36.0258Z" fill="#C9C9C9"/>
<path d="M59.4712 23.2168C60.8663 22.3428 59.8274 21.5319 59.9376 20.5389C59.9964 20.0106 60.0517 19.5122 60.2825 19.2372C61.5663 17.7066 64.5944 17.2421 64.6255 17.2372L66.0472 17.027L65.1059 16.196C64.9841 16.0883 61.1207 13.3044 55.1406 14.7622C50.959 15.7808 47.8631 19.2349 47.7479 19.3744L49.8443 20.1191C49.8696 20.0898 52.3176 16.8429 55.9056 15.9693C58.806 15.2626 61.479 15.935 62.6234 16.3757C61.4068 16.7426 59.8148 17.4109 58.8559 18.5542C58.4036 19.0942 58.3277 19.774 58.2542 20.4323C58.157 21.3039 58.0653 22.1266 57.2158 22.6595L59.4712 23.2168V23.2168ZM63.1961 35.9739C63.1961 35.9739 61.4397 34.3281 60.919 31.126C60.7146 29.8645 61.0772 27.3768 61.6582 26.4197C61.5525 28.7727 62.3454 31.126 62.3454 31.126C62.3454 31.126 62.8795 35.4952 63.1961 35.9739Z" fill="#463014"/>
<path d="M53.9303 21.5548C53.9311 21.5513 54.4941 19.6934 56.0552 18.7554C58.2568 17.4328 60.9454 18.1364 60.9704 18.1426L61.3618 17.2319C61.2313 17.2001 58.1589 16.4689 55.3262 17.9722C52.4773 19.484 52.1362 20.8544 52.1058 21.0057L53.9303 21.5548V21.5548ZM57.6774 34.7936C57.6774 34.7936 58.5994 33.7969 58.4327 32.7008C58.351 32.1595 58.0189 31.6037 57.4256 31.4066C56.3236 31.041 55.835 31.9843 55.835 31.9843C55.835 31.9843 57.3863 32.2734 57.6774 34.7936Z" fill="#463014"/>
<path d="M47.5543 36.313C47.5158 36.3672 47.4959 36.3977 47.4959 36.3977C47.4959 36.3977 50.3706 38.0275 53.3178 36.3736C54.8964 35.4874 54.7473 33.2957 54.2632 32.3662C53.0068 32.5813 51.9411 32.9689 51.0496 33.4217C52.1758 32.6628 53.1616 32.1041 53.1581 32.0912L54.4389 31.8177L56.926 31.1738C56.958 31.3171 57.865 34.5287 55.2452 36.7171C54.0846 37.6874 48.6427 39.8603 46.0596 36.1448L47.5543 36.3129V36.313Z" fill="#463014"/>
<path d="M47.8227 36.5517C46.2037 38.4126 42.1197 37.3491 42.1901 35.3818C42.1901 35.3818 44.9189 36.5194 47.3306 34.4248C48.7384 33.202 53.251 29.8303 59.369 30.9507C55.144 31.6525 49.5499 34.5674 47.8227 36.5517V36.5517Z" fill="#463014"/>
<path d="M59.9411 41.8038C59.5512 41.9737 58.1769 43.0481 58.1769 44.6547C58.176 45.4605 58.2823 49.508 58.8112 51.9808C58.0167 52.3705 57.4635 52.4534 56.6725 52.8507C56.2765 49.9869 55.9917 45.8362 56.125 44.1605C56.2761 42.2505 57.6299 40.9687 58.8855 40.4221C59.2789 40.2512 59.6899 40.0833 60.1047 39.9144C62.2557 39.0367 64.4803 38.1286 64.4803 36.5783C64.4803 35.3653 63.8553 34.986 63.1944 34.5839L63.1239 34.5403C62.6852 34.2726 62.1879 33.9691 61.8946 33.4708C61.0919 32.1084 60.9603 28.6374 61.8937 27.7564C62.3593 27.3174 63.6072 25.841 63.2486 24.8489C63.1112 24.4703 62.7952 24.1896 62.2813 23.9908C61.7371 23.7802 61.0033 23.6737 60.0976 23.6737C58.3217 23.6737 56.3496 24.0822 55.3336 24.3253C51.6999 25.1951 47.3154 27.7026 46.0576 28.4504C46.0217 28.4713 46.001 28.4835 45.9971 28.4855L45.1923 28.9079L45.6952 28.2723C45.7272 28.2327 48.9119 24.2772 54.6076 22.8269C55.7159 22.5448 57.8927 22.0713 60.0323 22.0713C61.3061 22.0713 62.3859 22.2394 63.2426 22.5702C64.286 22.9732 64.9919 23.616 65.2858 24.4288C66.005 26.4211 63.6623 28.6392 63.5823 28.7102C63.3093 29.0784 63.1937 31.7529 63.8237 32.8232C63.9106 32.9711 64.1485 33.1162 64.4505 33.2998C64.5447 33.3574 64.6493 33.4173 64.7619 33.4813C65.6523 33.9887 66.9977 34.7552 66.9977 36.5223C66.9977 38.94 63.7528 40.2509 61.146 41.3049C60.7178 41.4787 60.3089 41.6432 59.9409 41.8038H59.9411Z" fill="#463014"/>
<path d="M56.0701 22.9324C55.554 22.2722 54.2339 20.9976 51.192 19.8775C47.797 18.628 43.8679 17.9937 39.5119 17.9923V17.9915H39.4951V17.9918C35.1385 17.9934 31.2085 18.6278 27.8145 19.8771C24.7724 20.9974 23.4532 22.2719 22.9367 22.932L22.7149 23.1535L25.3201 23.5914L25.4026 23.5126L25.4463 23.4404C25.4865 23.3104 25.8357 22.6084 28.74 21.5389C31.845 20.3953 35.4666 19.8155 39.5028 19.8145C43.54 19.8155 47.16 20.3953 50.2646 21.5389C53.1693 22.6084 53.5196 23.3104 53.5594 23.4403L53.6029 23.5126L53.6845 23.5914L56.2903 23.1535L56.0699 22.9324H56.0701Z" fill="#463014"/>
<path d="M59.4712 23.2168C60.8663 22.3428 59.8274 21.5319 59.9376 20.5389C59.9964 20.0106 60.0517 19.5122 60.2825 19.2372C61.5663 17.7066 64.5944 17.2421 64.6255 17.2372L66.0472 17.027L65.1059 16.196C64.9841 16.0883 61.1207 13.3044 55.1406 14.7622C50.959 15.7808 47.8631 19.2349 47.7479 19.3744L49.8443 20.1192C49.8696 20.0898 52.3176 16.8429 55.9056 15.9693C58.806 15.2626 61.479 15.935 62.6234 16.3757C61.4068 16.7426 59.8148 17.4109 58.8559 18.5542C58.4036 19.0942 58.3277 19.774 58.2542 20.4323C58.157 21.3039 58.0653 22.1266 57.2158 22.6595L59.4712 23.2168V23.2168Z" fill="#463014"/>
<path d="M56.7866 22.7205L57.0801 22.5359C57.8613 22.0466 57.9489 21.2563 58.0433 20.4161C58.119 19.7401 58.197 19.0406 58.6766 18.4688C59.5579 17.4185 60.953 16.7605 62.1021 16.3691C61.4142 16.1491 60.1213 15.8211 58.527 15.8211C57.6465 15.8211 56.7872 15.9216 55.9696 16.1209C52.6413 16.9313 50.2895 19.8606 50.0232 20.2043L49.9234 20.3234L47.4427 19.4425L47.569 19.2903C47.5981 19.2549 50.7114 15.6737 55.0766 14.6107C56.2439 14.3259 57.4172 14.1821 58.5635 14.1821C62.7647 14.1821 65.2456 16.0735 65.2668 16.0926L66.4436 17.1314L64.6681 17.3942C64.6387 17.3988 61.685 17.8654 60.4619 19.3231C60.2592 19.5653 60.2061 20.0445 60.1486 20.5532C60.1151 20.8558 60.1991 21.1506 60.281 21.4355C60.4585 22.0534 60.642 22.6926 59.607 23.3402L59.5171 23.3966L56.7866 22.7205V22.7205Z" fill="#463014"/>
<path d="M53.9303 21.5548C53.9311 21.5513 54.4941 19.6934 56.0552 18.7554C58.2568 17.4328 60.9454 18.1364 60.9704 18.1426L61.3618 17.2319C61.2313 17.2001 58.1589 16.4689 55.3262 17.9722C52.4773 19.484 52.1362 20.8544 52.1058 21.0057L53.9303 21.5548V21.5548Z" fill="#463014"/>
<path d="M51.8728 21.1073L51.8974 20.9823C51.9283 20.8241 52.2852 19.3913 55.205 17.8414C56.4062 17.2039 57.8455 16.8667 59.3675 16.8667C60.5218 16.8667 61.3374 17.0583 61.4278 17.0803L61.6281 17.1293L61.1049 18.344L60.9028 18.2935C60.8272 18.2742 60.1483 18.1092 59.2348 18.1092C58.064 18.1092 57.0388 18.3687 56.1879 18.8805C54.6949 19.7772 54.1425 21.5715 54.1373 21.5891L54.0824 21.7716L51.8728 21.1073ZM60.8336 17.9455L61.0936 17.3407C60.787 17.2819 60.166 17.1863 59.3675 17.1863C57.9125 17.1863 56.5938 17.4947 55.4483 18.1027C53.052 19.3747 52.4792 20.524 52.3494 20.9071L53.7872 21.3396C53.9752 20.8346 54.5981 19.4273 55.9242 18.6303C56.8393 18.0811 57.9839 17.7908 59.2346 17.7908C59.9538 17.7908 60.5332 17.8845 60.8339 17.9455H60.8336ZM44.6288 60.8934C43.5407 60.0149 42.8968 59.0694 42.7412 58.7791C42.6522 58.6136 42.551 58.2983 42.87 58.0505C43.1188 57.8588 43.55 57.7602 44.1527 57.7602H45.0805C46.0475 57.7602 47.178 57.7602 47.8503 57.7608L48.4144 57.7615C49.2063 57.7615 49.5966 57.9325 49.7844 58.076C50.0576 58.2847 50.1002 58.5751 49.9119 58.9387C49.4084 59.9099 48.2651 60.7026 47.9273 60.9225C47.4847 61.211 46.8493 61.3821 46.2251 61.3821C45.5854 61.3821 45.0185 61.2084 44.6288 60.8934V60.8934ZM45.5707 36.6609L47.8227 36.5516C47.8227 36.5516 47.2476 37.3183 46.8743 38.31C46.4529 39.4317 47.2597 41.0711 47.2597 41.0711C47.2597 41.0711 44.2549 38.5022 45.5707 36.6609V36.6609Z" fill="#463014"/>
<path d="M39.5039 30.5859C38.0678 30.5859 36.1953 30.5562 34.7903 29.7937C34.7903 29.7937 36.6299 32.2289 39.5015 32.2289L39.5039 31.9208L39.5063 32.2289C42.3781 32.2289 44.2173 29.7939 44.2173 29.7939C42.8125 30.556 40.9388 30.5859 39.5039 30.5859Z" fill="#E78724"/>
<path d="M43.4581 30.5742C42.0177 31.2326 40.7311 31.4608 39.5039 31.481C38.2764 31.4608 36.9904 31.2326 35.5498 30.5742C35.5498 30.5742 37.6477 32.5074 39.4933 32.5223V32.5234C39.4966 32.5234 39.4998 32.5227 39.5037 32.5227C39.507 32.5227 39.5102 32.5234 39.5141 32.5234V32.5223C41.3593 32.5074 43.4581 30.5742 43.4581 30.5742V30.5742ZM48.3833 65.8753L48.2227 64.2983C54.9869 63.9055 57.1183 59.0101 57.1293 58.4947H59.224C59.2248 59.6866 56.4023 65.4098 48.3833 65.8753Z" fill="#463014"/>
<path d="M50.6366 55.6219C50.7626 55.075 50.7749 54.5562 50.6221 54.0465C51.2324 53.7005 52.3251 53.572 53.1458 53.3711C53.8168 53.0504 57.2516 53.6998 59.7429 51.4231C62.8641 48.5722 62.2065 46.8701 62.2065 46.8701C63.0074 47.5416 63.7824 47.2856 65.0031 50.4166C66.2248 53.5482 64.4288 55.7313 61.0833 57.923C59.503 58.9582 57.2685 59.3848 55.3465 59.548C55.9904 59.06 54.2469 59.0111 53.0459 58.6716C53.1419 57.9388 52.9806 57.2276 52.2573 56.6549C51.822 56.3095 51.2599 56.1032 50.6781 55.9387C50.6452 55.8819 50.6171 55.8294 50.5871 55.7749C50.6063 55.7251 50.6245 55.6748 50.6368 55.6219H50.6366Z" fill="white"/>
<path d="M53.0606 58.6525C53.1311 58.4986 53.1825 58.3419 53.2342 58.1841C53.2906 58.0119 53.5672 57.5236 53.2257 58.0811C53.3135 57.9383 53.3705 57.7912 53.4129 57.643C58.8311 57.6378 63.5447 54.8285 62.6331 48.9225C63.3424 48.2115 64.3364 50.3565 64.3364 50.3565C64.3364 50.3565 67.0489 56.3041 60.0435 58.6092C57.7094 59.3779 55.647 59.9291 55.16 59.7066C54.1453 59.8622 53.2301 59.3285 52.8877 58.9774C52.9517 58.8697 53.0118 58.7617 53.0606 58.6525V58.6525Z" fill="#C9C9C9"/>
<path d="M50.7336 54.7657C50.7261 54.2672 50.5903 53.7843 50.2722 53.3033C50.2495 53.2702 50.2238 53.2384 50.2 53.2061C52.2847 53.1925 54.6861 53.0419 56.7308 52.4238C58.978 51.7449 61.7893 49.4224 62.2726 46.6936C62.2726 46.6936 66.5051 49.16 65.2616 54.4393C64.0932 59.3964 58.6007 61.0124 52.3362 61.2858C52.3327 61.2538 53.0409 60.1496 52.817 59.4734C56.3733 59.6686 60.3515 58.6307 62.2728 56.2447C64.0299 54.0606 63.5371 50.332 62.8144 49.7856C61.0526 53.9852 54.71 54.839 50.7336 54.7657V54.7657Z" fill="#463014"/>
<path d="M53.2633 56.009C52.5149 55.3979 51.1388 54.6697 47.966 54.6697L39.5145 54.6658H39.4938C37.0581 54.6671 31.0412 54.6697 31.0412 54.6697C27.869 54.6697 26.493 55.3981 25.7441 56.009C24.6533 56.8983 24.4822 58.1352 25.2369 59.6815C27.242 63.7971 30.06 67.9785 39.4933 67.9843V67.985C39.4968 67.985 39.4998 67.9843 39.5037 67.9843C39.507 67.9843 39.5102 67.985 39.5141 67.985V67.9843C48.9465 67.9781 51.7645 63.7971 53.7703 59.6815C54.525 58.1352 54.3534 56.8983 53.2633 56.009ZM51.7948 59.3929C50.8395 61.4596 48.2718 66.4619 39.5035 66.4706C30.7341 66.4619 28.1675 61.4598 27.212 59.3929C26.6834 58.2462 26.7236 57.3977 27.3356 56.8707C27.7538 56.5103 28.7143 56.0803 30.9031 56.0803L33.1899 56.0796C34.877 56.0785 36.9952 56.0772 39.5037 56.0764C42.0114 56.0772 44.1307 56.0785 45.8173 56.0796L48.1032 56.0803C50.2927 56.0803 51.253 56.5102 51.6714 56.8707C52.2828 57.3982 52.3234 58.2462 51.7946 59.3929H51.7948Z" fill="#463014"/>
<path d="M50.0777 51.7593C51.205 54.2575 53.5075 56.2794 53.5075 56.2794C53.5075 56.2794 50.3401 56.1706 50.165 55.7474C50.0364 55.4353 47.3057 50.608 46.2575 44.9529C47.2426 46.1761 49.9809 51.5453 50.0777 51.7593V51.7593Z" fill="#463014"/>
</svg>
