<svg width="135" height="42" viewBox="0 0 135 42" fill="none" xmlns="http://www.w3.org/2000/svg">
  <g filter="url(#filter0_d)">
    <path
      d="M0 16C0 7.16344 7.16344 0 16 0H119C127.837 0 135 7.16344 135 16V24C135 32.8366 127.837 40 119 40H16C7.16345 40 0 32.8366 0 24V16Z"
      fill="#16161A" />
    <path
      d="M16.5682 23.272C16.7496 23.3787 16.8403 23.5227 16.8403 23.704C16.8403 23.8427 16.7869 23.96 16.6803 24.056C16.5843 24.1413 16.4563 24.184 16.2963 24.184C16.1789 24.184 16.0722 24.1627 15.9762 24.12L9.51225 21.192C9.36292 21.128 9.24558 21.032 9.16025 20.904C9.07492 20.7653 9.03225 20.6107 9.03225 20.44C9.03225 20.28 9.07492 20.136 9.16025 20.008C9.24558 19.88 9.36292 19.784 9.51225 19.72L15.9762 16.792C16.1042 16.7387 16.2109 16.712 16.2963 16.712C16.4563 16.712 16.5843 16.76 16.6803 16.856C16.7869 16.9413 16.8403 17.0587 16.8403 17.208C16.8403 17.3893 16.7496 17.528 16.5682 17.624L10.2642 20.456L16.5682 23.272ZM61.6821 19.72C61.8315 19.784 61.9488 19.88 62.0341 20.008C62.1195 20.136 62.1621 20.28 62.1621 20.44C62.1621 20.6107 62.1195 20.7653 62.0341 20.904C61.9488 21.032 61.8315 21.128 61.6821 21.192L55.2181 24.12C55.1221 24.1627 55.0155 24.184 54.8981 24.184C54.7488 24.184 54.6208 24.1413 54.5141 24.056C54.4075 23.96 54.3541 23.8427 54.3541 23.704C54.3541 23.5227 54.4501 23.3787 54.6421 23.272L60.9301 20.456L54.6421 17.624C54.4501 17.5387 54.3541 17.4 54.3541 17.208C54.3541 17.0587 54.4021 16.9413 54.4981 16.856C54.6048 16.76 54.7381 16.712 54.8981 16.712C54.9835 16.712 55.0901 16.7387 55.2181 16.792L61.6821 19.72ZM75.7689 23.272C75.9502 23.3787 76.0409 23.5227 76.0409 23.704C76.0409 23.8427 75.9875 23.96 75.8809 24.056C75.7849 24.1413 75.6569 24.184 75.4969 24.184C75.3795 24.184 75.2729 24.1627 75.1769 24.12L68.7129 21.192C68.5635 21.128 68.4462 21.032 68.3609 20.904C68.2755 20.7653 68.2329 20.6107 68.2329 20.44C68.2329 20.28 68.2755 20.136 68.3609 20.008C68.4462 19.88 68.5635 19.784 68.7129 19.72L75.1769 16.792C75.3049 16.7387 75.4115 16.712 75.4969 16.712C75.6569 16.712 75.7849 16.76 75.8809 16.856C75.9875 16.9413 76.0409 17.0587 76.0409 17.208C76.0409 17.3893 75.9502 17.528 75.7689 17.624L69.4649 20.456L75.7689 23.272ZM77.9066 25.576C77.864 25.7147 77.7946 25.8213 77.6986 25.896C77.6026 25.9707 77.496 26.008 77.3786 26.008C77.2293 26.008 77.096 25.9547 76.9786 25.848C76.8613 25.7413 76.8026 25.608 76.8026 25.448C76.8026 25.384 76.8186 25.3093 76.8506 25.224L80.6266 13.416C80.6693 13.2773 80.7386 13.1707 80.8346 13.096C80.9306 13.0213 81.0373 12.984 81.1546 12.984C81.304 12.984 81.4373 13.0373 81.5546 13.144C81.672 13.2507 81.7306 13.3893 81.7306 13.56C81.7306 13.592 81.72 13.6613 81.6986 13.768L77.9066 25.576ZM125.494 19.72C125.643 19.784 125.761 19.88 125.846 20.008C125.931 20.136 125.974 20.28 125.974 20.44C125.974 20.6107 125.931 20.7653 125.846 20.904C125.761 21.032 125.643 21.128 125.494 21.192L119.03 24.12C118.934 24.1627 118.827 24.184 118.71 24.184C118.561 24.184 118.433 24.1413 118.326 24.056C118.219 23.96 118.166 23.8427 118.166 23.704C118.166 23.5227 118.262 23.3787 118.454 23.272L124.742 20.456L118.454 17.624C118.262 17.5387 118.166 17.4 118.166 17.208C118.166 17.0587 118.214 16.9413 118.31 16.856C118.417 16.76 118.55 16.712 118.71 16.712C118.795 16.712 118.902 16.7387 119.03 16.792L125.494 19.72Z"
      fill="#FFFFFE" />
    <path
      d="M22.946 17.016C23.8633 17.016 24.5567 17.2773 25.026 17.8C25.4953 18.312 25.73 19.08 25.73 20.104V24.44C25.73 24.6427 25.6713 24.8027 25.554 24.92C25.4367 25.0267 25.282 25.08 25.09 25.08C24.8873 25.08 24.7273 25.0267 24.61 24.92C24.4927 24.8027 24.434 24.6427 24.434 24.44V20.136C24.434 19.4427 24.29 18.9307 24.002 18.6C23.7247 18.2693 23.2767 18.104 22.658 18.104C21.9433 18.104 21.3727 18.3227 20.946 18.76C20.5193 19.1973 20.306 19.7893 20.306 20.536V24.44C20.306 24.6427 20.2473 24.8027 20.13 24.92C20.0233 25.0267 19.8687 25.08 19.666 25.08C19.4633 25.08 19.3033 25.0267 19.186 24.92C19.0687 24.8027 19.01 24.6427 19.01 24.44V14.264C19.01 14.0827 19.0687 13.9333 19.186 13.816C19.314 13.6987 19.474 13.64 19.666 13.64C19.8687 13.64 20.0233 13.6987 20.13 13.816C20.2473 13.9227 20.306 14.072 20.306 14.264V18.456C20.562 17.9867 20.9193 17.6293 21.378 17.384C21.8367 17.1387 22.3593 17.016 22.946 17.016ZM34.2157 23.192C34.3331 23.192 34.4344 23.24 34.5197 23.336C34.6051 23.432 34.6477 23.5547 34.6477 23.704C34.6477 23.9707 34.4611 24.216 34.0877 24.44C33.7037 24.664 33.2984 24.8347 32.8717 24.952C32.4451 25.0587 32.0291 25.112 31.6237 25.112C30.4184 25.112 29.4637 24.7547 28.7597 24.04C28.0664 23.3253 27.7197 22.3387 27.7197 21.08C27.7197 20.28 27.8744 19.576 28.1837 18.968C28.4931 18.3493 28.9251 17.8693 29.4797 17.528C30.0451 17.1867 30.6851 17.016 31.3997 17.016C32.4131 17.016 33.2184 17.3467 33.8157 18.008C34.4131 18.6693 34.7117 19.5653 34.7117 20.696C34.7117 20.9093 34.6691 21.064 34.5837 21.16C34.4984 21.256 34.3597 21.304 34.1677 21.304H29.0157C29.1117 23.1387 29.9811 24.056 31.6237 24.056C32.0397 24.056 32.3971 24.0027 32.6957 23.896C32.9944 23.7787 33.3144 23.624 33.6557 23.432C33.9331 23.272 34.1197 23.192 34.2157 23.192ZM31.4157 18.024C30.7331 18.024 30.1837 18.2373 29.7677 18.664C29.3624 19.0907 29.1224 19.6933 29.0477 20.472H33.5757C33.5544 19.6827 33.3571 19.08 32.9837 18.664C32.6104 18.2373 32.0877 18.024 31.4157 18.024ZM39.8852 17.016C41.8372 17.016 42.8132 18.04 42.8132 20.088V24.44C42.8132 24.632 42.7546 24.7867 42.6372 24.904C42.5306 25.0213 42.3812 25.08 42.1892 25.08C41.9972 25.08 41.8426 25.0213 41.7252 24.904C41.6079 24.7867 41.5492 24.632 41.5492 24.44V23.672C41.3466 24.1307 41.0372 24.488 40.6212 24.744C40.2052 24.9893 39.7252 25.112 39.1812 25.112C38.6799 25.112 38.2159 25.0107 37.7892 24.808C37.3732 24.6053 37.0426 24.3227 36.7972 23.96C36.5519 23.5973 36.4292 23.1973 36.4292 22.76C36.4292 22.1733 36.5786 21.72 36.8772 21.4C37.1759 21.0693 37.6666 20.8347 38.3492 20.696C39.0319 20.5467 39.9812 20.472 41.1972 20.472H41.5492V19.944C41.5492 19.304 41.4159 18.8347 41.1492 18.536C40.8932 18.2373 40.4719 18.088 39.8852 18.088C39.1599 18.088 38.4239 18.2853 37.6772 18.68C37.3892 18.8613 37.1866 18.952 37.0692 18.952C36.9412 18.952 36.8346 18.904 36.7492 18.808C36.6639 18.712 36.6212 18.5893 36.6212 18.44C36.6212 18.2907 36.6639 18.1627 36.7492 18.056C36.8452 17.9387 36.9946 17.8213 37.1972 17.704C37.5706 17.4907 37.9919 17.3253 38.4612 17.208C38.9412 17.08 39.4159 17.016 39.8852 17.016ZM39.3572 24.088C39.9972 24.088 40.5199 23.8747 40.9252 23.448C41.3412 23.0107 41.5492 22.4507 41.5492 21.768V21.304H41.2612C40.3226 21.304 39.6079 21.3467 39.1172 21.432C38.6266 21.5067 38.2746 21.64 38.0612 21.832C37.8586 22.0133 37.7572 22.2853 37.7572 22.648C37.7572 23.064 37.9066 23.4107 38.2052 23.688C38.5146 23.9547 38.8986 24.088 39.3572 24.088ZM51.5216 13.64C51.7243 13.64 51.8843 13.6987 52.0016 13.816C52.119 13.9333 52.1776 14.0827 52.1776 14.264V24.44C52.1776 24.632 52.119 24.7867 52.0016 24.904C51.8843 25.0213 51.7243 25.08 51.5216 25.08C51.319 25.08 51.159 25.0213 51.0416 24.904C50.935 24.7867 50.8816 24.632 50.8816 24.44V23.576C50.647 24.0667 50.3003 24.4453 49.8416 24.712C49.3936 24.9787 48.8656 25.112 48.2576 25.112C47.575 25.112 46.9723 24.9413 46.4496 24.6C45.927 24.2587 45.5216 23.784 45.2336 23.176C44.9456 22.5573 44.8016 21.8427 44.8016 21.032C44.8016 20.232 44.9456 19.528 45.2336 18.92C45.5216 18.312 45.927 17.8427 46.4496 17.512C46.9723 17.1813 47.575 17.016 48.2576 17.016C48.8656 17.016 49.3936 17.1493 49.8416 17.416C50.3003 17.6827 50.647 18.0613 50.8816 18.552V14.264C50.8816 14.072 50.935 13.9227 51.0416 13.816C51.159 13.6987 51.319 13.64 51.5216 13.64ZM48.5136 24.04C49.271 24.04 49.8523 23.784 50.2576 23.272C50.6736 22.7493 50.8816 22.0133 50.8816 21.064C50.8816 20.1147 50.6736 19.384 50.2576 18.872C49.8523 18.36 49.271 18.104 48.5136 18.104C47.7563 18.104 47.1643 18.36 46.7376 18.872C46.3216 19.384 46.1136 20.104 46.1136 21.032C46.1136 21.9813 46.3216 22.7227 46.7376 23.256C47.1643 23.7787 47.7563 24.04 48.5136 24.04ZM86.7579 17.016C87.6752 17.016 88.3685 17.2773 88.8379 17.8C89.3072 18.312 89.5419 19.08 89.5419 20.104V24.44C89.5419 24.6427 89.4832 24.8027 89.3659 24.92C89.2485 25.0267 89.0939 25.08 88.9019 25.08C88.6992 25.08 88.5392 25.0267 88.4219 24.92C88.3045 24.8027 88.2459 24.6427 88.2459 24.44V20.136C88.2459 19.4427 88.1019 18.9307 87.8139 18.6C87.5365 18.2693 87.0885 18.104 86.4699 18.104C85.7552 18.104 85.1845 18.3227 84.7579 18.76C84.3312 19.1973 84.1179 19.7893 84.1179 20.536V24.44C84.1179 24.6427 84.0592 24.8027 83.9419 24.92C83.8352 25.0267 83.6805 25.08 83.4779 25.08C83.2752 25.08 83.1152 25.0267 82.9979 24.92C82.8805 24.8027 82.8219 24.6427 82.8219 24.44V14.264C82.8219 14.0827 82.8805 13.9333 82.9979 13.816C83.1259 13.6987 83.2859 13.64 83.4779 13.64C83.6805 13.64 83.8352 13.6987 83.9419 13.816C84.0592 13.9227 84.1179 14.072 84.1179 14.264V18.456C84.3739 17.9867 84.7312 17.6293 85.1899 17.384C85.6485 17.1387 86.1712 17.016 86.7579 17.016ZM98.0276 23.192C98.145 23.192 98.2463 23.24 98.3316 23.336C98.417 23.432 98.4596 23.5547 98.4596 23.704C98.4596 23.9707 98.273 24.216 97.8996 24.44C97.5156 24.664 97.1103 24.8347 96.6836 24.952C96.257 25.0587 95.841 25.112 95.4356 25.112C94.2303 25.112 93.2756 24.7547 92.5716 24.04C91.8783 23.3253 91.5316 22.3387 91.5316 21.08C91.5316 20.28 91.6863 19.576 91.9956 18.968C92.305 18.3493 92.737 17.8693 93.2916 17.528C93.857 17.1867 94.497 17.016 95.2116 17.016C96.225 17.016 97.0303 17.3467 97.6276 18.008C98.225 18.6693 98.5236 19.5653 98.5236 20.696C98.5236 20.9093 98.481 21.064 98.3956 21.16C98.3103 21.256 98.1716 21.304 97.9796 21.304H92.8276C92.9236 23.1387 93.793 24.056 95.4356 24.056C95.8516 24.056 96.209 24.0027 96.5076 23.896C96.8063 23.7787 97.1263 23.624 97.4676 23.432C97.745 23.272 97.9316 23.192 98.0276 23.192ZM95.2276 18.024C94.545 18.024 93.9956 18.2373 93.5796 18.664C93.1743 19.0907 92.9343 19.6933 92.8596 20.472H97.3876C97.3663 19.6827 97.169 19.08 96.7956 18.664C96.4223 18.2373 95.8996 18.024 95.2276 18.024ZM103.697 17.016C105.649 17.016 106.625 18.04 106.625 20.088V24.44C106.625 24.632 106.566 24.7867 106.449 24.904C106.342 25.0213 106.193 25.08 106.001 25.08C105.809 25.08 105.654 25.0213 105.537 24.904C105.42 24.7867 105.361 24.632 105.361 24.44V23.672C105.158 24.1307 104.849 24.488 104.433 24.744C104.017 24.9893 103.537 25.112 102.993 25.112C102.492 25.112 102.028 25.0107 101.601 24.808C101.185 24.6053 100.854 24.3227 100.609 23.96C100.364 23.5973 100.241 23.1973 100.241 22.76C100.241 22.1733 100.39 21.72 100.689 21.4C100.988 21.0693 101.478 20.8347 102.161 20.696C102.844 20.5467 103.793 20.472 105.009 20.472H105.361V19.944C105.361 19.304 105.228 18.8347 104.961 18.536C104.705 18.2373 104.284 18.088 103.697 18.088C102.972 18.088 102.236 18.2853 101.489 18.68C101.201 18.8613 100.998 18.952 100.881 18.952C100.753 18.952 100.646 18.904 100.561 18.808C100.476 18.712 100.433 18.5893 100.433 18.44C100.433 18.2907 100.476 18.1627 100.561 18.056C100.657 17.9387 100.806 17.8213 101.009 17.704C101.382 17.4907 101.804 17.3253 102.273 17.208C102.753 17.08 103.228 17.016 103.697 17.016ZM103.169 24.088C103.809 24.088 104.332 23.8747 104.737 23.448C105.153 23.0107 105.361 22.4507 105.361 21.768V21.304H105.073C104.134 21.304 103.42 21.3467 102.929 21.432C102.438 21.5067 102.086 21.64 101.873 21.832C101.67 22.0133 101.569 22.2853 101.569 22.648C101.569 23.064 101.718 23.4107 102.017 23.688C102.326 23.9547 102.71 24.088 103.169 24.088ZM115.334 13.64C115.536 13.64 115.696 13.6987 115.814 13.816C115.931 13.9333 115.99 14.0827 115.99 14.264V24.44C115.99 24.632 115.931 24.7867 115.814 24.904C115.696 25.0213 115.536 25.08 115.334 25.08C115.131 25.08 114.971 25.0213 114.854 24.904C114.747 24.7867 114.694 24.632 114.694 24.44V23.576C114.459 24.0667 114.112 24.4453 113.654 24.712C113.206 24.9787 112.678 25.112 112.07 25.112C111.387 25.112 110.784 24.9413 110.262 24.6C109.739 24.2587 109.334 23.784 109.046 23.176C108.758 22.5573 108.614 21.8427 108.614 21.032C108.614 20.232 108.758 19.528 109.046 18.92C109.334 18.312 109.739 17.8427 110.262 17.512C110.784 17.1813 111.387 17.016 112.07 17.016C112.678 17.016 113.206 17.1493 113.654 17.416C114.112 17.6827 114.459 18.0613 114.694 18.552V14.264C114.694 14.072 114.747 13.9227 114.854 13.816C114.971 13.6987 115.131 13.64 115.334 13.64ZM112.326 24.04C113.083 24.04 113.664 23.784 114.07 23.272C114.486 22.7493 114.694 22.0133 114.694 21.064C114.694 20.1147 114.486 19.384 114.07 18.872C113.664 18.36 113.083 18.104 112.326 18.104C111.568 18.104 110.976 18.36 110.55 18.872C110.134 19.384 109.926 20.104 109.926 21.032C109.926 21.9813 110.134 22.7227 110.55 23.256C110.976 23.7787 111.568 24.04 112.326 24.04Z"
      fill="#EF4565" />
    <path
      d="M16 1H119V-1H16V1ZM134 16V24H136V16H134ZM119 39H16V41H119V39ZM1 24V16H-1V24H1ZM16 39C7.71573 39 1 32.2843 1 24H-1C-1 33.3888 6.61116 41 16 41V39ZM134 24C134 32.2843 127.284 39 119 39V41C128.389 41 136 33.3888 136 24H134ZM119 1C127.284 1 134 7.71573 134 16H136C136 6.61116 128.389 -1 119 -1V1ZM16 -1C6.61116 -1 -1 6.61116 -1 16H1C1 7.71573 7.71573 1 16 1V-1Z" />
  </g>
  <defs>
    <filter id="filter0_d" x="0" y="0" width="135" height="42" filterUnits="userSpaceOnUse"
      color-interpolation-filters="sRGB">
      <feBlend mode="normal" in="SourceGraphic" in2="effect1_dropShadow" result="shape" />
    </filter>
  </defs>
</svg>