<svg width="247" height="247" viewBox="0 0 247 247" fill="none" xmlns="http://www.w3.org/2000/svg">
<path fill-rule="evenodd" clip-rule="evenodd" d="M246.279 61.6012C246.279 27.6368 218.705 0.0620117 184.74 0.0620117H61.6639C27.6995 0.0620117 0.124756 27.6368 0.124756 61.6012V184.677C0.124756 218.642 27.6995 246.217 61.6639 246.217H184.74C218.705 246.217 246.279 218.642 246.279 184.677V61.6012Z" fill="#873DEC"/>
<path d="M59.5655 53.6288C59.5655 54.515 58.806 56.2873 57.54 59.1989C56.1475 62.1106 55.0082 64.3892 54.3752 66.035C51.5901 72.6178 49.5646 78.5677 48.4253 84.0112C47.286 89.4547 46.653 95.1514 46.653 100.975C46.653 106.292 47.1594 111.609 48.1721 116.672C49.0583 121.609 50.5774 126.673 52.6029 131.737C53.6156 134.395 55.1347 137.687 56.9071 141.358C58.6794 145.029 59.5655 147.308 59.5655 148.194C59.5655 149.08 59.3123 149.84 58.9326 150.346C58.5528 150.853 58.0464 151.106 57.4134 151.106C56.1475 151.106 54.755 150.473 53.1093 149.08C51.5901 147.688 49.6912 145.536 47.6657 142.624C43.235 136.294 39.9435 129.711 37.7915 122.749C35.6394 115.786 34.5 108.57 34.5 100.975C34.5 94.0121 35.3862 87.3026 37.1585 80.973C39.0574 74.6433 41.7158 68.5668 45.3871 62.6169C47.7923 58.6925 49.9444 55.7809 51.9699 53.7554C53.9954 51.8565 55.7677 50.8438 57.4134 50.8438C58.0464 50.8438 58.5528 51.0969 58.9326 51.6033C59.3123 52.1097 59.5655 52.7427 59.5655 53.6288Z" fill="white"/>
<path d="M186.453 148.194C186.453 147.308 187.213 145.536 188.605 142.751C189.998 139.839 191.01 137.687 191.77 135.915C194.555 129.332 196.58 123.255 197.72 117.812C198.986 112.368 199.492 106.798 199.492 100.975C199.492 95.6578 198.986 90.4675 197.973 85.4037C196.96 80.34 195.441 75.2763 193.416 70.0859C192.276 67.4275 190.884 64.1361 189.111 60.4649C187.339 56.7936 186.453 54.515 186.453 53.6288C186.453 52.7427 186.706 52.1097 187.086 51.6033C187.466 51.0969 188.099 50.8438 188.732 50.8438C190.124 50.8438 191.517 51.4767 193.036 52.8692C194.555 54.1352 196.454 56.2873 198.479 59.1989C202.91 65.5286 206.202 72.1114 208.354 79.0741C210.506 86.0367 211.645 93.3791 211.645 100.975C211.645 107.937 210.759 114.52 208.86 120.976C207.088 127.306 204.303 133.383 200.631 139.333C198.1 143.384 195.821 146.295 193.922 148.194C192.023 150.093 190.251 151.106 188.732 151.106C188.099 151.106 187.466 150.853 187.086 150.22C186.706 149.713 186.453 149.08 186.453 148.194Z" fill="white"/>
<path d="M86.2598 118.426C91.115 118.426 95.051 114.49 95.051 109.635C95.051 104.78 91.115 100.844 86.2598 100.844C81.4045 100.844 77.4686 104.78 77.4686 109.635C77.4686 114.49 81.4045 118.426 86.2598 118.426Z" fill="white"/>
<path d="M160.084 118.426C155.228 118.426 151.292 114.49 151.292 109.635C151.292 104.78 155.228 100.844 160.084 100.844C164.939 100.844 168.875 104.78 168.875 109.635C168.875 114.49 164.939 118.426 160.084 118.426Z" fill="white"/>
<path d="M36.3618 186.11V175.18H36.1216C35.5811 175.18 35.1907 175.03 34.9205 174.759C34.6502 174.489 34.5001 174.099 34.5001 173.558C34.5001 172.988 34.6502 172.567 34.9505 172.327C35.2508 172.057 35.7012 171.937 36.3618 171.937H39.9952C42.0371 171.937 43.5385 172.027 44.4694 172.207C45.4303 172.387 46.241 172.657 46.9016 173.078C48.0727 173.768 48.9735 174.789 49.6041 176.081C50.2347 177.402 50.565 178.903 50.565 180.615C50.565 182.417 50.2047 184.008 49.484 185.359C48.7634 186.711 47.7424 187.731 46.4212 188.422C45.8206 188.752 45.13 188.963 44.3192 189.113C43.5385 189.263 42.3374 189.323 40.7459 189.323H36.3618C35.7012 189.323 35.2208 189.203 34.9205 188.963C34.6502 188.692 34.5001 188.272 34.5001 187.701C34.5001 187.191 34.6502 186.771 34.9205 186.5C35.1907 186.26 35.5811 186.11 36.1216 186.11H36.3618ZM40.1453 175.12V186.11H40.9861C42.8479 186.11 44.1991 185.66 45.0699 184.759C45.9708 183.858 46.3911 182.447 46.3911 180.585C46.3911 178.723 45.9407 177.372 45.0699 176.441C44.1691 175.54 42.8178 175.09 41.0161 175.09C40.7759 175.09 40.5958 175.09 40.4756 175.09C40.3555 175.09 40.2354 175.12 40.1453 175.12Z" fill="white"/>
<path d="M66.7024 185.782H66.9426C67.4531 185.782 67.8735 185.932 68.1437 186.203C68.414 186.473 68.5641 186.893 68.5641 187.404C68.5641 187.974 68.414 188.365 68.1437 188.635C67.8434 188.875 67.363 188.995 66.7024 188.995H65.3211C64.8406 188.995 64.4803 188.905 64.2401 188.725C63.9999 188.545 63.7897 188.184 63.6395 187.704C62.8288 188.244 61.958 188.665 61.0571 188.935C60.1563 189.205 59.2254 189.356 58.2945 189.356C56.7331 189.356 55.5019 188.965 54.6011 188.184C53.7003 187.404 53.2498 186.323 53.2498 184.971C53.2498 183.5 53.8204 182.359 54.9915 181.548C56.1626 180.738 57.7841 180.347 59.886 180.347C60.3665 180.347 60.8469 180.377 61.3874 180.407C61.8979 180.467 62.4985 180.557 63.1591 180.647V180.377C63.1591 179.506 62.9489 178.816 62.5285 178.365C62.0781 177.915 61.4775 177.675 60.6367 177.675C59.9761 177.675 59.1654 177.915 58.1744 178.395C57.1535 178.876 56.4328 179.116 55.9524 179.116C55.5019 179.116 55.1116 178.966 54.8413 178.696C54.5711 178.455 54.4209 178.095 54.4209 177.645C54.4209 176.864 54.9915 176.233 56.1626 175.753C57.3036 175.302 58.8951 175.062 60.877 175.062C62.9789 175.062 64.4503 175.453 65.3511 176.263C66.252 177.074 66.7024 178.425 66.7024 180.347V185.782ZM63.1591 182.96C62.6786 182.839 62.2282 182.779 61.8078 182.719C61.3874 182.659 61.0271 182.629 60.6668 182.629C59.5857 182.629 58.745 182.809 58.1444 183.17C57.5138 183.53 57.2135 184.041 57.2135 184.671C57.2135 185.242 57.4237 185.662 57.8141 185.962C58.2045 186.263 58.745 186.413 59.4957 186.413C60.1563 186.413 60.7869 186.323 61.3874 186.113C61.988 185.932 62.5885 185.632 63.1591 185.212V182.96Z" fill="white"/>
<path d="M80.6181 185.778H83.771C84.4617 185.778 84.9421 185.898 85.2124 186.138C85.4826 186.379 85.6328 186.799 85.6328 187.37C85.6328 187.94 85.4826 188.36 85.2124 188.601C84.9121 188.871 84.4317 188.991 83.771 188.991H73.8618C73.2012 188.991 72.7208 188.871 72.4205 188.601C72.1502 188.36 72.0001 187.94 72.0001 187.37C72.0001 186.799 72.1502 186.379 72.4205 186.138C72.6907 185.898 73.1712 185.778 73.8618 185.778H77.0148V178.661H75.3632C74.7026 178.661 74.2222 178.541 73.9519 178.271C73.6817 178.031 73.5315 177.61 73.5315 177.04C73.5315 176.469 73.6516 176.049 73.9519 175.809C74.2222 175.569 74.6726 175.448 75.3632 175.448H79.7773C80.0476 175.448 80.2578 175.508 80.4079 175.599C80.5581 175.719 80.6181 175.869 80.6181 176.079V185.778ZM78.5162 168.812C79.2368 168.812 79.6872 168.962 79.9275 169.233C80.1677 169.503 80.2878 170.164 80.2878 171.184C80.2878 172.175 80.1677 172.806 79.9575 173.046C79.7473 173.286 79.2669 173.407 78.4861 173.407C77.7054 173.407 77.225 173.286 77.0148 173.076C76.7745 172.836 76.6844 172.386 76.6844 171.725C76.6844 170.464 76.8046 169.683 77.0148 169.323C77.255 168.992 77.7354 168.812 78.5162 168.812Z" fill="white"/>
<path d="M98.5866 185.569H101.74C102.4 185.569 102.881 185.689 103.151 185.929C103.421 186.169 103.571 186.59 103.571 187.16C103.571 187.731 103.421 188.151 103.151 188.391C102.881 188.661 102.4 188.782 101.74 188.782H91.8003C91.1397 188.782 90.6592 188.661 90.389 188.391C90.1187 188.151 89.9686 187.731 89.9686 187.16C89.9686 186.59 90.1187 186.169 90.389 185.929C90.6592 185.689 91.1097 185.569 91.8003 185.569H94.9532V172.837H93.3317C92.6711 172.837 92.1907 172.717 91.8904 172.446C91.6201 172.206 91.47 171.786 91.47 171.215C91.47 170.645 91.6201 170.224 91.8904 169.984C92.1907 169.714 92.6711 169.594 93.3317 169.594H97.7158C97.9861 169.594 98.1963 169.654 98.3464 169.744C98.4965 169.864 98.5866 170.014 98.5866 170.224V185.569Z" fill="white"/>
<path d="M111.96 178.276L114.603 184.522L117.365 178.276H117.125C116.615 178.276 116.194 178.126 115.924 177.855C115.654 177.585 115.504 177.195 115.504 176.654C115.504 176.084 115.654 175.663 115.924 175.423C116.194 175.183 116.675 175.063 117.365 175.063H120.819C121.509 175.063 121.99 175.183 122.26 175.423C122.53 175.693 122.68 176.084 122.68 176.654C122.68 177.195 122.53 177.585 122.26 177.855C121.99 178.126 121.599 178.276 121.059 178.276H120.819L114.783 191.218H115.444C116.104 191.218 116.585 191.338 116.885 191.608C117.155 191.848 117.305 192.269 117.305 192.839C117.305 193.41 117.155 193.83 116.885 194.07C116.585 194.341 116.104 194.461 115.444 194.461H109.018C108.357 194.461 107.877 194.341 107.576 194.07C107.306 193.83 107.156 193.41 107.156 192.839C107.156 192.269 107.306 191.848 107.576 191.608C107.877 191.338 108.357 191.218 109.018 191.218H111.3L112.681 188.275L108.237 178.276H107.997C107.456 178.276 107.066 178.126 106.796 177.855C106.495 177.585 106.375 177.195 106.375 176.654C106.375 176.084 106.525 175.663 106.796 175.423C107.066 175.183 107.546 175.063 108.237 175.063H111.96C112.621 175.063 113.101 175.183 113.402 175.423C113.672 175.693 113.822 176.084 113.822 176.654C113.822 177.195 113.672 177.585 113.402 177.855C113.131 178.126 112.711 178.276 112.201 178.276H111.96Z" fill="white"/>
<path d="M148.138 181.726V186.2H150.33C151.892 186.2 152.973 186.02 153.603 185.69C154.264 185.359 154.564 184.759 154.564 183.978C154.564 183.167 154.264 182.597 153.663 182.236C153.063 181.906 151.982 181.726 150.48 181.726H148.138ZM155.615 180.104C156.666 180.495 157.447 181.035 157.957 181.696C158.468 182.386 158.708 183.257 158.708 184.308C158.708 185.209 158.498 186.02 158.047 186.741C157.627 187.461 157.026 188.062 156.216 188.542C155.735 188.812 155.225 189.023 154.624 189.143C154.054 189.263 153.243 189.323 152.162 189.323H144.505C143.874 189.323 143.394 189.203 143.124 188.933C142.853 188.692 142.703 188.272 142.703 187.701C142.703 187.191 142.853 186.771 143.094 186.5C143.364 186.26 143.754 186.11 144.265 186.11H144.505V175.18H144.265C143.754 175.18 143.364 175.03 143.094 174.759C142.853 174.489 142.703 174.099 142.703 173.558C142.703 172.988 142.853 172.567 143.124 172.327C143.424 172.057 143.874 171.937 144.505 171.937H151.261C153.333 171.937 154.894 172.327 155.945 173.138C157.026 173.949 157.567 175.12 157.567 176.651C157.567 177.432 157.387 178.092 157.056 178.663C156.756 179.264 156.246 179.744 155.615 180.104ZM148.138 175.09V178.783H150.12C151.321 178.783 152.162 178.633 152.642 178.363C153.153 178.062 153.393 177.582 153.393 176.921C153.393 176.291 153.183 175.81 152.732 175.54C152.282 175.24 151.561 175.09 150.57 175.09H148.138Z" fill="white"/>
<path d="M170.852 185.778H174.005C174.696 185.778 175.176 185.898 175.447 186.138C175.717 186.379 175.867 186.799 175.867 187.37C175.867 187.94 175.717 188.36 175.447 188.601C175.146 188.871 174.666 188.991 174.005 188.991H164.096C163.435 188.991 162.955 188.871 162.655 188.601C162.384 188.36 162.234 187.94 162.234 187.37C162.234 186.799 162.384 186.379 162.655 186.138C162.925 185.898 163.405 185.778 164.096 185.778H167.249V178.661H165.597C164.937 178.661 164.456 178.541 164.186 178.271C163.916 178.031 163.766 177.61 163.766 177.04C163.766 176.469 163.886 176.049 164.186 175.809C164.456 175.569 164.907 175.448 165.597 175.448H170.012C170.282 175.448 170.492 175.508 170.642 175.599C170.792 175.719 170.852 175.869 170.852 176.079V185.778ZM168.75 168.812C169.471 168.812 169.921 168.962 170.162 169.233C170.402 169.503 170.522 170.164 170.522 171.184C170.522 172.175 170.402 172.806 170.192 173.046C169.981 173.286 169.501 173.407 168.72 173.407C167.94 173.407 167.459 173.286 167.249 173.076C167.009 172.836 166.919 172.386 166.919 171.725C166.919 170.464 167.039 169.683 167.249 169.323C167.489 168.992 167.97 168.812 168.75 168.812Z" fill="white"/>
<path d="M185.847 176.411H190.322C191.012 176.411 191.463 176.531 191.763 176.771C192.033 177.041 192.183 177.432 192.183 178.002C192.183 178.573 192.033 178.993 191.763 179.233C191.463 179.504 190.982 179.624 190.322 179.624H185.847V183.377C185.847 184.428 185.998 185.149 186.328 185.539C186.658 185.929 187.229 186.14 188.039 186.14C188.79 186.14 189.691 185.929 190.742 185.479C191.763 185.029 192.454 184.818 192.814 184.818C193.204 184.818 193.565 184.969 193.835 185.299C194.135 185.599 194.285 185.99 194.285 186.44C194.285 187.191 193.595 187.881 192.243 188.512C190.862 189.112 189.331 189.443 187.589 189.443C186.598 189.443 185.697 189.293 184.947 189.022C184.166 188.752 183.565 188.362 183.145 187.851C182.815 187.461 182.574 186.98 182.454 186.44C182.304 185.899 182.244 184.969 182.244 183.707V179.624H180.863C180.202 179.624 179.722 179.504 179.451 179.233C179.181 178.993 179.031 178.573 179.031 178.002C179.031 177.432 179.181 177.011 179.451 176.771C179.722 176.531 180.202 176.411 180.863 176.411H182.244V172.987C182.244 172.297 182.394 171.846 182.664 171.576C182.935 171.276 183.415 171.156 184.046 171.156C184.706 171.156 185.157 171.276 185.427 171.576C185.697 171.846 185.847 172.297 185.847 172.987V176.411Z" fill="white"/>
<path d="M200.994 188.845C200.724 189.055 200.484 189.205 200.214 189.295C199.943 189.385 199.673 189.445 199.373 189.445C198.953 189.445 198.652 189.325 198.502 189.115C198.322 188.875 198.232 188.455 198.232 187.854V185.902C198.232 185.272 198.352 184.791 198.562 184.521C198.772 184.251 199.133 184.131 199.673 184.131C200.244 184.131 200.724 184.401 201.084 184.971C201.295 185.272 201.475 185.482 201.625 185.632C202.105 186.082 202.646 186.383 203.307 186.593C203.937 186.833 204.658 186.923 205.469 186.923C206.159 186.923 206.73 186.803 207.15 186.533C207.571 186.233 207.781 185.902 207.781 185.452C207.781 184.671 206.64 184.101 204.388 183.8C203.907 183.74 203.517 183.68 203.216 183.65C201.505 183.41 200.244 182.959 199.433 182.269C198.592 181.578 198.172 180.647 198.172 179.476C198.172 178.095 198.682 177.044 199.673 176.293C200.664 175.543 202.105 175.152 203.937 175.152C204.568 175.152 205.228 175.212 205.889 175.302C206.58 175.422 207.24 175.573 207.961 175.783C208.171 175.543 208.381 175.362 208.622 175.242C208.832 175.122 209.102 175.062 209.372 175.062C209.793 175.062 210.093 175.182 210.303 175.452C210.513 175.693 210.603 176.053 210.603 176.564V178.365C210.603 178.786 210.513 179.116 210.273 179.356C210.063 179.566 209.763 179.686 209.372 179.686C208.982 179.686 208.291 179.326 207.33 178.635C206.339 177.945 205.378 177.584 204.388 177.584C203.637 177.584 203.036 177.705 202.616 177.975C202.196 178.215 201.985 178.545 201.985 178.996C201.985 179.686 202.856 180.137 204.628 180.377C205.138 180.437 205.529 180.497 205.829 180.527C208.051 180.858 209.552 181.338 210.393 181.969C211.204 182.599 211.624 183.56 211.624 184.821C211.624 186.293 211.084 187.434 209.973 188.244C208.892 189.055 207.36 189.445 205.348 189.445C204.568 189.445 203.817 189.385 203.096 189.295C202.376 189.205 201.655 189.055 200.994 188.845Z" fill="white"/>
</svg>
