<svg width="68" height="42" viewBox="0 0 68 42" fill="none" xmlns="http://www.w3.org/2000/svg">
  <g filter="url(#filter0_d)">
    <path
      d="M0 16C0 7.16344 7.16344 0 16 0H52C60.8366 0 68 7.16344 68 16V24C68 32.8366 60.8366 40 52 40H16C7.16344 40 0 32.8366 0 24V16Z"
      fill="#16161A" />
    <path
      d="M16.6608 23.272C16.8421 23.3787 16.9328 23.5227 16.9328 23.704C16.9328 23.8427 16.8794 23.96 16.7728 24.056C16.6768 24.1413 16.5488 24.184 16.3888 24.184C16.2714 24.184 16.1648 24.1627 16.0688 24.12L9.60475 21.192C9.45542 21.128 9.33808 21.032 9.25275 20.904C9.16742 20.7653 9.12475 20.6107 9.12475 20.44C9.12475 20.28 9.16742 20.136 9.25275 20.008C9.33808 19.88 9.45542 19.784 9.60475 19.72L16.0688 16.792C16.1968 16.7387 16.3034 16.712 16.3888 16.712C16.5488 16.712 16.6768 16.76 16.7728 16.856C16.8794 16.9413 16.9328 17.0587 16.9328 17.208C16.9328 17.3893 16.8421 17.528 16.6608 17.624L10.3568 20.456L16.6608 23.272ZM58.3215 19.72C58.4708 19.784 58.5882 19.88 58.6735 20.008C58.7588 20.136 58.8015 20.28 58.8015 20.44C58.8015 20.6107 58.7588 20.7653 58.6735 20.904C58.5882 21.032 58.4708 21.128 58.3215 21.192L51.8575 24.12C51.7615 24.1627 51.6548 24.184 51.5375 24.184C51.3882 24.184 51.2602 24.1413 51.1535 24.056C51.0468 23.96 50.9935 23.8427 50.9935 23.704C50.9935 23.5227 51.0895 23.3787 51.2815 23.272L57.5695 20.456L51.2815 17.624C51.0895 17.5387 50.9935 17.4 50.9935 17.208C50.9935 17.0587 51.0415 16.9413 51.1375 16.856C51.2442 16.76 51.3775 16.712 51.5375 16.712C51.6228 16.712 51.7295 16.7387 51.8575 16.792L58.3215 19.72Z"
      fill="#FFFFFE" />
    <path
      d="M23.0385 17.016C23.9558 17.016 24.6492 17.2773 25.1185 17.8C25.5878 18.312 25.8225 19.08 25.8225 20.104V24.44C25.8225 24.6427 25.7638 24.8027 25.6465 24.92C25.5292 25.0267 25.3745 25.08 25.1825 25.08C24.9798 25.08 24.8198 25.0267 24.7025 24.92C24.5852 24.8027 24.5265 24.6427 24.5265 24.44V20.136C24.5265 19.4427 24.3825 18.9307 24.0945 18.6C23.8172 18.2693 23.3692 18.104 22.7505 18.104C22.0358 18.104 21.4652 18.3227 21.0385 18.76C20.6118 19.1973 20.3985 19.7893 20.3985 20.536V24.44C20.3985 24.6427 20.3398 24.8027 20.2225 24.92C20.1158 25.0267 19.9612 25.08 19.7585 25.08C19.5558 25.08 19.3958 25.0267 19.2785 24.92C19.1612 24.8027 19.1025 24.6427 19.1025 24.44V14.264C19.1025 14.0827 19.1612 13.9333 19.2785 13.816C19.4065 13.6987 19.5665 13.64 19.7585 13.64C19.9612 13.64 20.1158 13.6987 20.2225 13.816C20.3398 13.9227 20.3985 14.072 20.3985 14.264V18.456C20.6545 17.9867 21.0118 17.6293 21.4705 17.384C21.9292 17.1387 22.4518 17.016 23.0385 17.016ZM31.8763 24.056C32.2496 24.088 32.4363 24.2587 32.4363 24.568C32.4363 24.7493 32.3669 24.888 32.2283 24.984C32.1003 25.0693 31.9029 25.1013 31.6363 25.08L31.2043 25.048C30.3509 24.984 29.7216 24.728 29.3163 24.28C28.9109 23.832 28.7083 23.1547 28.7083 22.248V18.232H27.6363C27.4549 18.232 27.3109 18.1893 27.2043 18.104C27.1083 18.008 27.0603 17.8853 27.0603 17.736C27.0603 17.576 27.1083 17.448 27.2043 17.352C27.3109 17.256 27.4549 17.208 27.6363 17.208H28.7083V15.4C28.7083 15.1973 28.7669 15.0427 28.8843 14.936C29.0016 14.8187 29.1616 14.76 29.3643 14.76C29.5563 14.76 29.7109 14.8187 29.8283 14.936C29.9456 15.0427 30.0043 15.1973 30.0043 15.4V17.208H31.7803C31.9509 17.208 32.0843 17.256 32.1803 17.352C32.2869 17.448 32.3403 17.576 32.3403 17.736C32.3403 17.8853 32.2869 18.008 32.1803 18.104C32.0843 18.1893 31.9509 18.232 31.7803 18.232H30.0043V22.312C30.0043 22.8987 30.1216 23.3253 30.3563 23.592C30.6016 23.848 30.9643 23.992 31.4443 24.024L31.8763 24.056ZM42.4658 17.016C44.1938 17.016 45.0578 18.0453 45.0578 20.104V24.44C45.0578 24.6427 44.9991 24.8027 44.8818 24.92C44.7644 25.0267 44.6098 25.08 44.4178 25.08C44.2258 25.08 44.0658 25.0267 43.9378 24.92C43.8204 24.8027 43.7618 24.6427 43.7618 24.44V20.136C43.7618 19.4213 43.6338 18.904 43.3778 18.584C43.1218 18.264 42.7218 18.104 42.1778 18.104C41.5271 18.104 41.0151 18.3227 40.6418 18.76C40.2684 19.1973 40.0818 19.7893 40.0818 20.536V24.44C40.0818 24.6427 40.0178 24.8027 39.8898 24.92C39.7724 25.0267 39.6178 25.08 39.4258 25.08C39.2338 25.08 39.0791 25.0267 38.9618 24.92C38.8444 24.8027 38.7858 24.6427 38.7858 24.44V20.136C38.7858 19.4213 38.6578 18.904 38.4018 18.584C38.1458 18.264 37.7404 18.104 37.1858 18.104C36.5458 18.104 36.0338 18.3227 35.6498 18.76C35.2764 19.1973 35.0898 19.7893 35.0898 20.536V24.44C35.0898 24.6427 35.0311 24.8027 34.9138 24.92C34.7964 25.0267 34.6418 25.08 34.4498 25.08C34.2578 25.08 34.0978 25.0267 33.9698 24.92C33.8524 24.8027 33.7938 24.6427 33.7938 24.44V17.688C33.7938 17.496 33.8524 17.3413 33.9698 17.224C34.0978 17.1067 34.2578 17.048 34.4498 17.048C34.6311 17.048 34.7804 17.1067 34.8978 17.224C35.0151 17.3307 35.0738 17.48 35.0738 17.672V18.44C35.3084 17.9813 35.6338 17.6293 36.0498 17.384C36.4658 17.1387 36.9458 17.016 37.4898 17.016C38.7058 17.016 39.5004 17.528 39.8738 18.552C40.0978 18.0827 40.4391 17.7093 40.8978 17.432C41.3564 17.1547 41.8791 17.016 42.4658 17.016ZM48.1548 25.08C47.9628 25.08 47.8028 25.0267 47.6748 24.92C47.5574 24.8027 47.4988 24.6427 47.4988 24.44V14.28C47.4988 14.0773 47.5574 13.9227 47.6748 13.816C47.8028 13.6987 47.9628 13.64 48.1548 13.64C48.3361 13.64 48.4854 13.6987 48.6028 13.816C48.7308 13.9227 48.7948 14.0773 48.7948 14.28V24.44C48.7948 24.6427 48.7308 24.8027 48.6028 24.92C48.4854 25.0267 48.3361 25.08 48.1548 25.08Z"
      fill="#EF4565" />
    <path
      d="M16 1H52V-1H16V1ZM67 16V24H69V16H67ZM52 39H16V41H52V39ZM1 24V16H-1V24H1ZM16 39C7.71573 39 1 32.2843 1 24H-1C-1 33.3888 6.61116 41 16 41V39ZM67 24C67 32.2843 60.2843 39 52 39V41C61.3888 41 69 33.3888 69 24H67ZM52 1C60.2843 1 67 7.71573 67 16H69C69 6.61116 61.3888 -1 52 -1V1ZM16 -1C6.61116 -1 -1 6.61116 -1 16H1C1 7.71573 7.71573 1 16 1V-1Z" />
  </g>
  <defs>
    <filter id="filter0_d" x="0" y="0" width="68" height="42" filterUnits="userSpaceOnUse"
      color-interpolation-filters="sRGB">
      <feBlend mode="normal" in="SourceGraphic" in2="effect1_dropShadow" result="shape" />
    </filter>
  </defs>
</svg>