<svg width="80" height="80" viewBox="0 0 80 80" fill="none" xmlns="http://www.w3.org/2000/svg">
<rect width="80" height="80" fill="#16161A"/>
<path d="M62.3726 43.2856C60.2048 43.2991 58.3277 43.8704 56.7533 44.7211C56.172 43.4585 55.5907 42.3553 55.494 41.5315C55.385 40.5746 55.2518 39.9897 55.385 38.8469C55.5181 37.7039 56.1236 36.0825 56.1236 35.9496C56.1114 35.83 55.9903 35.2452 54.743 35.2319C53.4957 35.2186 52.4178 35.4977 52.2967 35.8566C52.1756 36.2154 51.9334 37.0394 51.7759 37.8899C51.558 39.1392 49.2812 43.5647 47.9854 45.8905C47.5615 44.9867 47.1982 44.1893 47.1254 43.5513C47.0165 42.5946 46.8832 42.0097 47.0165 40.8669C47.1498 39.7238 47.7553 38.1026 47.7553 37.9697C47.7432 37.85 47.6221 37.2653 46.3748 37.252C45.1273 37.2387 44.0496 37.5178 43.9285 37.8766C43.8074 38.2355 43.6742 39.086 43.4078 39.91C43.1533 40.734 40.1257 48.1232 39.3385 50.0502C38.9389 51.0337 38.5878 51.8178 38.3334 52.3494C38.079 52.881 38.3213 52.3892 38.297 52.4424C38.079 52.8943 37.9579 53.1468 37.9579 53.1468V53.1602C37.7884 53.4924 37.6067 53.8113 37.5218 53.8113C37.4613 53.8113 37.3402 52.9208 37.5461 51.6983C37.9942 49.1332 39.0841 45.1331 39.0721 44.9869C39.0721 44.9204 39.2779 44.2159 38.3696 43.8572C37.4855 43.4984 37.1708 44.0965 37.098 44.0965C37.0253 44.0965 36.9648 44.3091 36.9648 44.3091C36.9648 44.3091 37.9457 39.8039 35.0876 39.8039C33.2953 39.8039 30.8248 41.9436 29.6016 43.8972C28.8266 44.3624 27.1795 45.3457 25.4356 46.3957C24.7696 46.7944 24.0793 47.2197 23.4253 47.6051L23.2922 47.4454C19.8286 43.392 13.4222 40.5213 13.6886 35.0725C13.7855 33.0922 14.4153 27.8693 25.993 21.5433C35.4754 16.3602 43.0687 17.7822 44.3886 20.9452C46.2657 25.4638 40.3316 33.8631 30.4738 35.0725C26.7196 35.5376 24.7455 33.9428 24.2491 33.3448C23.7283 32.7201 23.6556 32.6936 23.4619 32.8132C23.147 32.9992 23.3408 33.5574 23.4619 33.8896C23.7525 34.7269 24.9636 36.2154 27.0223 36.9596C28.8267 37.6108 33.235 37.9697 38.5636 35.7104C44.534 33.172 49.1965 26.1283 47.8281 20.2409C46.4354 14.2471 37.3768 12.2802 28.8147 15.616C23.7161 17.6095 18.1937 20.7193 14.2215 24.7993C9.49842 29.6369 8.74758 33.8631 9.06245 35.6173C10.1646 41.8769 18.0242 45.9569 21.1729 48.9737C21.0154 49.0666 20.8701 49.1597 20.7369 49.2395C19.1625 50.09 13.1679 53.5322 11.6662 57.1735C9.97073 61.2934 11.9326 64.2572 13.2405 64.6559C17.2854 65.8918 21.4272 63.6724 23.6676 60.0177C25.8958 56.3629 25.6295 51.6184 24.6001 49.4522L24.5637 49.3724L25.7989 48.575C26.5984 48.0567 27.3855 47.5783 28.0757 47.1662C27.6883 48.3224 27.4096 49.6913 27.2644 51.6847C27.0949 54.0239 27.9668 57.0539 29.1173 58.25C29.626 58.7682 30.2315 58.7816 30.6069 58.7816C31.9391 58.7816 32.5446 57.5721 33.2107 56.1236C34.0342 54.356 34.7608 52.3094 34.7608 52.3094C34.7608 52.3094 33.8525 57.8513 36.3351 57.8513C37.2434 57.8513 38.1517 56.5622 38.5635 55.8977V55.9109C38.5635 55.9109 38.5877 55.8711 38.6361 55.778C38.6869 55.6956 38.7354 55.6114 38.7814 55.5257V55.4991C39.1448 54.808 39.9562 53.2265 41.1672 50.6084C42.7293 47.2328 44.2311 43.0065 44.2311 43.0065C44.2311 43.0065 44.3765 44.0432 44.8246 45.7443C45.0909 46.7544 45.6722 47.8574 46.1202 48.9339C45.7569 49.492 45.5389 49.8111 45.5389 49.8111L45.5511 49.8244C45.2605 50.2497 44.9334 50.7017 44.5945 51.1534C43.3592 52.7748 41.8817 54.6222 41.688 55.1538C41.4579 55.7783 41.5063 56.2435 41.9544 56.6157C42.2814 56.8815 42.8627 56.9345 43.4803 56.8815C44.5945 56.8016 45.3695 56.4961 45.7571 56.3099C46.3626 56.0707 47.0529 55.7119 47.7189 55.1803C48.93 54.1969 49.6687 52.8015 49.5961 50.9409C49.5597 49.9176 49.257 48.9075 48.8816 47.9507C48.9905 47.7779 49.0997 47.605 49.2085 47.4191C51.122 44.349 52.5995 40.9734 52.5995 40.9734C52.5995 40.9734 52.7448 42.0101 53.1929 43.7112C53.4228 44.575 53.8832 45.5187 54.2949 46.449C52.5026 48.0571 51.3763 49.9177 50.9888 51.1404C50.2743 53.3997 50.8313 54.423 51.8849 54.6622C52.3571 54.7685 53.0354 54.5293 53.5439 54.2901C54.1737 54.0642 54.9366 53.6786 55.6392 53.1073C56.8502 52.1238 58.0128 50.755 57.9523 48.9077C57.9159 48.0571 57.7101 47.2199 57.4315 46.4225C58.9574 45.7314 60.9313 45.3327 63.4383 45.6649C68.8274 46.356 69.8932 50.0506 69.6874 51.5922C69.4815 53.134 68.3552 53.9844 67.9797 54.2502C67.6043 54.5027 67.4832 54.5959 67.5195 54.7818C67.5679 55.0611 67.7375 55.0476 68.0645 54.9946C68.5126 54.9147 70.8983 53.7321 70.9952 50.8881C71.1405 47.2329 67.9797 43.2459 62.3726 43.2856V43.2856ZM20.8096 58.6621C19.0293 60.8018 16.5225 61.6125 15.4568 60.9214C14.3063 60.1904 14.7542 57.0407 16.9463 54.7681C18.2785 53.386 20.0103 52.1102 21.1487 51.3261C21.403 51.1533 21.7905 50.9009 22.2507 50.5951C22.3234 50.5421 22.3718 50.5154 22.3718 50.5154C22.4566 50.4622 22.5535 50.3958 22.6504 50.3293C23.4618 53.5721 22.6867 56.4161 20.8096 58.6621V58.6621ZM33.8283 48.9472C33.2107 50.6084 31.9027 54.8745 31.1155 54.6352C30.4372 54.4359 30.0256 51.2064 30.9822 48.0169C31.4666 46.4086 32.496 44.495 33.1015 43.7506C34.0826 42.5546 35.1482 42.1559 35.4147 42.6476C35.7296 43.2856 34.2158 47.9105 33.8283 48.9472ZM44.5702 54.5821C44.3038 54.7284 44.0616 54.8346 43.9526 54.755C43.8678 54.7018 44.0615 54.5025 44.0615 54.5025C44.0615 54.5025 45.4057 52.921 45.9386 52.19C46.2414 51.7649 46.6047 51.2732 46.9922 50.7148V50.8743C46.9923 52.7879 45.3211 54.0638 44.5702 54.5821ZM52.8536 52.5089C52.6599 52.3494 52.6842 51.8576 53.3381 50.316C53.5925 49.7047 54.1737 48.6813 55.1789 47.7112C55.3 48.1099 55.3727 48.4952 55.3605 48.8541C55.3485 51.2463 53.7984 52.1367 52.8536 52.5089Z" fill="#CF649A"/>
</svg>
