<svg width="360" height="640" viewBox="0 0 360 640" fill="none" xmlns="http://www.w3.org/2000/svg">
<rect width="360" height="640" fill="#7F5AF0"/>
<path d="M116.065 250.785C116.065 251.671 115.306 253.444 114.04 256.355C112.647 259.267 111.508 261.545 110.875 263.191C108.09 269.774 106.065 275.724 104.925 281.167C103.786 286.611 103.153 292.308 103.153 298.131C103.153 303.448 103.659 308.765 104.672 313.829C105.558 318.766 107.077 323.829 109.103 328.893C110.116 331.552 111.635 334.843 113.407 338.514C115.179 342.185 116.065 344.464 116.065 345.35C116.065 346.236 115.812 346.996 115.433 347.502C115.053 348.009 114.546 348.262 113.913 348.262C112.647 348.262 111.255 347.629 109.609 346.236C108.09 344.844 106.191 342.692 104.166 339.78C99.7349 333.451 96.4435 326.868 94.2914 319.905C92.1393 312.942 91 305.727 91 298.131C91 291.168 91.8862 284.459 93.6585 278.129C95.5574 271.8 98.2158 265.723 101.887 259.773C104.292 255.849 106.444 252.937 108.47 250.912C110.495 249.013 112.268 248 113.913 248C114.546 248 115.053 248.253 115.433 248.76C115.812 249.266 116.065 249.899 116.065 250.785Z" fill="white"/>
<path d="M242.953 345.35C242.953 344.464 243.712 342.692 245.105 339.907C246.497 336.995 247.51 334.843 248.27 333.071C251.055 326.488 253.08 320.411 254.22 314.968C255.486 309.524 255.992 303.954 255.992 298.131C255.992 292.814 255.486 287.624 254.473 282.56C253.46 277.496 251.941 272.433 249.916 267.242C248.776 264.584 247.384 261.292 245.611 257.621C243.839 253.95 242.953 251.671 242.953 250.785C242.953 249.899 243.206 249.266 243.586 248.76C243.966 248.253 244.599 248 245.232 248C246.624 248 248.017 248.633 249.536 250.025C251.055 251.291 252.954 253.444 254.979 256.355C259.41 262.685 262.701 269.268 264.854 276.23C267.006 283.193 268.145 290.535 268.145 298.131C268.145 305.094 267.259 311.676 265.36 318.133C263.588 324.462 260.803 330.539 257.131 336.489C254.599 340.54 252.321 343.451 250.422 345.35C248.523 347.249 246.751 348.262 245.232 348.262C244.599 348.262 243.966 348.009 243.586 347.376C243.206 346.869 242.953 346.236 242.953 345.35Z" fill="white"/>
<path d="M142.76 315.582C147.615 315.582 151.551 311.646 151.551 306.791C151.551 301.936 147.615 298 142.76 298C137.904 298 133.969 301.936 133.969 306.791C133.969 311.646 137.904 315.582 142.76 315.582Z" fill="white"/>
<path d="M216.584 315.582C211.728 315.582 207.792 311.646 207.792 306.791C207.792 301.936 211.728 298 216.584 298C221.439 298 225.375 301.936 225.375 306.791C225.375 311.646 221.439 315.582 216.584 315.582Z" fill="white"/>
<path d="M92.8617 383.266V372.336H92.6215C92.081 372.336 91.6906 372.186 91.4204 371.916C91.1501 371.646 91 371.255 91 370.715C91 370.144 91.1501 369.724 91.4504 369.484C91.7507 369.213 92.2011 369.093 92.8617 369.093H96.4951C98.537 369.093 100.038 369.183 100.969 369.364C101.93 369.544 102.741 369.814 103.402 370.234C104.573 370.925 105.473 371.946 106.104 373.237C106.735 374.558 107.065 376.06 107.065 377.771C107.065 379.573 106.705 381.164 105.984 382.516C105.263 383.867 104.242 384.888 102.921 385.579C102.321 385.909 101.63 386.119 100.819 386.269C100.038 386.419 98.8373 386.479 97.2458 386.479H92.8617C92.2011 386.479 91.7207 386.359 91.4204 386.119C91.1501 385.849 91 385.428 91 384.858C91 384.347 91.1501 383.927 91.4204 383.657C91.6906 383.417 92.081 383.266 92.6215 383.266H92.8617ZM96.6452 372.276V383.266H97.486C99.3478 383.266 100.699 382.816 101.57 381.915C102.471 381.014 102.891 379.603 102.891 377.741C102.891 375.88 102.441 374.528 101.57 373.597C100.669 372.697 99.3177 372.246 97.5161 372.246C97.2758 372.246 97.0957 372.246 96.9756 372.246C96.8554 372.246 96.7353 372.276 96.6452 372.276Z" fill="white"/>
<path d="M123.202 382.939H123.442C123.953 382.939 124.373 383.089 124.644 383.359C124.914 383.629 125.064 384.05 125.064 384.56C125.064 385.131 124.914 385.521 124.644 385.791C124.343 386.032 123.863 386.152 123.202 386.152H121.821C121.341 386.152 120.98 386.062 120.74 385.881C120.5 385.701 120.29 385.341 120.139 384.86C119.329 385.401 118.458 385.821 117.557 386.092C116.656 386.362 115.725 386.512 114.794 386.512C113.233 386.512 112.002 386.122 111.101 385.341C110.2 384.56 109.75 383.479 109.75 382.128C109.75 380.657 110.32 379.516 111.491 378.705C112.662 377.894 114.284 377.504 116.386 377.504C116.866 377.504 117.347 377.534 117.887 377.564C118.398 377.624 118.998 377.714 119.659 377.804V377.534C119.659 376.663 119.449 375.972 119.028 375.522C118.578 375.071 117.977 374.831 117.137 374.831C116.476 374.831 115.665 375.071 114.674 375.552C113.653 376.032 112.933 376.273 112.452 376.273C112.002 376.273 111.611 376.122 111.341 375.852C111.071 375.612 110.921 375.252 110.921 374.801C110.921 374.02 111.491 373.39 112.662 372.909C113.804 372.459 115.395 372.219 117.377 372.219C119.479 372.219 120.95 372.609 121.851 373.42C122.752 374.231 123.202 375.582 123.202 377.504V382.939ZM119.659 380.116C119.179 379.996 118.728 379.936 118.308 379.876C117.887 379.816 117.527 379.786 117.167 379.786C116.086 379.786 115.245 379.966 114.644 380.326C114.014 380.687 113.713 381.197 113.713 381.828C113.713 382.398 113.924 382.819 114.314 383.119C114.704 383.419 115.245 383.569 115.996 383.569C116.656 383.569 117.287 383.479 117.887 383.269C118.488 383.089 119.088 382.789 119.659 382.368V380.116Z" fill="white"/>
<path d="M137.118 382.935H140.271C140.962 382.935 141.442 383.055 141.712 383.295C141.983 383.535 142.133 383.955 142.133 384.526C142.133 385.097 141.983 385.517 141.712 385.757C141.412 386.027 140.932 386.148 140.271 386.148H130.362C129.701 386.148 129.221 386.027 128.92 385.757C128.65 385.517 128.5 385.097 128.5 384.526C128.5 383.955 128.65 383.535 128.92 383.295C129.191 383.055 129.671 382.935 130.362 382.935H133.515V375.818H131.863C131.203 375.818 130.722 375.698 130.452 375.428C130.182 375.187 130.031 374.767 130.031 374.196C130.031 373.626 130.152 373.205 130.452 372.965C130.722 372.725 131.172 372.605 131.863 372.605H136.277C136.547 372.605 136.758 372.665 136.908 372.755C137.058 372.875 137.118 373.025 137.118 373.236V382.935ZM135.016 365.969C135.737 365.969 136.187 366.119 136.427 366.389C136.668 366.659 136.788 367.32 136.788 368.341C136.788 369.332 136.668 369.962 136.457 370.203C136.247 370.443 135.767 370.563 134.986 370.563C134.205 370.563 133.725 370.443 133.515 370.233C133.274 369.992 133.184 369.542 133.184 368.881C133.184 367.62 133.304 366.84 133.515 366.479C133.755 366.149 134.235 365.969 135.016 365.969Z" fill="white"/>
<path d="M155.087 382.725H158.239C158.9 382.725 159.381 382.845 159.651 383.085C159.921 383.325 160.071 383.746 160.071 384.316C160.071 384.887 159.921 385.307 159.651 385.547C159.381 385.818 158.9 385.938 158.239 385.938H148.3C147.64 385.938 147.159 385.818 146.889 385.547C146.619 385.307 146.469 384.887 146.469 384.316C146.469 383.746 146.619 383.325 146.889 383.085C147.159 382.845 147.61 382.725 148.3 382.725H151.453V369.993H149.832C149.171 369.993 148.691 369.873 148.39 369.603C148.12 369.362 147.97 368.942 147.97 368.372C147.97 367.801 148.12 367.381 148.39 367.14C148.691 366.87 149.171 366.75 149.832 366.75H154.216C154.486 366.75 154.696 366.81 154.846 366.9C154.996 367.02 155.087 367.17 155.087 367.381V382.725Z" fill="white"/>
<path d="M168.46 375.432L171.103 381.678L173.865 375.432H173.625C173.115 375.432 172.694 375.282 172.424 375.012C172.154 374.742 172.003 374.351 172.003 373.811C172.003 373.24 172.154 372.82 172.424 372.58C172.694 372.339 173.175 372.219 173.865 372.219H177.318C178.009 372.219 178.49 372.339 178.76 372.58C179.03 372.85 179.18 373.24 179.18 373.811C179.18 374.351 179.03 374.742 178.76 375.012C178.49 375.282 178.099 375.432 177.559 375.432H177.318L171.283 388.374H171.943C172.604 388.374 173.084 388.494 173.385 388.765C173.655 389.005 173.805 389.425 173.805 389.996C173.805 390.566 173.655 390.987 173.385 391.227C173.084 391.497 172.604 391.617 171.943 391.617H165.517C164.857 391.617 164.376 391.497 164.076 391.227C163.806 390.987 163.656 390.566 163.656 389.996C163.656 389.425 163.806 389.005 164.076 388.765C164.376 388.494 164.857 388.374 165.517 388.374H167.8L169.181 385.432L164.737 375.432H164.497C163.956 375.432 163.566 375.282 163.295 375.012C162.995 374.742 162.875 374.351 162.875 373.811C162.875 373.24 163.025 372.82 163.295 372.58C163.566 372.339 164.046 372.219 164.737 372.219H168.46C169.121 372.219 169.601 372.339 169.902 372.58C170.172 372.85 170.322 373.24 170.322 373.811C170.322 374.351 170.172 374.742 169.902 375.012C169.631 375.282 169.211 375.432 168.7 375.432H168.46Z" fill="white"/>
<path d="M204.638 378.882V383.357H206.83C208.392 383.357 209.473 383.176 210.103 382.846C210.764 382.516 211.064 381.915 211.064 381.134C211.064 380.324 210.764 379.753 210.163 379.393C209.563 379.063 208.482 378.882 206.98 378.882H204.638ZM212.115 377.261C213.166 377.651 213.947 378.192 214.457 378.852C214.968 379.543 215.208 380.414 215.208 381.465C215.208 382.366 214.998 383.176 214.547 383.897C214.127 384.618 213.526 385.218 212.716 385.699C212.235 385.969 211.725 386.179 211.124 386.299C210.554 386.419 209.743 386.479 208.662 386.479H201.005C200.374 386.479 199.894 386.359 199.624 386.089C199.353 385.849 199.203 385.428 199.203 384.858C199.203 384.347 199.353 383.927 199.593 383.657C199.864 383.417 200.254 383.266 200.765 383.266H201.005V372.336H200.765C200.254 372.336 199.864 372.186 199.593 371.916C199.353 371.646 199.203 371.255 199.203 370.715C199.203 370.144 199.353 369.724 199.624 369.484C199.924 369.213 200.374 369.093 201.005 369.093H207.761C209.833 369.093 211.394 369.484 212.445 370.294C213.526 371.105 214.067 372.276 214.067 373.808C214.067 374.588 213.887 375.249 213.556 375.82C213.256 376.42 212.746 376.901 212.115 377.261ZM204.638 372.246V375.94H206.62C207.821 375.94 208.662 375.789 209.142 375.519C209.653 375.219 209.893 374.739 209.893 374.078C209.893 373.447 209.683 372.967 209.232 372.697C208.782 372.396 208.061 372.246 207.07 372.246H204.638Z" fill="white"/>
<path d="M227.352 382.935H230.505C231.196 382.935 231.676 383.055 231.946 383.295C232.217 383.535 232.367 383.955 232.367 384.526C232.367 385.097 232.217 385.517 231.946 385.757C231.646 386.027 231.166 386.148 230.505 386.148H220.596C219.935 386.148 219.455 386.027 219.155 385.757C218.884 385.517 218.734 385.097 218.734 384.526C218.734 383.955 218.884 383.535 219.155 383.295C219.425 383.055 219.905 382.935 220.596 382.935H223.749V375.818H222.097C221.437 375.818 220.956 375.698 220.686 375.428C220.416 375.187 220.266 374.767 220.266 374.196C220.266 373.626 220.386 373.205 220.686 372.965C220.956 372.725 221.407 372.605 222.097 372.605H226.511C226.782 372.605 226.992 372.665 227.142 372.755C227.292 372.875 227.352 373.025 227.352 373.236V382.935ZM225.25 365.969C225.971 365.969 226.421 366.119 226.662 366.389C226.902 366.659 227.022 367.32 227.022 368.341C227.022 369.332 226.902 369.962 226.692 370.203C226.481 370.443 226.001 370.563 225.22 370.563C224.439 370.563 223.959 370.443 223.749 370.233C223.509 369.992 223.418 369.542 223.418 368.881C223.418 367.62 223.539 366.84 223.749 366.479C223.989 366.149 224.469 365.969 225.25 365.969Z" fill="white"/>
<path d="M242.347 373.567H246.822C247.512 373.567 247.963 373.687 248.263 373.928C248.533 374.198 248.683 374.588 248.683 375.159C248.683 375.729 248.533 376.15 248.263 376.39C247.963 376.66 247.482 376.78 246.822 376.78H242.347V380.534C242.347 381.585 242.497 382.305 242.828 382.696C243.158 383.086 243.729 383.296 244.539 383.296C245.29 383.296 246.191 383.086 247.242 382.636C248.263 382.185 248.953 381.975 249.314 381.975C249.704 381.975 250.065 382.125 250.335 382.456C250.635 382.756 250.785 383.146 250.785 383.597C250.785 384.347 250.095 385.038 248.743 385.669C247.362 386.269 245.831 386.599 244.089 386.599C243.098 386.599 242.197 386.449 241.447 386.179C240.666 385.909 240.065 385.518 239.645 385.008C239.315 384.618 239.074 384.137 238.954 383.597C238.804 383.056 238.744 382.125 238.744 380.864V376.78H237.363C236.702 376.78 236.222 376.66 235.951 376.39C235.681 376.15 235.531 375.729 235.531 375.159C235.531 374.588 235.681 374.168 235.951 373.928C236.222 373.687 236.702 373.567 237.363 373.567H238.744V370.144C238.744 369.454 238.894 369.003 239.164 368.733C239.435 368.433 239.915 368.312 240.546 368.312C241.206 368.312 241.657 368.433 241.927 368.733C242.197 369.003 242.347 369.454 242.347 370.144V373.567Z" fill="white"/>
<path d="M257.494 386.002C257.224 386.212 256.984 386.362 256.714 386.452C256.443 386.542 256.173 386.602 255.873 386.602C255.452 386.602 255.152 386.482 255.002 386.272C254.822 386.032 254.732 385.611 254.732 385.011V383.059C254.732 382.428 254.852 381.948 255.062 381.678C255.272 381.407 255.633 381.287 256.173 381.287C256.744 381.287 257.224 381.557 257.584 382.128C257.795 382.428 257.975 382.638 258.125 382.789C258.605 383.239 259.146 383.539 259.806 383.749C260.437 383.99 261.158 384.08 261.968 384.08C262.659 384.08 263.23 383.96 263.65 383.689C264.07 383.389 264.281 383.059 264.281 382.608C264.281 381.828 263.139 381.257 260.887 380.957C260.407 380.897 260.017 380.837 259.716 380.807C258.005 380.567 256.744 380.116 255.933 379.425C255.092 378.735 254.672 377.804 254.672 376.633C254.672 375.252 255.182 374.201 256.173 373.45C257.164 372.699 258.605 372.309 260.437 372.309C261.068 372.309 261.728 372.369 262.389 372.459C263.079 372.579 263.74 372.729 264.461 372.939C264.671 372.699 264.881 372.519 265.121 372.399C265.332 372.279 265.602 372.219 265.872 372.219C266.292 372.219 266.593 372.339 266.803 372.609C267.013 372.849 267.103 373.21 267.103 373.72V375.522C267.103 375.942 267.013 376.273 266.773 376.513C266.563 376.723 266.262 376.843 265.872 376.843C265.482 376.843 264.791 376.483 263.83 375.792C262.839 375.101 261.878 374.741 260.887 374.741C260.137 374.741 259.536 374.861 259.116 375.131C258.695 375.372 258.485 375.702 258.485 376.152C258.485 376.843 259.356 377.293 261.128 377.534C261.638 377.594 262.028 377.654 262.329 377.684C264.551 378.014 266.052 378.495 266.893 379.125C267.704 379.756 268.124 380.717 268.124 381.978C268.124 383.449 267.584 384.59 266.473 385.401C265.392 386.212 263.86 386.602 261.848 386.602C261.068 386.602 260.317 386.542 259.596 386.452C258.876 386.362 258.155 386.212 257.494 386.002Z" fill="white"/>
</svg>
